%TF.GenerationSoftware,KiCad,Pcbnew,10.0.5-rc1*%
%TF.CreationDate,2026-08-16T19:30:56-04:00*%
%TF.ProjectId,Footprint-Coupon,466f6f74-7072-4696-9e74-2d436f75706f,A1*%
%TF.SameCoordinates,Original*%
%TF.FileFunction,Copper,L1,Top*%
%TF.FilePolarity,Positive*%
%FSLAX46Y46*%
G04 Gerber Fmt 4.6, Leading zero omitted, Abs format (unit mm)*
G04 Created by KiCad (PCBNEW 10.0.5-rc1) date 2026-08-16 19:30:56*
%MOMM*%
%LPD*%
G01*
G04 APERTURE LIST*
G04 Aperture macros list*
%AMRoundRect*
0 Rectangle with rounded corners*
0 $1 Rounding radius*
0 $2 $3 $4 $5 $6 $7 $8 $9 X,Y pos of 4 corners*
0 Add a 4 corners polygon primitive as box body*
4,1,4,$2,$3,$4,$5,$6,$7,$8,$9,$2,$3,0*
0 Add four circle primitives for the rounded corners*
1,1,$1+$1,$2,$3*
1,1,$1+$1,$4,$5*
1,1,$1+$1,$6,$7*
1,1,$1+$1,$8,$9*
0 Add four rect primitives between the rounded corners*
20,1,$1+$1,$2,$3,$4,$5,0*
20,1,$1+$1,$4,$5,$6,$7,0*
20,1,$1+$1,$6,$7,$8,$9,0*
20,1,$1+$1,$8,$9,$2,$3,0*%
G04 Aperture macros list end*
%TA.AperFunction,SMDPad,CuDef*%
%ADD10RoundRect,0.062500X-0.375000X-0.062500X0.375000X-0.062500X0.375000X0.062500X-0.375000X0.062500X0*%
%TD*%
%TA.AperFunction,SMDPad,CuDef*%
%ADD11RoundRect,0.062500X-0.062500X-0.375000X0.062500X-0.375000X0.062500X0.375000X-0.062500X0.375000X0*%
%TD*%
%TA.AperFunction,HeatsinkPad*%
%ADD12C,0.500000*%
%TD*%
%TA.AperFunction,HeatsinkPad*%
%ADD13R,6.000000X6.000000*%
%TD*%
%TA.AperFunction,HeatsinkPad*%
%ADD14R,5.150000X5.150000*%
%TD*%
%TA.AperFunction,ComponentPad*%
%ADD15RoundRect,0.425000X-0.425000X-0.425000X0.425000X-0.425000X0.425000X0.425000X-0.425000X0.425000X0*%
%TD*%
%TA.AperFunction,ComponentPad*%
%ADD16C,1.700000*%
%TD*%
%TA.AperFunction,ComponentPad*%
%ADD17RoundRect,0.275000X-0.275000X-0.625000X0.275000X-0.625000X0.275000X0.625000X-0.275000X0.625000X0*%
%TD*%
%TA.AperFunction,ComponentPad*%
%ADD18O,1.100000X1.800000*%
%TD*%
%TA.AperFunction,SMDPad,CuDef*%
%ADD19C,1.000000*%
%TD*%
%TA.AperFunction,ComponentPad*%
%ADD20C,1.600000*%
%TD*%
%TA.AperFunction,ComponentPad*%
%ADD21C,1.800000*%
%TD*%
%TA.AperFunction,ComponentPad*%
%ADD22C,1.900000*%
%TD*%
G04 APERTURE END LIST*
D10*
%TO.P,U101,1*%
%TO.N,N/C*%
X37562500Y-39250000D03*
%TO.P,U101,2*%
X37562500Y-39750000D03*
%TO.P,U101,3*%
X37562500Y-40250000D03*
%TO.P,U101,4*%
X37562500Y-40750000D03*
%TO.P,U101,5*%
X37562500Y-41250000D03*
%TO.P,U101,6*%
X37562500Y-41750000D03*
%TO.P,U101,7*%
X37562500Y-42250000D03*
%TO.P,U101,8*%
X37562500Y-42750000D03*
%TO.P,U101,9*%
X37562500Y-43250000D03*
%TO.P,U101,10*%
X37562500Y-43750000D03*
%TO.P,U101,11*%
X37562500Y-44250000D03*
%TO.P,U101,12*%
X37562500Y-44750000D03*
%TO.P,U101,13*%
X37562500Y-45250000D03*
%TO.P,U101,14*%
X37562500Y-45750000D03*
%TO.P,U101,15*%
X37562500Y-46250000D03*
%TO.P,U101,16*%
X37562500Y-46750000D03*
D11*
%TO.P,U101,17*%
X38250000Y-47437500D03*
%TO.P,U101,18*%
X38750000Y-47437500D03*
%TO.P,U101,19*%
X39250000Y-47437500D03*
%TO.P,U101,20*%
X39750000Y-47437500D03*
%TO.P,U101,21*%
X40250000Y-47437500D03*
%TO.P,U101,22*%
X40750000Y-47437500D03*
%TO.P,U101,23*%
X41250000Y-47437500D03*
%TO.P,U101,24*%
X41750000Y-47437500D03*
%TO.P,U101,25*%
X42250000Y-47437500D03*
%TO.P,U101,26*%
X42750000Y-47437500D03*
%TO.P,U101,27*%
X43250000Y-47437500D03*
%TO.P,U101,28*%
X43750000Y-47437500D03*
%TO.P,U101,29*%
X44250000Y-47437500D03*
%TO.P,U101,30*%
X44750000Y-47437500D03*
%TO.P,U101,31*%
X45250000Y-47437500D03*
%TO.P,U101,32*%
X45750000Y-47437500D03*
D10*
%TO.P,U101,33*%
X46437500Y-46750000D03*
%TO.P,U101,34*%
X46437500Y-46250000D03*
%TO.P,U101,35*%
X46437500Y-45750000D03*
%TO.P,U101,36*%
X46437500Y-45250000D03*
%TO.P,U101,37*%
X46437500Y-44750000D03*
%TO.P,U101,38*%
X46437500Y-44250000D03*
%TO.P,U101,39*%
X46437500Y-43750000D03*
%TO.P,U101,40*%
X46437500Y-43250000D03*
%TO.P,U101,41*%
X46437500Y-42750000D03*
%TO.P,U101,42*%
X46437500Y-42250000D03*
%TO.P,U101,43*%
X46437500Y-41750000D03*
%TO.P,U101,44*%
X46437500Y-41250000D03*
%TO.P,U101,45*%
X46437500Y-40750000D03*
%TO.P,U101,46*%
X46437500Y-40250000D03*
%TO.P,U101,47*%
X46437500Y-39750000D03*
%TO.P,U101,48*%
X46437500Y-39250000D03*
D11*
%TO.P,U101,49*%
X45750000Y-38562500D03*
%TO.P,U101,50*%
X45250000Y-38562500D03*
%TO.P,U101,51*%
X44750000Y-38562500D03*
%TO.P,U101,52*%
X44250000Y-38562500D03*
%TO.P,U101,53*%
X43750000Y-38562500D03*
%TO.P,U101,54*%
X43250000Y-38562500D03*
%TO.P,U101,55*%
X42750000Y-38562500D03*
%TO.P,U101,56*%
X42250000Y-38562500D03*
%TO.P,U101,57*%
X41750000Y-38562500D03*
%TO.P,U101,58*%
X41250000Y-38562500D03*
%TO.P,U101,59*%
X40750000Y-38562500D03*
%TO.P,U101,60*%
X40250000Y-38562500D03*
%TO.P,U101,61*%
X39750000Y-38562500D03*
%TO.P,U101,62*%
X39250000Y-38562500D03*
%TO.P,U101,63*%
X38750000Y-38562500D03*
%TO.P,U101,64*%
X38250000Y-38562500D03*
D12*
%TO.P,U101,65*%
X39250000Y-40250000D03*
X39250000Y-41625000D03*
X39250000Y-43000000D03*
X39250000Y-44375000D03*
X39250000Y-45750000D03*
X40625000Y-40250000D03*
X40625000Y-41625000D03*
X40625000Y-43000000D03*
X40625000Y-44375000D03*
X40625000Y-45750000D03*
X42000000Y-40250000D03*
X42000000Y-41625000D03*
X42000000Y-43000000D03*
D13*
X42000000Y-43000000D03*
D12*
X42000000Y-44375000D03*
X42000000Y-45750000D03*
X43375000Y-40250000D03*
X43375000Y-41625000D03*
X43375000Y-43000000D03*
X43375000Y-44375000D03*
X43375000Y-45750000D03*
X44750000Y-40250000D03*
X44750000Y-41625000D03*
X44750000Y-43000000D03*
X44750000Y-44375000D03*
X44750000Y-45750000D03*
%TD*%
D10*
%TO.P,U102,1*%
%TO.N,N/C*%
X65562500Y-39250000D03*
%TO.P,U102,2*%
X65562500Y-39750000D03*
%TO.P,U102,3*%
X65562500Y-40250000D03*
%TO.P,U102,4*%
X65562500Y-40750000D03*
%TO.P,U102,5*%
X65562500Y-41250000D03*
%TO.P,U102,6*%
X65562500Y-41750000D03*
%TO.P,U102,7*%
X65562500Y-42250000D03*
%TO.P,U102,8*%
X65562500Y-42750000D03*
%TO.P,U102,9*%
X65562500Y-43250000D03*
%TO.P,U102,10*%
X65562500Y-43750000D03*
%TO.P,U102,11*%
X65562500Y-44250000D03*
%TO.P,U102,12*%
X65562500Y-44750000D03*
%TO.P,U102,13*%
X65562500Y-45250000D03*
%TO.P,U102,14*%
X65562500Y-45750000D03*
%TO.P,U102,15*%
X65562500Y-46250000D03*
%TO.P,U102,16*%
X65562500Y-46750000D03*
D11*
%TO.P,U102,17*%
X66250000Y-47437500D03*
%TO.P,U102,18*%
X66750000Y-47437500D03*
%TO.P,U102,19*%
X67250000Y-47437500D03*
%TO.P,U102,20*%
X67750000Y-47437500D03*
%TO.P,U102,21*%
X68250000Y-47437500D03*
%TO.P,U102,22*%
X68750000Y-47437500D03*
%TO.P,U102,23*%
X69250000Y-47437500D03*
%TO.P,U102,24*%
X69750000Y-47437500D03*
%TO.P,U102,25*%
X70250000Y-47437500D03*
%TO.P,U102,26*%
X70750000Y-47437500D03*
%TO.P,U102,27*%
X71250000Y-47437500D03*
%TO.P,U102,28*%
X71750000Y-47437500D03*
%TO.P,U102,29*%
X72250000Y-47437500D03*
%TO.P,U102,30*%
X72750000Y-47437500D03*
%TO.P,U102,31*%
X73250000Y-47437500D03*
%TO.P,U102,32*%
X73750000Y-47437500D03*
D10*
%TO.P,U102,33*%
X74437500Y-46750000D03*
%TO.P,U102,34*%
X74437500Y-46250000D03*
%TO.P,U102,35*%
X74437500Y-45750000D03*
%TO.P,U102,36*%
X74437500Y-45250000D03*
%TO.P,U102,37*%
X74437500Y-44750000D03*
%TO.P,U102,38*%
X74437500Y-44250000D03*
%TO.P,U102,39*%
X74437500Y-43750000D03*
%TO.P,U102,40*%
X74437500Y-43250000D03*
%TO.P,U102,41*%
X74437500Y-42750000D03*
%TO.P,U102,42*%
X74437500Y-42250000D03*
%TO.P,U102,43*%
X74437500Y-41750000D03*
%TO.P,U102,44*%
X74437500Y-41250000D03*
%TO.P,U102,45*%
X74437500Y-40750000D03*
%TO.P,U102,46*%
X74437500Y-40250000D03*
%TO.P,U102,47*%
X74437500Y-39750000D03*
%TO.P,U102,48*%
X74437500Y-39250000D03*
D11*
%TO.P,U102,49*%
X73750000Y-38562500D03*
%TO.P,U102,50*%
X73250000Y-38562500D03*
%TO.P,U102,51*%
X72750000Y-38562500D03*
%TO.P,U102,52*%
X72250000Y-38562500D03*
%TO.P,U102,53*%
X71750000Y-38562500D03*
%TO.P,U102,54*%
X71250000Y-38562500D03*
%TO.P,U102,55*%
X70750000Y-38562500D03*
%TO.P,U102,56*%
X70250000Y-38562500D03*
%TO.P,U102,57*%
X69750000Y-38562500D03*
%TO.P,U102,58*%
X69250000Y-38562500D03*
%TO.P,U102,59*%
X68750000Y-38562500D03*
%TO.P,U102,60*%
X68250000Y-38562500D03*
%TO.P,U102,61*%
X67750000Y-38562500D03*
%TO.P,U102,62*%
X67250000Y-38562500D03*
%TO.P,U102,63*%
X66750000Y-38562500D03*
%TO.P,U102,64*%
X66250000Y-38562500D03*
D12*
%TO.P,U102,65*%
X67250000Y-40250000D03*
X67250000Y-41625000D03*
X67250000Y-43000000D03*
X67250000Y-44375000D03*
X67250000Y-45750000D03*
X68625000Y-40250000D03*
X68625000Y-41625000D03*
X68625000Y-43000000D03*
X68625000Y-44375000D03*
X68625000Y-45750000D03*
X70000000Y-40250000D03*
X70000000Y-41625000D03*
X70000000Y-43000000D03*
D13*
X70000000Y-43000000D03*
D12*
X70000000Y-44375000D03*
X70000000Y-45750000D03*
X71375000Y-40250000D03*
X71375000Y-41625000D03*
X71375000Y-43000000D03*
X71375000Y-44375000D03*
X71375000Y-45750000D03*
X72750000Y-40250000D03*
X72750000Y-41625000D03*
X72750000Y-43000000D03*
X72750000Y-44375000D03*
X72750000Y-45750000D03*
%TD*%
D10*
%TO.P,U103,1*%
%TO.N,N/C*%
X93562500Y-39250000D03*
%TO.P,U103,2*%
X93562500Y-39750000D03*
%TO.P,U103,3*%
X93562500Y-40250000D03*
%TO.P,U103,4*%
X93562500Y-40750000D03*
%TO.P,U103,5*%
X93562500Y-41250000D03*
%TO.P,U103,6*%
X93562500Y-41750000D03*
%TO.P,U103,7*%
X93562500Y-42250000D03*
%TO.P,U103,8*%
X93562500Y-42750000D03*
%TO.P,U103,9*%
X93562500Y-43250000D03*
%TO.P,U103,10*%
X93562500Y-43750000D03*
%TO.P,U103,11*%
X93562500Y-44250000D03*
%TO.P,U103,12*%
X93562500Y-44750000D03*
%TO.P,U103,13*%
X93562500Y-45250000D03*
%TO.P,U103,14*%
X93562500Y-45750000D03*
%TO.P,U103,15*%
X93562500Y-46250000D03*
%TO.P,U103,16*%
X93562500Y-46750000D03*
D11*
%TO.P,U103,17*%
X94250000Y-47437500D03*
%TO.P,U103,18*%
X94750000Y-47437500D03*
%TO.P,U103,19*%
X95250000Y-47437500D03*
%TO.P,U103,20*%
X95750000Y-47437500D03*
%TO.P,U103,21*%
X96250000Y-47437500D03*
%TO.P,U103,22*%
X96750000Y-47437500D03*
%TO.P,U103,23*%
X97250000Y-47437500D03*
%TO.P,U103,24*%
X97750000Y-47437500D03*
%TO.P,U103,25*%
X98250000Y-47437500D03*
%TO.P,U103,26*%
X98750000Y-47437500D03*
%TO.P,U103,27*%
X99250000Y-47437500D03*
%TO.P,U103,28*%
X99750000Y-47437500D03*
%TO.P,U103,29*%
X100250000Y-47437500D03*
%TO.P,U103,30*%
X100750000Y-47437500D03*
%TO.P,U103,31*%
X101250000Y-47437500D03*
%TO.P,U103,32*%
X101750000Y-47437500D03*
D10*
%TO.P,U103,33*%
X102437500Y-46750000D03*
%TO.P,U103,34*%
X102437500Y-46250000D03*
%TO.P,U103,35*%
X102437500Y-45750000D03*
%TO.P,U103,36*%
X102437500Y-45250000D03*
%TO.P,U103,37*%
X102437500Y-44750000D03*
%TO.P,U103,38*%
X102437500Y-44250000D03*
%TO.P,U103,39*%
X102437500Y-43750000D03*
%TO.P,U103,40*%
X102437500Y-43250000D03*
%TO.P,U103,41*%
X102437500Y-42750000D03*
%TO.P,U103,42*%
X102437500Y-42250000D03*
%TO.P,U103,43*%
X102437500Y-41750000D03*
%TO.P,U103,44*%
X102437500Y-41250000D03*
%TO.P,U103,45*%
X102437500Y-40750000D03*
%TO.P,U103,46*%
X102437500Y-40250000D03*
%TO.P,U103,47*%
X102437500Y-39750000D03*
%TO.P,U103,48*%
X102437500Y-39250000D03*
D11*
%TO.P,U103,49*%
X101750000Y-38562500D03*
%TO.P,U103,50*%
X101250000Y-38562500D03*
%TO.P,U103,51*%
X100750000Y-38562500D03*
%TO.P,U103,52*%
X100250000Y-38562500D03*
%TO.P,U103,53*%
X99750000Y-38562500D03*
%TO.P,U103,54*%
X99250000Y-38562500D03*
%TO.P,U103,55*%
X98750000Y-38562500D03*
%TO.P,U103,56*%
X98250000Y-38562500D03*
%TO.P,U103,57*%
X97750000Y-38562500D03*
%TO.P,U103,58*%
X97250000Y-38562500D03*
%TO.P,U103,59*%
X96750000Y-38562500D03*
%TO.P,U103,60*%
X96250000Y-38562500D03*
%TO.P,U103,61*%
X95750000Y-38562500D03*
%TO.P,U103,62*%
X95250000Y-38562500D03*
%TO.P,U103,63*%
X94750000Y-38562500D03*
%TO.P,U103,64*%
X94250000Y-38562500D03*
D12*
%TO.P,U103,65*%
X95250000Y-40250000D03*
X95250000Y-41625000D03*
X95250000Y-43000000D03*
X95250000Y-44375000D03*
X95250000Y-45750000D03*
X96625000Y-40250000D03*
X96625000Y-41625000D03*
X96625000Y-43000000D03*
X96625000Y-44375000D03*
X96625000Y-45750000D03*
X98000000Y-40250000D03*
X98000000Y-41625000D03*
X98000000Y-43000000D03*
D13*
X98000000Y-43000000D03*
D12*
X98000000Y-44375000D03*
X98000000Y-45750000D03*
X99375000Y-40250000D03*
X99375000Y-41625000D03*
X99375000Y-43000000D03*
X99375000Y-44375000D03*
X99375000Y-45750000D03*
X100750000Y-40250000D03*
X100750000Y-41625000D03*
X100750000Y-43000000D03*
X100750000Y-44375000D03*
X100750000Y-45750000D03*
%TD*%
D10*
%TO.P,U201,1*%
%TO.N,N/C*%
X38562500Y-66250000D03*
%TO.P,U201,2*%
X38562500Y-66750000D03*
%TO.P,U201,3*%
X38562500Y-67250000D03*
%TO.P,U201,4*%
X38562500Y-67750000D03*
%TO.P,U201,5*%
X38562500Y-68250000D03*
%TO.P,U201,6*%
X38562500Y-68750000D03*
%TO.P,U201,7*%
X38562500Y-69250000D03*
%TO.P,U201,8*%
X38562500Y-69750000D03*
%TO.P,U201,9*%
X38562500Y-70250000D03*
%TO.P,U201,10*%
X38562500Y-70750000D03*
%TO.P,U201,11*%
X38562500Y-71250000D03*
%TO.P,U201,12*%
X38562500Y-71750000D03*
D11*
%TO.P,U201,13*%
X39250000Y-72437500D03*
%TO.P,U201,14*%
X39750000Y-72437500D03*
%TO.P,U201,15*%
X40250000Y-72437500D03*
%TO.P,U201,16*%
X40750000Y-72437500D03*
%TO.P,U201,17*%
X41250000Y-72437500D03*
%TO.P,U201,18*%
X41750000Y-72437500D03*
%TO.P,U201,19*%
X42250000Y-72437500D03*
%TO.P,U201,20*%
X42750000Y-72437500D03*
%TO.P,U201,21*%
X43250000Y-72437500D03*
%TO.P,U201,22*%
X43750000Y-72437500D03*
%TO.P,U201,23*%
X44250000Y-72437500D03*
%TO.P,U201,24*%
X44750000Y-72437500D03*
D10*
%TO.P,U201,25*%
X45437500Y-71750000D03*
%TO.P,U201,26*%
X45437500Y-71250000D03*
%TO.P,U201,27*%
X45437500Y-70750000D03*
%TO.P,U201,28*%
X45437500Y-70250000D03*
%TO.P,U201,29*%
X45437500Y-69750000D03*
%TO.P,U201,30*%
X45437500Y-69250000D03*
%TO.P,U201,31*%
X45437500Y-68750000D03*
%TO.P,U201,32*%
X45437500Y-68250000D03*
%TO.P,U201,33*%
X45437500Y-67750000D03*
%TO.P,U201,34*%
X45437500Y-67250000D03*
%TO.P,U201,35*%
X45437500Y-66750000D03*
%TO.P,U201,36*%
X45437500Y-66250000D03*
D11*
%TO.P,U201,37*%
X44750000Y-65562500D03*
%TO.P,U201,38*%
X44250000Y-65562500D03*
%TO.P,U201,39*%
X43750000Y-65562500D03*
%TO.P,U201,40*%
X43250000Y-65562500D03*
%TO.P,U201,41*%
X42750000Y-65562500D03*
%TO.P,U201,42*%
X42250000Y-65562500D03*
%TO.P,U201,43*%
X41750000Y-65562500D03*
%TO.P,U201,44*%
X41250000Y-65562500D03*
%TO.P,U201,45*%
X40750000Y-65562500D03*
%TO.P,U201,46*%
X40250000Y-65562500D03*
%TO.P,U201,47*%
X39750000Y-65562500D03*
%TO.P,U201,48*%
X39250000Y-65562500D03*
D12*
%TO.P,U201,49*%
X39675000Y-66675000D03*
X39675000Y-67837500D03*
X39675000Y-69000000D03*
X39675000Y-70162500D03*
X39675000Y-71325000D03*
X40837500Y-66675000D03*
X40837500Y-67837500D03*
X40837500Y-69000000D03*
X40837500Y-70162500D03*
X40837500Y-71325000D03*
X42000000Y-66675000D03*
X42000000Y-67837500D03*
X42000000Y-69000000D03*
D14*
X42000000Y-69000000D03*
D12*
X42000000Y-70162500D03*
X42000000Y-71325000D03*
X43162500Y-66675000D03*
X43162500Y-67837500D03*
X43162500Y-69000000D03*
X43162500Y-70162500D03*
X43162500Y-71325000D03*
X44325000Y-66675000D03*
X44325000Y-67837500D03*
X44325000Y-69000000D03*
X44325000Y-70162500D03*
X44325000Y-71325000D03*
%TD*%
D10*
%TO.P,U202,1*%
%TO.N,N/C*%
X66562500Y-66250000D03*
%TO.P,U202,2*%
X66562500Y-66750000D03*
%TO.P,U202,3*%
X66562500Y-67250000D03*
%TO.P,U202,4*%
X66562500Y-67750000D03*
%TO.P,U202,5*%
X66562500Y-68250000D03*
%TO.P,U202,6*%
X66562500Y-68750000D03*
%TO.P,U202,7*%
X66562500Y-69250000D03*
%TO.P,U202,8*%
X66562500Y-69750000D03*
%TO.P,U202,9*%
X66562500Y-70250000D03*
%TO.P,U202,10*%
X66562500Y-70750000D03*
%TO.P,U202,11*%
X66562500Y-71250000D03*
%TO.P,U202,12*%
X66562500Y-71750000D03*
D11*
%TO.P,U202,13*%
X67250000Y-72437500D03*
%TO.P,U202,14*%
X67750000Y-72437500D03*
%TO.P,U202,15*%
X68250000Y-72437500D03*
%TO.P,U202,16*%
X68750000Y-72437500D03*
%TO.P,U202,17*%
X69250000Y-72437500D03*
%TO.P,U202,18*%
X69750000Y-72437500D03*
%TO.P,U202,19*%
X70250000Y-72437500D03*
%TO.P,U202,20*%
X70750000Y-72437500D03*
%TO.P,U202,21*%
X71250000Y-72437500D03*
%TO.P,U202,22*%
X71750000Y-72437500D03*
%TO.P,U202,23*%
X72250000Y-72437500D03*
%TO.P,U202,24*%
X72750000Y-72437500D03*
D10*
%TO.P,U202,25*%
X73437500Y-71750000D03*
%TO.P,U202,26*%
X73437500Y-71250000D03*
%TO.P,U202,27*%
X73437500Y-70750000D03*
%TO.P,U202,28*%
X73437500Y-70250000D03*
%TO.P,U202,29*%
X73437500Y-69750000D03*
%TO.P,U202,30*%
X73437500Y-69250000D03*
%TO.P,U202,31*%
X73437500Y-68750000D03*
%TO.P,U202,32*%
X73437500Y-68250000D03*
%TO.P,U202,33*%
X73437500Y-67750000D03*
%TO.P,U202,34*%
X73437500Y-67250000D03*
%TO.P,U202,35*%
X73437500Y-66750000D03*
%TO.P,U202,36*%
X73437500Y-66250000D03*
D11*
%TO.P,U202,37*%
X72750000Y-65562500D03*
%TO.P,U202,38*%
X72250000Y-65562500D03*
%TO.P,U202,39*%
X71750000Y-65562500D03*
%TO.P,U202,40*%
X71250000Y-65562500D03*
%TO.P,U202,41*%
X70750000Y-65562500D03*
%TO.P,U202,42*%
X70250000Y-65562500D03*
%TO.P,U202,43*%
X69750000Y-65562500D03*
%TO.P,U202,44*%
X69250000Y-65562500D03*
%TO.P,U202,45*%
X68750000Y-65562500D03*
%TO.P,U202,46*%
X68250000Y-65562500D03*
%TO.P,U202,47*%
X67750000Y-65562500D03*
%TO.P,U202,48*%
X67250000Y-65562500D03*
D12*
%TO.P,U202,49*%
X67675000Y-66675000D03*
X67675000Y-67837500D03*
X67675000Y-69000000D03*
X67675000Y-70162500D03*
X67675000Y-71325000D03*
X68837500Y-66675000D03*
X68837500Y-67837500D03*
X68837500Y-69000000D03*
X68837500Y-70162500D03*
X68837500Y-71325000D03*
X70000000Y-66675000D03*
X70000000Y-67837500D03*
X70000000Y-69000000D03*
D14*
X70000000Y-69000000D03*
D12*
X70000000Y-70162500D03*
X70000000Y-71325000D03*
X71162500Y-66675000D03*
X71162500Y-67837500D03*
X71162500Y-69000000D03*
X71162500Y-70162500D03*
X71162500Y-71325000D03*
X72325000Y-66675000D03*
X72325000Y-67837500D03*
X72325000Y-69000000D03*
X72325000Y-70162500D03*
X72325000Y-71325000D03*
%TD*%
D10*
%TO.P,U203,1*%
%TO.N,N/C*%
X94562500Y-66250000D03*
%TO.P,U203,2*%
X94562500Y-66750000D03*
%TO.P,U203,3*%
X94562500Y-67250000D03*
%TO.P,U203,4*%
X94562500Y-67750000D03*
%TO.P,U203,5*%
X94562500Y-68250000D03*
%TO.P,U203,6*%
X94562500Y-68750000D03*
%TO.P,U203,7*%
X94562500Y-69250000D03*
%TO.P,U203,8*%
X94562500Y-69750000D03*
%TO.P,U203,9*%
X94562500Y-70250000D03*
%TO.P,U203,10*%
X94562500Y-70750000D03*
%TO.P,U203,11*%
X94562500Y-71250000D03*
%TO.P,U203,12*%
X94562500Y-71750000D03*
D11*
%TO.P,U203,13*%
X95250000Y-72437500D03*
%TO.P,U203,14*%
X95750000Y-72437500D03*
%TO.P,U203,15*%
X96250000Y-72437500D03*
%TO.P,U203,16*%
X96750000Y-72437500D03*
%TO.P,U203,17*%
X97250000Y-72437500D03*
%TO.P,U203,18*%
X97750000Y-72437500D03*
%TO.P,U203,19*%
X98250000Y-72437500D03*
%TO.P,U203,20*%
X98750000Y-72437500D03*
%TO.P,U203,21*%
X99250000Y-72437500D03*
%TO.P,U203,22*%
X99750000Y-72437500D03*
%TO.P,U203,23*%
X100250000Y-72437500D03*
%TO.P,U203,24*%
X100750000Y-72437500D03*
D10*
%TO.P,U203,25*%
X101437500Y-71750000D03*
%TO.P,U203,26*%
X101437500Y-71250000D03*
%TO.P,U203,27*%
X101437500Y-70750000D03*
%TO.P,U203,28*%
X101437500Y-70250000D03*
%TO.P,U203,29*%
X101437500Y-69750000D03*
%TO.P,U203,30*%
X101437500Y-69250000D03*
%TO.P,U203,31*%
X101437500Y-68750000D03*
%TO.P,U203,32*%
X101437500Y-68250000D03*
%TO.P,U203,33*%
X101437500Y-67750000D03*
%TO.P,U203,34*%
X101437500Y-67250000D03*
%TO.P,U203,35*%
X101437500Y-66750000D03*
%TO.P,U203,36*%
X101437500Y-66250000D03*
D11*
%TO.P,U203,37*%
X100750000Y-65562500D03*
%TO.P,U203,38*%
X100250000Y-65562500D03*
%TO.P,U203,39*%
X99750000Y-65562500D03*
%TO.P,U203,40*%
X99250000Y-65562500D03*
%TO.P,U203,41*%
X98750000Y-65562500D03*
%TO.P,U203,42*%
X98250000Y-65562500D03*
%TO.P,U203,43*%
X97750000Y-65562500D03*
%TO.P,U203,44*%
X97250000Y-65562500D03*
%TO.P,U203,45*%
X96750000Y-65562500D03*
%TO.P,U203,46*%
X96250000Y-65562500D03*
%TO.P,U203,47*%
X95750000Y-65562500D03*
%TO.P,U203,48*%
X95250000Y-65562500D03*
D12*
%TO.P,U203,49*%
X95675000Y-66675000D03*
X95675000Y-67837500D03*
X95675000Y-69000000D03*
X95675000Y-70162500D03*
X95675000Y-71325000D03*
X96837500Y-66675000D03*
X96837500Y-67837500D03*
X96837500Y-69000000D03*
X96837500Y-70162500D03*
X96837500Y-71325000D03*
X98000000Y-66675000D03*
X98000000Y-67837500D03*
X98000000Y-69000000D03*
D14*
X98000000Y-69000000D03*
D12*
X98000000Y-70162500D03*
X98000000Y-71325000D03*
X99162500Y-66675000D03*
X99162500Y-67837500D03*
X99162500Y-69000000D03*
X99162500Y-70162500D03*
X99162500Y-71325000D03*
X100325000Y-66675000D03*
X100325000Y-67837500D03*
X100325000Y-69000000D03*
X100325000Y-70162500D03*
X100325000Y-71325000D03*
%TD*%
D15*
%TO.P,K1,1*%
%TO.N,N/C*%
X39190000Y-85190000D03*
D16*
%TO.P,K1,2*%
X41730000Y-85190000D03*
%TO.P,K1,3*%
X44270000Y-85190000D03*
%TO.P,K1,4*%
X46810000Y-85190000D03*
%TO.P,K1,10*%
X39190000Y-92810000D03*
%TO.P,K1,9*%
X41730000Y-92810000D03*
%TO.P,K1,8*%
X44270000Y-92810000D03*
%TO.P,K1,7*%
X46810000Y-92810000D03*
%TD*%
D17*
%TO.P,J1,1*%
%TO.N,N/C*%
X70000000Y-87000000D03*
D18*
%TO.P,J1,2*%
X68275000Y-81900000D03*
%TO.P,J1,3*%
X71725000Y-81900000D03*
%TO.P,J1,4*%
X73070000Y-87000000D03*
%TO.P,J1,5*%
X68700000Y-87000000D03*
%TO.P,J1,6*%
X66650000Y-87000000D03*
%TD*%
D19*
%TO.P,FID1,1*%
%TO.N,N/C*%
X29000000Y-27000000D03*
%TD*%
%TO.P,FID2,1*%
%TO.N,N/C*%
X111000000Y-27000000D03*
%TD*%
%TO.P,FID3,1*%
%TO.N,N/C*%
X111000000Y-93000000D03*
%TD*%
D20*
%TO.P,HG1,1*%
%TO.N,N/C*%
X93000000Y-88000000D03*
D16*
%TO.P,HG1,2*%
X97000000Y-88000000D03*
D21*
%TO.P,HG1,3*%
X101000000Y-88000000D03*
D22*
%TO.P,HG1,4*%
X105000000Y-88000000D03*
%TD*%
M02*
