%TF.GenerationSoftware,KiCad,Pcbnew,10.0.5-rc1*%
%TF.CreationDate,2026-08-16T19:30:56-04:00*%
%TF.ProjectId,Footprint-Coupon,466f6f74-7072-4696-9e74-2d436f75706f,A1*%
%TF.SameCoordinates,Original*%
%TF.FileFunction,Legend,Bot*%
%TF.FilePolarity,Positive*%
%FSLAX46Y46*%
G04 Gerber Fmt 4.6, Leading zero omitted, Abs format (unit mm)*
G04 Created by KiCad (PCBNEW 10.0.5-rc1) date 2026-08-16 19:30:56*
%MOMM*%
%LPD*%
G01*
G04 APERTURE LIST*
G04 Aperture macros list*
%AMRoundRect*
0 Rectangle with rounded corners*
0 $1 Rounding radius*
0 $2 $3 $4 $5 $6 $7 $8 $9 X,Y pos of 4 corners*
0 Add a 4 corners polygon primitive as box body*
4,1,4,$2,$3,$4,$5,$6,$7,$8,$9,$2,$3,0*
0 Add four circle primitives for the rounded corners*
1,1,$1+$1,$2,$3*
1,1,$1+$1,$4,$5*
1,1,$1+$1,$6,$7*
1,1,$1+$1,$8,$9*
0 Add four rect primitives between the rounded corners*
20,1,$1+$1,$2,$3,$4,$5,0*
20,1,$1+$1,$4,$5,$6,$7,0*
20,1,$1+$1,$6,$7,$8,$9,0*
20,1,$1+$1,$8,$9,$2,$3,0*%
G04 Aperture macros list end*
%ADD10C,0.500000*%
%ADD11RoundRect,0.425000X-0.425000X-0.425000X0.425000X-0.425000X0.425000X0.425000X-0.425000X0.425000X0*%
%ADD12C,1.700000*%
%ADD13RoundRect,0.275000X-0.275000X-0.625000X0.275000X-0.625000X0.275000X0.625000X-0.275000X0.625000X0*%
%ADD14O,1.100000X1.800000*%
%ADD15C,3.200000*%
%ADD16C,1.600000*%
%ADD17C,1.800000*%
%ADD18C,1.900000*%
G04 APERTURE END LIST*
%LPC*%
D10*
%TO.C,U101*%
X39250000Y-40250000D03*
X39250000Y-41625000D03*
X39250000Y-43000000D03*
X39250000Y-44375000D03*
X39250000Y-45750000D03*
X40625000Y-40250000D03*
X40625000Y-41625000D03*
X40625000Y-43000000D03*
X40625000Y-44375000D03*
X40625000Y-45750000D03*
X42000000Y-40250000D03*
X42000000Y-41625000D03*
X42000000Y-43000000D03*
X42000000Y-44375000D03*
X42000000Y-45750000D03*
X43375000Y-40250000D03*
X43375000Y-41625000D03*
X43375000Y-43000000D03*
X43375000Y-44375000D03*
X43375000Y-45750000D03*
X44750000Y-40250000D03*
X44750000Y-41625000D03*
X44750000Y-43000000D03*
X44750000Y-44375000D03*
X44750000Y-45750000D03*
%TD*%
%TO.C,U201*%
X39675000Y-66675000D03*
X39675000Y-67837500D03*
X39675000Y-69000000D03*
X39675000Y-70162500D03*
X39675000Y-71325000D03*
X40837500Y-66675000D03*
X40837500Y-67837500D03*
X40837500Y-69000000D03*
X40837500Y-70162500D03*
X40837500Y-71325000D03*
X42000000Y-66675000D03*
X42000000Y-67837500D03*
X42000000Y-69000000D03*
X42000000Y-70162500D03*
X42000000Y-71325000D03*
X43162500Y-66675000D03*
X43162500Y-67837500D03*
X43162500Y-69000000D03*
X43162500Y-70162500D03*
X43162500Y-71325000D03*
X44325000Y-66675000D03*
X44325000Y-67837500D03*
X44325000Y-69000000D03*
X44325000Y-70162500D03*
X44325000Y-71325000D03*
%TD*%
D11*
%TO.C,K1*%
X39190000Y-85190000D03*
D12*
X41730000Y-85190000D03*
X44270000Y-85190000D03*
X46810000Y-85190000D03*
X39190000Y-92810000D03*
X41730000Y-92810000D03*
X44270000Y-92810000D03*
X46810000Y-92810000D03*
%TD*%
D13*
%TO.C,J1*%
X70000000Y-87000000D03*
D14*
X68275000Y-81900000D03*
X71725000Y-81900000D03*
X73070000Y-87000000D03*
X68700000Y-87000000D03*
X66650000Y-87000000D03*
%TD*%
D15*
%TO.C,H1*%
X24000000Y-24000000D03*
%TD*%
%TO.C,H2*%
X116000000Y-24000000D03*
%TD*%
%TO.C,H3*%
X24000000Y-96000000D03*
%TD*%
%TO.C,H4*%
X116000000Y-96000000D03*
%TD*%
D16*
%TO.C,HG1*%
X93000000Y-88000000D03*
D12*
X97000000Y-88000000D03*
D17*
X101000000Y-88000000D03*
D18*
X105000000Y-88000000D03*
%TD*%
%LPD*%
M02*
