%TF.GenerationSoftware,KiCad,Pcbnew,10.0.5-rc1*%
%TF.CreationDate,2026-08-16T19:30:56-04:00*%
%TF.ProjectId,Footprint-Coupon,466f6f74-7072-4696-9e74-2d436f75706f,A1*%
%TF.SameCoordinates,Original*%
%TF.FileFunction,Legend,Top*%
%TF.FilePolarity,Positive*%
%FSLAX46Y46*%
G04 Gerber Fmt 4.6, Leading zero omitted, Abs format (unit mm)*
G04 Created by KiCad (PCBNEW 10.0.5-rc1) date 2026-08-16 19:30:56*
%MOMM*%
%LPD*%
G01*
G04 APERTURE LIST*
G04 Aperture macros list*
%AMRoundRect*
0 Rectangle with rounded corners*
0 $1 Rounding radius*
0 $2 $3 $4 $5 $6 $7 $8 $9 X,Y pos of 4 corners*
0 Add a 4 corners polygon primitive as box body*
4,1,4,$2,$3,$4,$5,$6,$7,$8,$9,$2,$3,0*
0 Add four circle primitives for the rounded corners*
1,1,$1+$1,$2,$3*
1,1,$1+$1,$4,$5*
1,1,$1+$1,$6,$7*
1,1,$1+$1,$8,$9*
0 Add four rect primitives between the rounded corners*
20,1,$1+$1,$2,$3,$4,$5,0*
20,1,$1+$1,$4,$5,$6,$7,0*
20,1,$1+$1,$6,$7,$8,$9,0*
20,1,$1+$1,$8,$9,$2,$3,0*%
G04 Aperture macros list end*
%ADD10C,0.150000*%
%ADD11C,0.120000*%
%ADD12C,0.100000*%
%ADD13RoundRect,0.062500X-0.375000X-0.062500X0.375000X-0.062500X0.375000X0.062500X-0.375000X0.062500X0*%
%ADD14RoundRect,0.062500X-0.062500X-0.375000X0.062500X-0.375000X0.062500X0.375000X-0.062500X0.375000X0*%
%ADD15R,6.000000X6.000000*%
%ADD16R,5.150000X5.150000*%
%ADD17RoundRect,0.425000X-0.425000X-0.425000X0.425000X-0.425000X0.425000X0.425000X-0.425000X0.425000X0*%
%ADD18C,1.700000*%
%ADD19RoundRect,0.275000X-0.275000X-0.625000X0.275000X-0.625000X0.275000X0.625000X-0.275000X0.625000X0*%
%ADD20O,1.100000X1.800000*%
%ADD21C,3.200000*%
%ADD22C,2.000000*%
%ADD23C,1.600000*%
%ADD24C,1.800000*%
%ADD25C,1.900000*%
G04 APERTURE END LIST*
D10*
X48799998Y-24547342D02*
X48399998Y-23975914D01*
X48114284Y-24547342D02*
X48114284Y-23347342D01*
X48114284Y-23347342D02*
X48571427Y-23347342D01*
X48571427Y-23347342D02*
X48685712Y-23404485D01*
X48685712Y-23404485D02*
X48742855Y-23461628D01*
X48742855Y-23461628D02*
X48799998Y-23575914D01*
X48799998Y-23575914D02*
X48799998Y-23747342D01*
X48799998Y-23747342D02*
X48742855Y-23861628D01*
X48742855Y-23861628D02*
X48685712Y-23918771D01*
X48685712Y-23918771D02*
X48571427Y-23975914D01*
X48571427Y-23975914D02*
X48114284Y-23975914D01*
X49257141Y-24204485D02*
X49828570Y-24204485D01*
X49142855Y-24547342D02*
X49542855Y-23347342D01*
X49542855Y-23347342D02*
X49942855Y-24547342D01*
X50342855Y-24547342D02*
X50342855Y-23347342D01*
X50342855Y-23347342D02*
X50628569Y-23347342D01*
X50628569Y-23347342D02*
X50799998Y-23404485D01*
X50799998Y-23404485D02*
X50914283Y-23518771D01*
X50914283Y-23518771D02*
X50971426Y-23633057D01*
X50971426Y-23633057D02*
X51028569Y-23861628D01*
X51028569Y-23861628D02*
X51028569Y-24033057D01*
X51028569Y-24033057D02*
X50971426Y-24261628D01*
X50971426Y-24261628D02*
X50914283Y-24375914D01*
X50914283Y-24375914D02*
X50799998Y-24490200D01*
X50799998Y-24490200D02*
X50628569Y-24547342D01*
X50628569Y-24547342D02*
X50342855Y-24547342D01*
X51428569Y-23347342D02*
X52228569Y-24547342D01*
X52228569Y-23347342D02*
X51428569Y-24547342D01*
X52628569Y-24204485D02*
X53199998Y-24204485D01*
X52514283Y-24547342D02*
X52914283Y-23347342D01*
X52914283Y-23347342D02*
X53314283Y-24547342D01*
X55314283Y-24433057D02*
X55257140Y-24490200D01*
X55257140Y-24490200D02*
X55085712Y-24547342D01*
X55085712Y-24547342D02*
X54971426Y-24547342D01*
X54971426Y-24547342D02*
X54799997Y-24490200D01*
X54799997Y-24490200D02*
X54685712Y-24375914D01*
X54685712Y-24375914D02*
X54628569Y-24261628D01*
X54628569Y-24261628D02*
X54571426Y-24033057D01*
X54571426Y-24033057D02*
X54571426Y-23861628D01*
X54571426Y-23861628D02*
X54628569Y-23633057D01*
X54628569Y-23633057D02*
X54685712Y-23518771D01*
X54685712Y-23518771D02*
X54799997Y-23404485D01*
X54799997Y-23404485D02*
X54971426Y-23347342D01*
X54971426Y-23347342D02*
X55085712Y-23347342D01*
X55085712Y-23347342D02*
X55257140Y-23404485D01*
X55257140Y-23404485D02*
X55314283Y-23461628D01*
X55828569Y-24547342D02*
X55828569Y-23347342D01*
X55828569Y-23347342D02*
X56228569Y-24204485D01*
X56228569Y-24204485D02*
X56628569Y-23347342D01*
X56628569Y-23347342D02*
X56628569Y-24547342D01*
X57771426Y-23347342D02*
X57199998Y-23347342D01*
X57199998Y-23347342D02*
X57142855Y-23918771D01*
X57142855Y-23918771D02*
X57199998Y-23861628D01*
X57199998Y-23861628D02*
X57314284Y-23804485D01*
X57314284Y-23804485D02*
X57599998Y-23804485D01*
X57599998Y-23804485D02*
X57714284Y-23861628D01*
X57714284Y-23861628D02*
X57771426Y-23918771D01*
X57771426Y-23918771D02*
X57828569Y-24033057D01*
X57828569Y-24033057D02*
X57828569Y-24318771D01*
X57828569Y-24318771D02*
X57771426Y-24433057D01*
X57771426Y-24433057D02*
X57714284Y-24490200D01*
X57714284Y-24490200D02*
X57599998Y-24547342D01*
X57599998Y-24547342D02*
X57314284Y-24547342D01*
X57314284Y-24547342D02*
X57199998Y-24490200D01*
X57199998Y-24490200D02*
X57142855Y-24433057D01*
X59257141Y-24547342D02*
X59257141Y-23347342D01*
X59257141Y-23347342D02*
X59714284Y-23347342D01*
X59714284Y-23347342D02*
X59828569Y-23404485D01*
X59828569Y-23404485D02*
X59885712Y-23461628D01*
X59885712Y-23461628D02*
X59942855Y-23575914D01*
X59942855Y-23575914D02*
X59942855Y-23747342D01*
X59942855Y-23747342D02*
X59885712Y-23861628D01*
X59885712Y-23861628D02*
X59828569Y-23918771D01*
X59828569Y-23918771D02*
X59714284Y-23975914D01*
X59714284Y-23975914D02*
X59257141Y-23975914D01*
X61142855Y-24547342D02*
X60742855Y-23975914D01*
X60457141Y-24547342D02*
X60457141Y-23347342D01*
X60457141Y-23347342D02*
X60914284Y-23347342D01*
X60914284Y-23347342D02*
X61028569Y-23404485D01*
X61028569Y-23404485D02*
X61085712Y-23461628D01*
X61085712Y-23461628D02*
X61142855Y-23575914D01*
X61142855Y-23575914D02*
X61142855Y-23747342D01*
X61142855Y-23747342D02*
X61085712Y-23861628D01*
X61085712Y-23861628D02*
X61028569Y-23918771D01*
X61028569Y-23918771D02*
X60914284Y-23975914D01*
X60914284Y-23975914D02*
X60457141Y-23975914D01*
X61885712Y-23347342D02*
X62114284Y-23347342D01*
X62114284Y-23347342D02*
X62228569Y-23404485D01*
X62228569Y-23404485D02*
X62342855Y-23518771D01*
X62342855Y-23518771D02*
X62399998Y-23747342D01*
X62399998Y-23747342D02*
X62399998Y-24147342D01*
X62399998Y-24147342D02*
X62342855Y-24375914D01*
X62342855Y-24375914D02*
X62228569Y-24490200D01*
X62228569Y-24490200D02*
X62114284Y-24547342D01*
X62114284Y-24547342D02*
X61885712Y-24547342D01*
X61885712Y-24547342D02*
X61771427Y-24490200D01*
X61771427Y-24490200D02*
X61657141Y-24375914D01*
X61657141Y-24375914D02*
X61599998Y-24147342D01*
X61599998Y-24147342D02*
X61599998Y-23747342D01*
X61599998Y-23747342D02*
X61657141Y-23518771D01*
X61657141Y-23518771D02*
X61771427Y-23404485D01*
X61771427Y-23404485D02*
X61885712Y-23347342D01*
X63599998Y-24433057D02*
X63542855Y-24490200D01*
X63542855Y-24490200D02*
X63371427Y-24547342D01*
X63371427Y-24547342D02*
X63257141Y-24547342D01*
X63257141Y-24547342D02*
X63085712Y-24490200D01*
X63085712Y-24490200D02*
X62971427Y-24375914D01*
X62971427Y-24375914D02*
X62914284Y-24261628D01*
X62914284Y-24261628D02*
X62857141Y-24033057D01*
X62857141Y-24033057D02*
X62857141Y-23861628D01*
X62857141Y-23861628D02*
X62914284Y-23633057D01*
X62914284Y-23633057D02*
X62971427Y-23518771D01*
X62971427Y-23518771D02*
X63085712Y-23404485D01*
X63085712Y-23404485D02*
X63257141Y-23347342D01*
X63257141Y-23347342D02*
X63371427Y-23347342D01*
X63371427Y-23347342D02*
X63542855Y-23404485D01*
X63542855Y-23404485D02*
X63599998Y-23461628D01*
X64342855Y-23347342D02*
X64571427Y-23347342D01*
X64571427Y-23347342D02*
X64685712Y-23404485D01*
X64685712Y-23404485D02*
X64799998Y-23518771D01*
X64799998Y-23518771D02*
X64857141Y-23747342D01*
X64857141Y-23747342D02*
X64857141Y-24147342D01*
X64857141Y-24147342D02*
X64799998Y-24375914D01*
X64799998Y-24375914D02*
X64685712Y-24490200D01*
X64685712Y-24490200D02*
X64571427Y-24547342D01*
X64571427Y-24547342D02*
X64342855Y-24547342D01*
X64342855Y-24547342D02*
X64228570Y-24490200D01*
X64228570Y-24490200D02*
X64114284Y-24375914D01*
X64114284Y-24375914D02*
X64057141Y-24147342D01*
X64057141Y-24147342D02*
X64057141Y-23747342D01*
X64057141Y-23747342D02*
X64114284Y-23518771D01*
X64114284Y-23518771D02*
X64228570Y-23404485D01*
X64228570Y-23404485D02*
X64342855Y-23347342D01*
X65371427Y-24547342D02*
X65371427Y-23347342D01*
X65371427Y-23347342D02*
X65771427Y-24204485D01*
X65771427Y-24204485D02*
X66171427Y-23347342D01*
X66171427Y-23347342D02*
X66171427Y-24547342D01*
X66742856Y-24547342D02*
X66742856Y-23347342D01*
X66742856Y-23347342D02*
X67142856Y-24204485D01*
X67142856Y-24204485D02*
X67542856Y-23347342D01*
X67542856Y-23347342D02*
X67542856Y-24547342D01*
X69028571Y-24090200D02*
X69942857Y-24090200D01*
X71828571Y-23918771D02*
X71428571Y-23918771D01*
X71428571Y-24547342D02*
X71428571Y-23347342D01*
X71428571Y-23347342D02*
X71999999Y-23347342D01*
X72685713Y-23347342D02*
X72914285Y-23347342D01*
X72914285Y-23347342D02*
X73028570Y-23404485D01*
X73028570Y-23404485D02*
X73142856Y-23518771D01*
X73142856Y-23518771D02*
X73199999Y-23747342D01*
X73199999Y-23747342D02*
X73199999Y-24147342D01*
X73199999Y-24147342D02*
X73142856Y-24375914D01*
X73142856Y-24375914D02*
X73028570Y-24490200D01*
X73028570Y-24490200D02*
X72914285Y-24547342D01*
X72914285Y-24547342D02*
X72685713Y-24547342D01*
X72685713Y-24547342D02*
X72571428Y-24490200D01*
X72571428Y-24490200D02*
X72457142Y-24375914D01*
X72457142Y-24375914D02*
X72399999Y-24147342D01*
X72399999Y-24147342D02*
X72399999Y-23747342D01*
X72399999Y-23747342D02*
X72457142Y-23518771D01*
X72457142Y-23518771D02*
X72571428Y-23404485D01*
X72571428Y-23404485D02*
X72685713Y-23347342D01*
X73942856Y-23347342D02*
X74171428Y-23347342D01*
X74171428Y-23347342D02*
X74285713Y-23404485D01*
X74285713Y-23404485D02*
X74399999Y-23518771D01*
X74399999Y-23518771D02*
X74457142Y-23747342D01*
X74457142Y-23747342D02*
X74457142Y-24147342D01*
X74457142Y-24147342D02*
X74399999Y-24375914D01*
X74399999Y-24375914D02*
X74285713Y-24490200D01*
X74285713Y-24490200D02*
X74171428Y-24547342D01*
X74171428Y-24547342D02*
X73942856Y-24547342D01*
X73942856Y-24547342D02*
X73828571Y-24490200D01*
X73828571Y-24490200D02*
X73714285Y-24375914D01*
X73714285Y-24375914D02*
X73657142Y-24147342D01*
X73657142Y-24147342D02*
X73657142Y-23747342D01*
X73657142Y-23747342D02*
X73714285Y-23518771D01*
X73714285Y-23518771D02*
X73828571Y-23404485D01*
X73828571Y-23404485D02*
X73942856Y-23347342D01*
X74799999Y-23347342D02*
X75485714Y-23347342D01*
X75142856Y-24547342D02*
X75142856Y-23347342D01*
X75885714Y-24547342D02*
X75885714Y-23347342D01*
X75885714Y-23347342D02*
X76342857Y-23347342D01*
X76342857Y-23347342D02*
X76457142Y-23404485D01*
X76457142Y-23404485D02*
X76514285Y-23461628D01*
X76514285Y-23461628D02*
X76571428Y-23575914D01*
X76571428Y-23575914D02*
X76571428Y-23747342D01*
X76571428Y-23747342D02*
X76514285Y-23861628D01*
X76514285Y-23861628D02*
X76457142Y-23918771D01*
X76457142Y-23918771D02*
X76342857Y-23975914D01*
X76342857Y-23975914D02*
X75885714Y-23975914D01*
X77771428Y-24547342D02*
X77371428Y-23975914D01*
X77085714Y-24547342D02*
X77085714Y-23347342D01*
X77085714Y-23347342D02*
X77542857Y-23347342D01*
X77542857Y-23347342D02*
X77657142Y-23404485D01*
X77657142Y-23404485D02*
X77714285Y-23461628D01*
X77714285Y-23461628D02*
X77771428Y-23575914D01*
X77771428Y-23575914D02*
X77771428Y-23747342D01*
X77771428Y-23747342D02*
X77714285Y-23861628D01*
X77714285Y-23861628D02*
X77657142Y-23918771D01*
X77657142Y-23918771D02*
X77542857Y-23975914D01*
X77542857Y-23975914D02*
X77085714Y-23975914D01*
X78285714Y-24547342D02*
X78285714Y-23347342D01*
X78857143Y-24547342D02*
X78857143Y-23347342D01*
X78857143Y-23347342D02*
X79542857Y-24547342D01*
X79542857Y-24547342D02*
X79542857Y-23347342D01*
X79942857Y-23347342D02*
X80628572Y-23347342D01*
X80285714Y-24547342D02*
X80285714Y-23347342D01*
X82628572Y-24433057D02*
X82571429Y-24490200D01*
X82571429Y-24490200D02*
X82400001Y-24547342D01*
X82400001Y-24547342D02*
X82285715Y-24547342D01*
X82285715Y-24547342D02*
X82114286Y-24490200D01*
X82114286Y-24490200D02*
X82000001Y-24375914D01*
X82000001Y-24375914D02*
X81942858Y-24261628D01*
X81942858Y-24261628D02*
X81885715Y-24033057D01*
X81885715Y-24033057D02*
X81885715Y-23861628D01*
X81885715Y-23861628D02*
X81942858Y-23633057D01*
X81942858Y-23633057D02*
X82000001Y-23518771D01*
X82000001Y-23518771D02*
X82114286Y-23404485D01*
X82114286Y-23404485D02*
X82285715Y-23347342D01*
X82285715Y-23347342D02*
X82400001Y-23347342D01*
X82400001Y-23347342D02*
X82571429Y-23404485D01*
X82571429Y-23404485D02*
X82628572Y-23461628D01*
X83371429Y-23347342D02*
X83600001Y-23347342D01*
X83600001Y-23347342D02*
X83714286Y-23404485D01*
X83714286Y-23404485D02*
X83828572Y-23518771D01*
X83828572Y-23518771D02*
X83885715Y-23747342D01*
X83885715Y-23747342D02*
X83885715Y-24147342D01*
X83885715Y-24147342D02*
X83828572Y-24375914D01*
X83828572Y-24375914D02*
X83714286Y-24490200D01*
X83714286Y-24490200D02*
X83600001Y-24547342D01*
X83600001Y-24547342D02*
X83371429Y-24547342D01*
X83371429Y-24547342D02*
X83257144Y-24490200D01*
X83257144Y-24490200D02*
X83142858Y-24375914D01*
X83142858Y-24375914D02*
X83085715Y-24147342D01*
X83085715Y-24147342D02*
X83085715Y-23747342D01*
X83085715Y-23747342D02*
X83142858Y-23518771D01*
X83142858Y-23518771D02*
X83257144Y-23404485D01*
X83257144Y-23404485D02*
X83371429Y-23347342D01*
X84400001Y-23347342D02*
X84400001Y-24318771D01*
X84400001Y-24318771D02*
X84457144Y-24433057D01*
X84457144Y-24433057D02*
X84514287Y-24490200D01*
X84514287Y-24490200D02*
X84628572Y-24547342D01*
X84628572Y-24547342D02*
X84857144Y-24547342D01*
X84857144Y-24547342D02*
X84971429Y-24490200D01*
X84971429Y-24490200D02*
X85028572Y-24433057D01*
X85028572Y-24433057D02*
X85085715Y-24318771D01*
X85085715Y-24318771D02*
X85085715Y-23347342D01*
X85657144Y-24547342D02*
X85657144Y-23347342D01*
X85657144Y-23347342D02*
X86114287Y-23347342D01*
X86114287Y-23347342D02*
X86228572Y-23404485D01*
X86228572Y-23404485D02*
X86285715Y-23461628D01*
X86285715Y-23461628D02*
X86342858Y-23575914D01*
X86342858Y-23575914D02*
X86342858Y-23747342D01*
X86342858Y-23747342D02*
X86285715Y-23861628D01*
X86285715Y-23861628D02*
X86228572Y-23918771D01*
X86228572Y-23918771D02*
X86114287Y-23975914D01*
X86114287Y-23975914D02*
X85657144Y-23975914D01*
X87085715Y-23347342D02*
X87314287Y-23347342D01*
X87314287Y-23347342D02*
X87428572Y-23404485D01*
X87428572Y-23404485D02*
X87542858Y-23518771D01*
X87542858Y-23518771D02*
X87600001Y-23747342D01*
X87600001Y-23747342D02*
X87600001Y-24147342D01*
X87600001Y-24147342D02*
X87542858Y-24375914D01*
X87542858Y-24375914D02*
X87428572Y-24490200D01*
X87428572Y-24490200D02*
X87314287Y-24547342D01*
X87314287Y-24547342D02*
X87085715Y-24547342D01*
X87085715Y-24547342D02*
X86971430Y-24490200D01*
X86971430Y-24490200D02*
X86857144Y-24375914D01*
X86857144Y-24375914D02*
X86800001Y-24147342D01*
X86800001Y-24147342D02*
X86800001Y-23747342D01*
X86800001Y-23747342D02*
X86857144Y-23518771D01*
X86857144Y-23518771D02*
X86971430Y-23404485D01*
X86971430Y-23404485D02*
X87085715Y-23347342D01*
X88114287Y-24547342D02*
X88114287Y-23347342D01*
X88114287Y-23347342D02*
X88800001Y-24547342D01*
X88800001Y-24547342D02*
X88800001Y-23347342D01*
X90228573Y-24204485D02*
X90800002Y-24204485D01*
X90114287Y-24547342D02*
X90514287Y-23347342D01*
X90514287Y-23347342D02*
X90914287Y-24547342D01*
X91942858Y-24547342D02*
X91257144Y-24547342D01*
X91600001Y-24547342D02*
X91600001Y-23347342D01*
X91600001Y-23347342D02*
X91485715Y-23518771D01*
X91485715Y-23518771D02*
X91371430Y-23633057D01*
X91371430Y-23633057D02*
X91257144Y-23690200D01*
X54133332Y-27362295D02*
X54133332Y-26562295D01*
X54133332Y-26562295D02*
X54590475Y-27362295D01*
X54590475Y-27362295D02*
X54590475Y-26562295D01*
X55123808Y-26562295D02*
X55276189Y-26562295D01*
X55276189Y-26562295D02*
X55352379Y-26600390D01*
X55352379Y-26600390D02*
X55428570Y-26676580D01*
X55428570Y-26676580D02*
X55466665Y-26828961D01*
X55466665Y-26828961D02*
X55466665Y-27095628D01*
X55466665Y-27095628D02*
X55428570Y-27248009D01*
X55428570Y-27248009D02*
X55352379Y-27324200D01*
X55352379Y-27324200D02*
X55276189Y-27362295D01*
X55276189Y-27362295D02*
X55123808Y-27362295D01*
X55123808Y-27362295D02*
X55047617Y-27324200D01*
X55047617Y-27324200D02*
X54971427Y-27248009D01*
X54971427Y-27248009D02*
X54933331Y-27095628D01*
X54933331Y-27095628D02*
X54933331Y-26828961D01*
X54933331Y-26828961D02*
X54971427Y-26676580D01*
X54971427Y-26676580D02*
X55047617Y-26600390D01*
X55047617Y-26600390D02*
X55123808Y-26562295D01*
X55695236Y-26562295D02*
X56152379Y-26562295D01*
X55923807Y-27362295D02*
X55923807Y-26562295D01*
X57295236Y-26943247D02*
X57028570Y-26943247D01*
X57028570Y-27362295D02*
X57028570Y-26562295D01*
X57028570Y-26562295D02*
X57409522Y-26562295D01*
X57714284Y-26562295D02*
X57714284Y-27209914D01*
X57714284Y-27209914D02*
X57752379Y-27286104D01*
X57752379Y-27286104D02*
X57790474Y-27324200D01*
X57790474Y-27324200D02*
X57866665Y-27362295D01*
X57866665Y-27362295D02*
X58019046Y-27362295D01*
X58019046Y-27362295D02*
X58095236Y-27324200D01*
X58095236Y-27324200D02*
X58133331Y-27286104D01*
X58133331Y-27286104D02*
X58171427Y-27209914D01*
X58171427Y-27209914D02*
X58171427Y-26562295D01*
X58552379Y-27362295D02*
X58552379Y-26562295D01*
X58552379Y-26562295D02*
X59009522Y-27362295D01*
X59009522Y-27362295D02*
X59009522Y-26562295D01*
X59847617Y-27286104D02*
X59809521Y-27324200D01*
X59809521Y-27324200D02*
X59695236Y-27362295D01*
X59695236Y-27362295D02*
X59619045Y-27362295D01*
X59619045Y-27362295D02*
X59504759Y-27324200D01*
X59504759Y-27324200D02*
X59428569Y-27248009D01*
X59428569Y-27248009D02*
X59390474Y-27171819D01*
X59390474Y-27171819D02*
X59352378Y-27019438D01*
X59352378Y-27019438D02*
X59352378Y-26905152D01*
X59352378Y-26905152D02*
X59390474Y-26752771D01*
X59390474Y-26752771D02*
X59428569Y-26676580D01*
X59428569Y-26676580D02*
X59504759Y-26600390D01*
X59504759Y-26600390D02*
X59619045Y-26562295D01*
X59619045Y-26562295D02*
X59695236Y-26562295D01*
X59695236Y-26562295D02*
X59809521Y-26600390D01*
X59809521Y-26600390D02*
X59847617Y-26638485D01*
X60076188Y-26562295D02*
X60533331Y-26562295D01*
X60304759Y-27362295D02*
X60304759Y-26562295D01*
X60799998Y-27362295D02*
X60799998Y-26562295D01*
X61333331Y-26562295D02*
X61485712Y-26562295D01*
X61485712Y-26562295D02*
X61561902Y-26600390D01*
X61561902Y-26600390D02*
X61638093Y-26676580D01*
X61638093Y-26676580D02*
X61676188Y-26828961D01*
X61676188Y-26828961D02*
X61676188Y-27095628D01*
X61676188Y-27095628D02*
X61638093Y-27248009D01*
X61638093Y-27248009D02*
X61561902Y-27324200D01*
X61561902Y-27324200D02*
X61485712Y-27362295D01*
X61485712Y-27362295D02*
X61333331Y-27362295D01*
X61333331Y-27362295D02*
X61257140Y-27324200D01*
X61257140Y-27324200D02*
X61180950Y-27248009D01*
X61180950Y-27248009D02*
X61142854Y-27095628D01*
X61142854Y-27095628D02*
X61142854Y-26828961D01*
X61142854Y-26828961D02*
X61180950Y-26676580D01*
X61180950Y-26676580D02*
X61257140Y-26600390D01*
X61257140Y-26600390D02*
X61333331Y-26562295D01*
X62019045Y-27362295D02*
X62019045Y-26562295D01*
X62019045Y-26562295D02*
X62476188Y-27362295D01*
X62476188Y-27362295D02*
X62476188Y-26562295D01*
X62819044Y-27133723D02*
X63199997Y-27133723D01*
X62742854Y-27362295D02*
X63009521Y-26562295D01*
X63009521Y-26562295D02*
X63276187Y-27362295D01*
X63923806Y-27362295D02*
X63542854Y-27362295D01*
X63542854Y-27362295D02*
X63542854Y-26562295D01*
X64990473Y-27628961D02*
X64990473Y-26486104D01*
X66514283Y-26562295D02*
X66361902Y-26562295D01*
X66361902Y-26562295D02*
X66285711Y-26600390D01*
X66285711Y-26600390D02*
X66247616Y-26638485D01*
X66247616Y-26638485D02*
X66171426Y-26752771D01*
X66171426Y-26752771D02*
X66133330Y-26905152D01*
X66133330Y-26905152D02*
X66133330Y-27209914D01*
X66133330Y-27209914D02*
X66171426Y-27286104D01*
X66171426Y-27286104D02*
X66209521Y-27324200D01*
X66209521Y-27324200D02*
X66285711Y-27362295D01*
X66285711Y-27362295D02*
X66438092Y-27362295D01*
X66438092Y-27362295D02*
X66514283Y-27324200D01*
X66514283Y-27324200D02*
X66552378Y-27286104D01*
X66552378Y-27286104D02*
X66590473Y-27209914D01*
X66590473Y-27209914D02*
X66590473Y-27019438D01*
X66590473Y-27019438D02*
X66552378Y-26943247D01*
X66552378Y-26943247D02*
X66514283Y-26905152D01*
X66514283Y-26905152D02*
X66438092Y-26867057D01*
X66438092Y-26867057D02*
X66285711Y-26867057D01*
X66285711Y-26867057D02*
X66209521Y-26905152D01*
X66209521Y-26905152D02*
X66171426Y-26943247D01*
X66171426Y-26943247D02*
X66133330Y-27019438D01*
X67314283Y-27362295D02*
X66933331Y-27362295D01*
X66933331Y-27362295D02*
X66933331Y-26562295D01*
X68609521Y-27362295D02*
X68152378Y-27362295D01*
X68380950Y-27362295D02*
X68380950Y-26562295D01*
X68380950Y-26562295D02*
X68304759Y-26676580D01*
X68304759Y-26676580D02*
X68228569Y-26752771D01*
X68228569Y-26752771D02*
X68152378Y-26790866D01*
X68952379Y-27286104D02*
X68990474Y-27324200D01*
X68990474Y-27324200D02*
X68952379Y-27362295D01*
X68952379Y-27362295D02*
X68914283Y-27324200D01*
X68914283Y-27324200D02*
X68952379Y-27286104D01*
X68952379Y-27286104D02*
X68952379Y-27362295D01*
X69676188Y-26562295D02*
X69523807Y-26562295D01*
X69523807Y-26562295D02*
X69447616Y-26600390D01*
X69447616Y-26600390D02*
X69409521Y-26638485D01*
X69409521Y-26638485D02*
X69333331Y-26752771D01*
X69333331Y-26752771D02*
X69295235Y-26905152D01*
X69295235Y-26905152D02*
X69295235Y-27209914D01*
X69295235Y-27209914D02*
X69333331Y-27286104D01*
X69333331Y-27286104D02*
X69371426Y-27324200D01*
X69371426Y-27324200D02*
X69447616Y-27362295D01*
X69447616Y-27362295D02*
X69599997Y-27362295D01*
X69599997Y-27362295D02*
X69676188Y-27324200D01*
X69676188Y-27324200D02*
X69714283Y-27286104D01*
X69714283Y-27286104D02*
X69752378Y-27209914D01*
X69752378Y-27209914D02*
X69752378Y-27019438D01*
X69752378Y-27019438D02*
X69714283Y-26943247D01*
X69714283Y-26943247D02*
X69676188Y-26905152D01*
X69676188Y-26905152D02*
X69599997Y-26867057D01*
X69599997Y-26867057D02*
X69447616Y-26867057D01*
X69447616Y-26867057D02*
X69371426Y-26905152D01*
X69371426Y-26905152D02*
X69333331Y-26943247D01*
X69333331Y-26943247D02*
X69295235Y-27019438D01*
X70704760Y-27362295D02*
X70704760Y-26828961D01*
X70704760Y-26905152D02*
X70742855Y-26867057D01*
X70742855Y-26867057D02*
X70819045Y-26828961D01*
X70819045Y-26828961D02*
X70933331Y-26828961D01*
X70933331Y-26828961D02*
X71009522Y-26867057D01*
X71009522Y-26867057D02*
X71047617Y-26943247D01*
X71047617Y-26943247D02*
X71047617Y-27362295D01*
X71047617Y-26943247D02*
X71085712Y-26867057D01*
X71085712Y-26867057D02*
X71161903Y-26828961D01*
X71161903Y-26828961D02*
X71276188Y-26828961D01*
X71276188Y-26828961D02*
X71352379Y-26867057D01*
X71352379Y-26867057D02*
X71390474Y-26943247D01*
X71390474Y-26943247D02*
X71390474Y-27362295D01*
X71771427Y-27362295D02*
X71771427Y-26828961D01*
X71771427Y-26905152D02*
X71809522Y-26867057D01*
X71809522Y-26867057D02*
X71885712Y-26828961D01*
X71885712Y-26828961D02*
X71999998Y-26828961D01*
X71999998Y-26828961D02*
X72076189Y-26867057D01*
X72076189Y-26867057D02*
X72114284Y-26943247D01*
X72114284Y-26943247D02*
X72114284Y-27362295D01*
X72114284Y-26943247D02*
X72152379Y-26867057D01*
X72152379Y-26867057D02*
X72228570Y-26828961D01*
X72228570Y-26828961D02*
X72342855Y-26828961D01*
X72342855Y-26828961D02*
X72419046Y-26867057D01*
X72419046Y-26867057D02*
X72457141Y-26943247D01*
X72457141Y-26943247D02*
X72457141Y-27362295D01*
X73447618Y-26943247D02*
X73714284Y-26943247D01*
X73828570Y-27362295D02*
X73447618Y-27362295D01*
X73447618Y-27362295D02*
X73447618Y-26562295D01*
X73447618Y-26562295D02*
X73828570Y-26562295D01*
X74171428Y-27362295D02*
X74171428Y-26562295D01*
X74171428Y-26562295D02*
X74628571Y-27362295D01*
X74628571Y-27362295D02*
X74628571Y-26562295D01*
X75009523Y-27362295D02*
X75009523Y-26562295D01*
X75809522Y-26600390D02*
X75733332Y-26562295D01*
X75733332Y-26562295D02*
X75619046Y-26562295D01*
X75619046Y-26562295D02*
X75504760Y-26600390D01*
X75504760Y-26600390D02*
X75428570Y-26676580D01*
X75428570Y-26676580D02*
X75390475Y-26752771D01*
X75390475Y-26752771D02*
X75352379Y-26905152D01*
X75352379Y-26905152D02*
X75352379Y-27019438D01*
X75352379Y-27019438D02*
X75390475Y-27171819D01*
X75390475Y-27171819D02*
X75428570Y-27248009D01*
X75428570Y-27248009D02*
X75504760Y-27324200D01*
X75504760Y-27324200D02*
X75619046Y-27362295D01*
X75619046Y-27362295D02*
X75695237Y-27362295D01*
X75695237Y-27362295D02*
X75809522Y-27324200D01*
X75809522Y-27324200D02*
X75847618Y-27286104D01*
X75847618Y-27286104D02*
X75847618Y-27019438D01*
X75847618Y-27019438D02*
X75695237Y-27019438D01*
X76990475Y-27628961D02*
X76990475Y-26486104D01*
X78133332Y-26638485D02*
X78171428Y-26600390D01*
X78171428Y-26600390D02*
X78247618Y-26562295D01*
X78247618Y-26562295D02*
X78438094Y-26562295D01*
X78438094Y-26562295D02*
X78514285Y-26600390D01*
X78514285Y-26600390D02*
X78552380Y-26638485D01*
X78552380Y-26638485D02*
X78590475Y-26714676D01*
X78590475Y-26714676D02*
X78590475Y-26790866D01*
X78590475Y-26790866D02*
X78552380Y-26905152D01*
X78552380Y-26905152D02*
X78095237Y-27362295D01*
X78095237Y-27362295D02*
X78590475Y-27362295D01*
X79085714Y-26562295D02*
X79161904Y-26562295D01*
X79161904Y-26562295D02*
X79238095Y-26600390D01*
X79238095Y-26600390D02*
X79276190Y-26638485D01*
X79276190Y-26638485D02*
X79314285Y-26714676D01*
X79314285Y-26714676D02*
X79352380Y-26867057D01*
X79352380Y-26867057D02*
X79352380Y-27057533D01*
X79352380Y-27057533D02*
X79314285Y-27209914D01*
X79314285Y-27209914D02*
X79276190Y-27286104D01*
X79276190Y-27286104D02*
X79238095Y-27324200D01*
X79238095Y-27324200D02*
X79161904Y-27362295D01*
X79161904Y-27362295D02*
X79085714Y-27362295D01*
X79085714Y-27362295D02*
X79009523Y-27324200D01*
X79009523Y-27324200D02*
X78971428Y-27286104D01*
X78971428Y-27286104D02*
X78933333Y-27209914D01*
X78933333Y-27209914D02*
X78895237Y-27057533D01*
X78895237Y-27057533D02*
X78895237Y-26867057D01*
X78895237Y-26867057D02*
X78933333Y-26714676D01*
X78933333Y-26714676D02*
X78971428Y-26638485D01*
X78971428Y-26638485D02*
X79009523Y-26600390D01*
X79009523Y-26600390D02*
X79085714Y-26562295D01*
X79657142Y-26638485D02*
X79695238Y-26600390D01*
X79695238Y-26600390D02*
X79771428Y-26562295D01*
X79771428Y-26562295D02*
X79961904Y-26562295D01*
X79961904Y-26562295D02*
X80038095Y-26600390D01*
X80038095Y-26600390D02*
X80076190Y-26638485D01*
X80076190Y-26638485D02*
X80114285Y-26714676D01*
X80114285Y-26714676D02*
X80114285Y-26790866D01*
X80114285Y-26790866D02*
X80076190Y-26905152D01*
X80076190Y-26905152D02*
X79619047Y-27362295D01*
X79619047Y-27362295D02*
X80114285Y-27362295D01*
X80800000Y-26562295D02*
X80647619Y-26562295D01*
X80647619Y-26562295D02*
X80571428Y-26600390D01*
X80571428Y-26600390D02*
X80533333Y-26638485D01*
X80533333Y-26638485D02*
X80457143Y-26752771D01*
X80457143Y-26752771D02*
X80419047Y-26905152D01*
X80419047Y-26905152D02*
X80419047Y-27209914D01*
X80419047Y-27209914D02*
X80457143Y-27286104D01*
X80457143Y-27286104D02*
X80495238Y-27324200D01*
X80495238Y-27324200D02*
X80571428Y-27362295D01*
X80571428Y-27362295D02*
X80723809Y-27362295D01*
X80723809Y-27362295D02*
X80800000Y-27324200D01*
X80800000Y-27324200D02*
X80838095Y-27286104D01*
X80838095Y-27286104D02*
X80876190Y-27209914D01*
X80876190Y-27209914D02*
X80876190Y-27019438D01*
X80876190Y-27019438D02*
X80838095Y-26943247D01*
X80838095Y-26943247D02*
X80800000Y-26905152D01*
X80800000Y-26905152D02*
X80723809Y-26867057D01*
X80723809Y-26867057D02*
X80571428Y-26867057D01*
X80571428Y-26867057D02*
X80495238Y-26905152D01*
X80495238Y-26905152D02*
X80457143Y-26943247D01*
X80457143Y-26943247D02*
X80419047Y-27019438D01*
X81219048Y-27057533D02*
X81828572Y-27057533D01*
X82361905Y-26562295D02*
X82438095Y-26562295D01*
X82438095Y-26562295D02*
X82514286Y-26600390D01*
X82514286Y-26600390D02*
X82552381Y-26638485D01*
X82552381Y-26638485D02*
X82590476Y-26714676D01*
X82590476Y-26714676D02*
X82628571Y-26867057D01*
X82628571Y-26867057D02*
X82628571Y-27057533D01*
X82628571Y-27057533D02*
X82590476Y-27209914D01*
X82590476Y-27209914D02*
X82552381Y-27286104D01*
X82552381Y-27286104D02*
X82514286Y-27324200D01*
X82514286Y-27324200D02*
X82438095Y-27362295D01*
X82438095Y-27362295D02*
X82361905Y-27362295D01*
X82361905Y-27362295D02*
X82285714Y-27324200D01*
X82285714Y-27324200D02*
X82247619Y-27286104D01*
X82247619Y-27286104D02*
X82209524Y-27209914D01*
X82209524Y-27209914D02*
X82171428Y-27057533D01*
X82171428Y-27057533D02*
X82171428Y-26867057D01*
X82171428Y-26867057D02*
X82209524Y-26714676D01*
X82209524Y-26714676D02*
X82247619Y-26638485D01*
X82247619Y-26638485D02*
X82285714Y-26600390D01*
X82285714Y-26600390D02*
X82361905Y-26562295D01*
X83085714Y-26905152D02*
X83009524Y-26867057D01*
X83009524Y-26867057D02*
X82971429Y-26828961D01*
X82971429Y-26828961D02*
X82933333Y-26752771D01*
X82933333Y-26752771D02*
X82933333Y-26714676D01*
X82933333Y-26714676D02*
X82971429Y-26638485D01*
X82971429Y-26638485D02*
X83009524Y-26600390D01*
X83009524Y-26600390D02*
X83085714Y-26562295D01*
X83085714Y-26562295D02*
X83238095Y-26562295D01*
X83238095Y-26562295D02*
X83314286Y-26600390D01*
X83314286Y-26600390D02*
X83352381Y-26638485D01*
X83352381Y-26638485D02*
X83390476Y-26714676D01*
X83390476Y-26714676D02*
X83390476Y-26752771D01*
X83390476Y-26752771D02*
X83352381Y-26828961D01*
X83352381Y-26828961D02*
X83314286Y-26867057D01*
X83314286Y-26867057D02*
X83238095Y-26905152D01*
X83238095Y-26905152D02*
X83085714Y-26905152D01*
X83085714Y-26905152D02*
X83009524Y-26943247D01*
X83009524Y-26943247D02*
X82971429Y-26981342D01*
X82971429Y-26981342D02*
X82933333Y-27057533D01*
X82933333Y-27057533D02*
X82933333Y-27209914D01*
X82933333Y-27209914D02*
X82971429Y-27286104D01*
X82971429Y-27286104D02*
X83009524Y-27324200D01*
X83009524Y-27324200D02*
X83085714Y-27362295D01*
X83085714Y-27362295D02*
X83238095Y-27362295D01*
X83238095Y-27362295D02*
X83314286Y-27324200D01*
X83314286Y-27324200D02*
X83352381Y-27286104D01*
X83352381Y-27286104D02*
X83390476Y-27209914D01*
X83390476Y-27209914D02*
X83390476Y-27057533D01*
X83390476Y-27057533D02*
X83352381Y-26981342D01*
X83352381Y-26981342D02*
X83314286Y-26943247D01*
X83314286Y-26943247D02*
X83238095Y-26905152D01*
X83733334Y-27057533D02*
X84342858Y-27057533D01*
X85142857Y-27362295D02*
X84685714Y-27362295D01*
X84914286Y-27362295D02*
X84914286Y-26562295D01*
X84914286Y-26562295D02*
X84838095Y-26676580D01*
X84838095Y-26676580D02*
X84761905Y-26752771D01*
X84761905Y-26752771D02*
X84685714Y-26790866D01*
X85828572Y-26562295D02*
X85676191Y-26562295D01*
X85676191Y-26562295D02*
X85600000Y-26600390D01*
X85600000Y-26600390D02*
X85561905Y-26638485D01*
X85561905Y-26638485D02*
X85485715Y-26752771D01*
X85485715Y-26752771D02*
X85447619Y-26905152D01*
X85447619Y-26905152D02*
X85447619Y-27209914D01*
X85447619Y-27209914D02*
X85485715Y-27286104D01*
X85485715Y-27286104D02*
X85523810Y-27324200D01*
X85523810Y-27324200D02*
X85600000Y-27362295D01*
X85600000Y-27362295D02*
X85752381Y-27362295D01*
X85752381Y-27362295D02*
X85828572Y-27324200D01*
X85828572Y-27324200D02*
X85866667Y-27286104D01*
X85866667Y-27286104D02*
X85904762Y-27209914D01*
X85904762Y-27209914D02*
X85904762Y-27019438D01*
X85904762Y-27019438D02*
X85866667Y-26943247D01*
X85866667Y-26943247D02*
X85828572Y-26905152D01*
X85828572Y-26905152D02*
X85752381Y-26867057D01*
X85752381Y-26867057D02*
X85600000Y-26867057D01*
X85600000Y-26867057D02*
X85523810Y-26905152D01*
X85523810Y-26905152D02*
X85485715Y-26943247D01*
X85485715Y-26943247D02*
X85447619Y-27019438D01*
X57828571Y-33151414D02*
X58257143Y-33151414D01*
X57742857Y-33408557D02*
X58042857Y-32508557D01*
X58042857Y-32508557D02*
X58342857Y-33408557D01*
X58642857Y-33408557D02*
X58642857Y-32508557D01*
X59157143Y-33408557D02*
X58771429Y-32894271D01*
X59157143Y-32508557D02*
X58642857Y-33022842D01*
X59971429Y-32508557D02*
X59542857Y-32508557D01*
X59542857Y-32508557D02*
X59500000Y-32937128D01*
X59500000Y-32937128D02*
X59542857Y-32894271D01*
X59542857Y-32894271D02*
X59628572Y-32851414D01*
X59628572Y-32851414D02*
X59842857Y-32851414D01*
X59842857Y-32851414D02*
X59928572Y-32894271D01*
X59928572Y-32894271D02*
X59971429Y-32937128D01*
X59971429Y-32937128D02*
X60014286Y-33022842D01*
X60014286Y-33022842D02*
X60014286Y-33237128D01*
X60014286Y-33237128D02*
X59971429Y-33322842D01*
X59971429Y-33322842D02*
X59928572Y-33365700D01*
X59928572Y-33365700D02*
X59842857Y-33408557D01*
X59842857Y-33408557D02*
X59628572Y-33408557D01*
X59628572Y-33408557D02*
X59542857Y-33365700D01*
X59542857Y-33365700D02*
X59500000Y-33322842D01*
X60828572Y-32508557D02*
X60400000Y-32508557D01*
X60400000Y-32508557D02*
X60357143Y-32937128D01*
X60357143Y-32937128D02*
X60400000Y-32894271D01*
X60400000Y-32894271D02*
X60485715Y-32851414D01*
X60485715Y-32851414D02*
X60700000Y-32851414D01*
X60700000Y-32851414D02*
X60785715Y-32894271D01*
X60785715Y-32894271D02*
X60828572Y-32937128D01*
X60828572Y-32937128D02*
X60871429Y-33022842D01*
X60871429Y-33022842D02*
X60871429Y-33237128D01*
X60871429Y-33237128D02*
X60828572Y-33322842D01*
X60828572Y-33322842D02*
X60785715Y-33365700D01*
X60785715Y-33365700D02*
X60700000Y-33408557D01*
X60700000Y-33408557D02*
X60485715Y-33408557D01*
X60485715Y-33408557D02*
X60400000Y-33365700D01*
X60400000Y-33365700D02*
X60357143Y-33322842D01*
X61685715Y-32508557D02*
X61257143Y-32508557D01*
X61257143Y-32508557D02*
X61214286Y-32937128D01*
X61214286Y-32937128D02*
X61257143Y-32894271D01*
X61257143Y-32894271D02*
X61342858Y-32851414D01*
X61342858Y-32851414D02*
X61557143Y-32851414D01*
X61557143Y-32851414D02*
X61642858Y-32894271D01*
X61642858Y-32894271D02*
X61685715Y-32937128D01*
X61685715Y-32937128D02*
X61728572Y-33022842D01*
X61728572Y-33022842D02*
X61728572Y-33237128D01*
X61728572Y-33237128D02*
X61685715Y-33322842D01*
X61685715Y-33322842D02*
X61642858Y-33365700D01*
X61642858Y-33365700D02*
X61557143Y-33408557D01*
X61557143Y-33408557D02*
X61342858Y-33408557D01*
X61342858Y-33408557D02*
X61257143Y-33365700D01*
X61257143Y-33365700D02*
X61214286Y-33322842D01*
X62242858Y-32894271D02*
X62157143Y-32851414D01*
X62157143Y-32851414D02*
X62114286Y-32808557D01*
X62114286Y-32808557D02*
X62071429Y-32722842D01*
X62071429Y-32722842D02*
X62071429Y-32679985D01*
X62071429Y-32679985D02*
X62114286Y-32594271D01*
X62114286Y-32594271D02*
X62157143Y-32551414D01*
X62157143Y-32551414D02*
X62242858Y-32508557D01*
X62242858Y-32508557D02*
X62414286Y-32508557D01*
X62414286Y-32508557D02*
X62500001Y-32551414D01*
X62500001Y-32551414D02*
X62542858Y-32594271D01*
X62542858Y-32594271D02*
X62585715Y-32679985D01*
X62585715Y-32679985D02*
X62585715Y-32722842D01*
X62585715Y-32722842D02*
X62542858Y-32808557D01*
X62542858Y-32808557D02*
X62500001Y-32851414D01*
X62500001Y-32851414D02*
X62414286Y-32894271D01*
X62414286Y-32894271D02*
X62242858Y-32894271D01*
X62242858Y-32894271D02*
X62157143Y-32937128D01*
X62157143Y-32937128D02*
X62114286Y-32979985D01*
X62114286Y-32979985D02*
X62071429Y-33065700D01*
X62071429Y-33065700D02*
X62071429Y-33237128D01*
X62071429Y-33237128D02*
X62114286Y-33322842D01*
X62114286Y-33322842D02*
X62157143Y-33365700D01*
X62157143Y-33365700D02*
X62242858Y-33408557D01*
X62242858Y-33408557D02*
X62414286Y-33408557D01*
X62414286Y-33408557D02*
X62500001Y-33365700D01*
X62500001Y-33365700D02*
X62542858Y-33322842D01*
X62542858Y-33322842D02*
X62585715Y-33237128D01*
X62585715Y-33237128D02*
X62585715Y-33065700D01*
X62585715Y-33065700D02*
X62542858Y-32979985D01*
X62542858Y-32979985D02*
X62500001Y-32937128D01*
X62500001Y-32937128D02*
X62414286Y-32894271D01*
X62842858Y-32508557D02*
X63142858Y-33408557D01*
X63142858Y-33408557D02*
X63442858Y-32508557D01*
X63742858Y-33408557D02*
X63742858Y-32508557D01*
X63742858Y-32508557D02*
X64257144Y-33408557D01*
X64257144Y-33408557D02*
X64257144Y-32508557D01*
X65971429Y-33494271D02*
X65885715Y-33451414D01*
X65885715Y-33451414D02*
X65800001Y-33365700D01*
X65800001Y-33365700D02*
X65671429Y-33237128D01*
X65671429Y-33237128D02*
X65585715Y-33194271D01*
X65585715Y-33194271D02*
X65500001Y-33194271D01*
X65542858Y-33408557D02*
X65457144Y-33365700D01*
X65457144Y-33365700D02*
X65371429Y-33279985D01*
X65371429Y-33279985D02*
X65328572Y-33108557D01*
X65328572Y-33108557D02*
X65328572Y-32808557D01*
X65328572Y-32808557D02*
X65371429Y-32637128D01*
X65371429Y-32637128D02*
X65457144Y-32551414D01*
X65457144Y-32551414D02*
X65542858Y-32508557D01*
X65542858Y-32508557D02*
X65714286Y-32508557D01*
X65714286Y-32508557D02*
X65800001Y-32551414D01*
X65800001Y-32551414D02*
X65885715Y-32637128D01*
X65885715Y-32637128D02*
X65928572Y-32808557D01*
X65928572Y-32808557D02*
X65928572Y-33108557D01*
X65928572Y-33108557D02*
X65885715Y-33279985D01*
X65885715Y-33279985D02*
X65800001Y-33365700D01*
X65800001Y-33365700D02*
X65714286Y-33408557D01*
X65714286Y-33408557D02*
X65542858Y-33408557D01*
X66614286Y-32937128D02*
X66314286Y-32937128D01*
X66314286Y-33408557D02*
X66314286Y-32508557D01*
X66314286Y-32508557D02*
X66742858Y-32508557D01*
X67085715Y-33408557D02*
X67085715Y-32508557D01*
X67085715Y-32508557D02*
X67600001Y-33408557D01*
X67600001Y-33408557D02*
X67600001Y-32508557D01*
X68028572Y-33065700D02*
X68714287Y-33065700D01*
X69528573Y-32508557D02*
X69357144Y-32508557D01*
X69357144Y-32508557D02*
X69271430Y-32551414D01*
X69271430Y-32551414D02*
X69228573Y-32594271D01*
X69228573Y-32594271D02*
X69142858Y-32722842D01*
X69142858Y-32722842D02*
X69100001Y-32894271D01*
X69100001Y-32894271D02*
X69100001Y-33237128D01*
X69100001Y-33237128D02*
X69142858Y-33322842D01*
X69142858Y-33322842D02*
X69185715Y-33365700D01*
X69185715Y-33365700D02*
X69271430Y-33408557D01*
X69271430Y-33408557D02*
X69442858Y-33408557D01*
X69442858Y-33408557D02*
X69528573Y-33365700D01*
X69528573Y-33365700D02*
X69571430Y-33322842D01*
X69571430Y-33322842D02*
X69614287Y-33237128D01*
X69614287Y-33237128D02*
X69614287Y-33022842D01*
X69614287Y-33022842D02*
X69571430Y-32937128D01*
X69571430Y-32937128D02*
X69528573Y-32894271D01*
X69528573Y-32894271D02*
X69442858Y-32851414D01*
X69442858Y-32851414D02*
X69271430Y-32851414D01*
X69271430Y-32851414D02*
X69185715Y-32894271D01*
X69185715Y-32894271D02*
X69142858Y-32937128D01*
X69142858Y-32937128D02*
X69100001Y-33022842D01*
X70385716Y-32808557D02*
X70385716Y-33408557D01*
X70171430Y-32465700D02*
X69957144Y-33108557D01*
X69957144Y-33108557D02*
X70514287Y-33108557D01*
X71585715Y-33408557D02*
X71757144Y-33408557D01*
X71757144Y-33408557D02*
X71842858Y-33365700D01*
X71842858Y-33365700D02*
X71885715Y-33322842D01*
X71885715Y-33322842D02*
X71971430Y-33194271D01*
X71971430Y-33194271D02*
X72014287Y-33022842D01*
X72014287Y-33022842D02*
X72014287Y-32679985D01*
X72014287Y-32679985D02*
X71971430Y-32594271D01*
X71971430Y-32594271D02*
X71928573Y-32551414D01*
X71928573Y-32551414D02*
X71842858Y-32508557D01*
X71842858Y-32508557D02*
X71671430Y-32508557D01*
X71671430Y-32508557D02*
X71585715Y-32551414D01*
X71585715Y-32551414D02*
X71542858Y-32594271D01*
X71542858Y-32594271D02*
X71500001Y-32679985D01*
X71500001Y-32679985D02*
X71500001Y-32894271D01*
X71500001Y-32894271D02*
X71542858Y-32979985D01*
X71542858Y-32979985D02*
X71585715Y-33022842D01*
X71585715Y-33022842D02*
X71671430Y-33065700D01*
X71671430Y-33065700D02*
X71842858Y-33065700D01*
X71842858Y-33065700D02*
X71928573Y-33022842D01*
X71928573Y-33022842D02*
X71971430Y-32979985D01*
X71971430Y-32979985D02*
X72014287Y-32894271D01*
X72314287Y-33408557D02*
X72785716Y-32808557D01*
X72314287Y-32808557D02*
X72785716Y-33408557D01*
X73171429Y-33408557D02*
X73342858Y-33408557D01*
X73342858Y-33408557D02*
X73428572Y-33365700D01*
X73428572Y-33365700D02*
X73471429Y-33322842D01*
X73471429Y-33322842D02*
X73557144Y-33194271D01*
X73557144Y-33194271D02*
X73600001Y-33022842D01*
X73600001Y-33022842D02*
X73600001Y-32679985D01*
X73600001Y-32679985D02*
X73557144Y-32594271D01*
X73557144Y-32594271D02*
X73514287Y-32551414D01*
X73514287Y-32551414D02*
X73428572Y-32508557D01*
X73428572Y-32508557D02*
X73257144Y-32508557D01*
X73257144Y-32508557D02*
X73171429Y-32551414D01*
X73171429Y-32551414D02*
X73128572Y-32594271D01*
X73128572Y-32594271D02*
X73085715Y-32679985D01*
X73085715Y-32679985D02*
X73085715Y-32894271D01*
X73085715Y-32894271D02*
X73128572Y-32979985D01*
X73128572Y-32979985D02*
X73171429Y-33022842D01*
X73171429Y-33022842D02*
X73257144Y-33065700D01*
X73257144Y-33065700D02*
X73428572Y-33065700D01*
X73428572Y-33065700D02*
X73514287Y-33022842D01*
X73514287Y-33022842D02*
X73557144Y-32979985D01*
X73557144Y-32979985D02*
X73600001Y-32894271D01*
X74671429Y-33408557D02*
X74671429Y-32508557D01*
X74671429Y-32508557D02*
X75014286Y-32508557D01*
X75014286Y-32508557D02*
X75100001Y-32551414D01*
X75100001Y-32551414D02*
X75142858Y-32594271D01*
X75142858Y-32594271D02*
X75185715Y-32679985D01*
X75185715Y-32679985D02*
X75185715Y-32808557D01*
X75185715Y-32808557D02*
X75142858Y-32894271D01*
X75142858Y-32894271D02*
X75100001Y-32937128D01*
X75100001Y-32937128D02*
X75014286Y-32979985D01*
X75014286Y-32979985D02*
X74671429Y-32979985D01*
X75742858Y-32508557D02*
X75828572Y-32508557D01*
X75828572Y-32508557D02*
X75914286Y-32551414D01*
X75914286Y-32551414D02*
X75957144Y-32594271D01*
X75957144Y-32594271D02*
X76000001Y-32679985D01*
X76000001Y-32679985D02*
X76042858Y-32851414D01*
X76042858Y-32851414D02*
X76042858Y-33065700D01*
X76042858Y-33065700D02*
X76000001Y-33237128D01*
X76000001Y-33237128D02*
X75957144Y-33322842D01*
X75957144Y-33322842D02*
X75914286Y-33365700D01*
X75914286Y-33365700D02*
X75828572Y-33408557D01*
X75828572Y-33408557D02*
X75742858Y-33408557D01*
X75742858Y-33408557D02*
X75657144Y-33365700D01*
X75657144Y-33365700D02*
X75614286Y-33322842D01*
X75614286Y-33322842D02*
X75571429Y-33237128D01*
X75571429Y-33237128D02*
X75528572Y-33065700D01*
X75528572Y-33065700D02*
X75528572Y-32851414D01*
X75528572Y-32851414D02*
X75571429Y-32679985D01*
X75571429Y-32679985D02*
X75614286Y-32594271D01*
X75614286Y-32594271D02*
X75657144Y-32551414D01*
X75657144Y-32551414D02*
X75742858Y-32508557D01*
X76428572Y-33322842D02*
X76471429Y-33365700D01*
X76471429Y-33365700D02*
X76428572Y-33408557D01*
X76428572Y-33408557D02*
X76385715Y-33365700D01*
X76385715Y-33365700D02*
X76428572Y-33322842D01*
X76428572Y-33322842D02*
X76428572Y-33408557D01*
X77285715Y-32508557D02*
X76857143Y-32508557D01*
X76857143Y-32508557D02*
X76814286Y-32937128D01*
X76814286Y-32937128D02*
X76857143Y-32894271D01*
X76857143Y-32894271D02*
X76942858Y-32851414D01*
X76942858Y-32851414D02*
X77157143Y-32851414D01*
X77157143Y-32851414D02*
X77242858Y-32894271D01*
X77242858Y-32894271D02*
X77285715Y-32937128D01*
X77285715Y-32937128D02*
X77328572Y-33022842D01*
X77328572Y-33022842D02*
X77328572Y-33237128D01*
X77328572Y-33237128D02*
X77285715Y-33322842D01*
X77285715Y-33322842D02*
X77242858Y-33365700D01*
X77242858Y-33365700D02*
X77157143Y-33408557D01*
X77157143Y-33408557D02*
X76942858Y-33408557D01*
X76942858Y-33408557D02*
X76857143Y-33365700D01*
X76857143Y-33365700D02*
X76814286Y-33322842D01*
X78400000Y-32937128D02*
X78700000Y-32937128D01*
X78828572Y-33408557D02*
X78400000Y-33408557D01*
X78400000Y-33408557D02*
X78400000Y-32508557D01*
X78400000Y-32508557D02*
X78828572Y-32508557D01*
X79214286Y-33408557D02*
X79214286Y-32508557D01*
X79214286Y-32508557D02*
X79557143Y-32508557D01*
X79557143Y-32508557D02*
X79642858Y-32551414D01*
X79642858Y-32551414D02*
X79685715Y-32594271D01*
X79685715Y-32594271D02*
X79728572Y-32679985D01*
X79728572Y-32679985D02*
X79728572Y-32808557D01*
X79728572Y-32808557D02*
X79685715Y-32894271D01*
X79685715Y-32894271D02*
X79642858Y-32937128D01*
X79642858Y-32937128D02*
X79557143Y-32979985D01*
X79557143Y-32979985D02*
X79214286Y-32979985D01*
X80500001Y-32508557D02*
X80328572Y-32508557D01*
X80328572Y-32508557D02*
X80242858Y-32551414D01*
X80242858Y-32551414D02*
X80200001Y-32594271D01*
X80200001Y-32594271D02*
X80114286Y-32722842D01*
X80114286Y-32722842D02*
X80071429Y-32894271D01*
X80071429Y-32894271D02*
X80071429Y-33237128D01*
X80071429Y-33237128D02*
X80114286Y-33322842D01*
X80114286Y-33322842D02*
X80157143Y-33365700D01*
X80157143Y-33365700D02*
X80242858Y-33408557D01*
X80242858Y-33408557D02*
X80414286Y-33408557D01*
X80414286Y-33408557D02*
X80500001Y-33365700D01*
X80500001Y-33365700D02*
X80542858Y-33322842D01*
X80542858Y-33322842D02*
X80585715Y-33237128D01*
X80585715Y-33237128D02*
X80585715Y-33022842D01*
X80585715Y-33022842D02*
X80542858Y-32937128D01*
X80542858Y-32937128D02*
X80500001Y-32894271D01*
X80500001Y-32894271D02*
X80414286Y-32851414D01*
X80414286Y-32851414D02*
X80242858Y-32851414D01*
X80242858Y-32851414D02*
X80157143Y-32894271D01*
X80157143Y-32894271D02*
X80114286Y-32937128D01*
X80114286Y-32937128D02*
X80071429Y-33022842D01*
X80885715Y-33408557D02*
X81357144Y-32808557D01*
X80885715Y-32808557D02*
X81357144Y-33408557D01*
X82085715Y-32508557D02*
X81914286Y-32508557D01*
X81914286Y-32508557D02*
X81828572Y-32551414D01*
X81828572Y-32551414D02*
X81785715Y-32594271D01*
X81785715Y-32594271D02*
X81700000Y-32722842D01*
X81700000Y-32722842D02*
X81657143Y-32894271D01*
X81657143Y-32894271D02*
X81657143Y-33237128D01*
X81657143Y-33237128D02*
X81700000Y-33322842D01*
X81700000Y-33322842D02*
X81742857Y-33365700D01*
X81742857Y-33365700D02*
X81828572Y-33408557D01*
X81828572Y-33408557D02*
X82000000Y-33408557D01*
X82000000Y-33408557D02*
X82085715Y-33365700D01*
X82085715Y-33365700D02*
X82128572Y-33322842D01*
X82128572Y-33322842D02*
X82171429Y-33237128D01*
X82171429Y-33237128D02*
X82171429Y-33022842D01*
X82171429Y-33022842D02*
X82128572Y-32937128D01*
X82128572Y-32937128D02*
X82085715Y-32894271D01*
X82085715Y-32894271D02*
X82000000Y-32851414D01*
X82000000Y-32851414D02*
X81828572Y-32851414D01*
X81828572Y-32851414D02*
X81742857Y-32894271D01*
X81742857Y-32894271D02*
X81700000Y-32937128D01*
X81700000Y-32937128D02*
X81657143Y-33022842D01*
X37752381Y-35062295D02*
X37904762Y-35062295D01*
X37904762Y-35062295D02*
X37980952Y-35100390D01*
X37980952Y-35100390D02*
X38057143Y-35176580D01*
X38057143Y-35176580D02*
X38095238Y-35328961D01*
X38095238Y-35328961D02*
X38095238Y-35595628D01*
X38095238Y-35595628D02*
X38057143Y-35748009D01*
X38057143Y-35748009D02*
X37980952Y-35824200D01*
X37980952Y-35824200D02*
X37904762Y-35862295D01*
X37904762Y-35862295D02*
X37752381Y-35862295D01*
X37752381Y-35862295D02*
X37676190Y-35824200D01*
X37676190Y-35824200D02*
X37600000Y-35748009D01*
X37600000Y-35748009D02*
X37561904Y-35595628D01*
X37561904Y-35595628D02*
X37561904Y-35328961D01*
X37561904Y-35328961D02*
X37600000Y-35176580D01*
X37600000Y-35176580D02*
X37676190Y-35100390D01*
X37676190Y-35100390D02*
X37752381Y-35062295D01*
X38438095Y-35862295D02*
X38438095Y-35062295D01*
X38438095Y-35062295D02*
X38742857Y-35062295D01*
X38742857Y-35062295D02*
X38819047Y-35100390D01*
X38819047Y-35100390D02*
X38857142Y-35138485D01*
X38857142Y-35138485D02*
X38895238Y-35214676D01*
X38895238Y-35214676D02*
X38895238Y-35328961D01*
X38895238Y-35328961D02*
X38857142Y-35405152D01*
X38857142Y-35405152D02*
X38819047Y-35443247D01*
X38819047Y-35443247D02*
X38742857Y-35481342D01*
X38742857Y-35481342D02*
X38438095Y-35481342D01*
X39238095Y-35443247D02*
X39504761Y-35443247D01*
X39619047Y-35862295D02*
X39238095Y-35862295D01*
X39238095Y-35862295D02*
X39238095Y-35062295D01*
X39238095Y-35062295D02*
X39619047Y-35062295D01*
X39961905Y-35862295D02*
X39961905Y-35062295D01*
X39961905Y-35062295D02*
X40419048Y-35862295D01*
X40419048Y-35862295D02*
X40419048Y-35062295D01*
X41866667Y-35786104D02*
X41828571Y-35824200D01*
X41828571Y-35824200D02*
X41714286Y-35862295D01*
X41714286Y-35862295D02*
X41638095Y-35862295D01*
X41638095Y-35862295D02*
X41523809Y-35824200D01*
X41523809Y-35824200D02*
X41447619Y-35748009D01*
X41447619Y-35748009D02*
X41409524Y-35671819D01*
X41409524Y-35671819D02*
X41371428Y-35519438D01*
X41371428Y-35519438D02*
X41371428Y-35405152D01*
X41371428Y-35405152D02*
X41409524Y-35252771D01*
X41409524Y-35252771D02*
X41447619Y-35176580D01*
X41447619Y-35176580D02*
X41523809Y-35100390D01*
X41523809Y-35100390D02*
X41638095Y-35062295D01*
X41638095Y-35062295D02*
X41714286Y-35062295D01*
X41714286Y-35062295D02*
X41828571Y-35100390D01*
X41828571Y-35100390D02*
X41866667Y-35138485D01*
X42361905Y-35062295D02*
X42514286Y-35062295D01*
X42514286Y-35062295D02*
X42590476Y-35100390D01*
X42590476Y-35100390D02*
X42666667Y-35176580D01*
X42666667Y-35176580D02*
X42704762Y-35328961D01*
X42704762Y-35328961D02*
X42704762Y-35595628D01*
X42704762Y-35595628D02*
X42666667Y-35748009D01*
X42666667Y-35748009D02*
X42590476Y-35824200D01*
X42590476Y-35824200D02*
X42514286Y-35862295D01*
X42514286Y-35862295D02*
X42361905Y-35862295D01*
X42361905Y-35862295D02*
X42285714Y-35824200D01*
X42285714Y-35824200D02*
X42209524Y-35748009D01*
X42209524Y-35748009D02*
X42171428Y-35595628D01*
X42171428Y-35595628D02*
X42171428Y-35328961D01*
X42171428Y-35328961D02*
X42209524Y-35176580D01*
X42209524Y-35176580D02*
X42285714Y-35100390D01*
X42285714Y-35100390D02*
X42361905Y-35062295D01*
X43047619Y-35862295D02*
X43047619Y-35062295D01*
X43047619Y-35062295D02*
X43504762Y-35862295D01*
X43504762Y-35862295D02*
X43504762Y-35062295D01*
X43771428Y-35062295D02*
X44228571Y-35062295D01*
X43999999Y-35862295D02*
X43999999Y-35062295D01*
X44952381Y-35862295D02*
X44685714Y-35481342D01*
X44495238Y-35862295D02*
X44495238Y-35062295D01*
X44495238Y-35062295D02*
X44800000Y-35062295D01*
X44800000Y-35062295D02*
X44876190Y-35100390D01*
X44876190Y-35100390D02*
X44914285Y-35138485D01*
X44914285Y-35138485D02*
X44952381Y-35214676D01*
X44952381Y-35214676D02*
X44952381Y-35328961D01*
X44952381Y-35328961D02*
X44914285Y-35405152D01*
X44914285Y-35405152D02*
X44876190Y-35443247D01*
X44876190Y-35443247D02*
X44800000Y-35481342D01*
X44800000Y-35481342D02*
X44495238Y-35481342D01*
X45447619Y-35062295D02*
X45600000Y-35062295D01*
X45600000Y-35062295D02*
X45676190Y-35100390D01*
X45676190Y-35100390D02*
X45752381Y-35176580D01*
X45752381Y-35176580D02*
X45790476Y-35328961D01*
X45790476Y-35328961D02*
X45790476Y-35595628D01*
X45790476Y-35595628D02*
X45752381Y-35748009D01*
X45752381Y-35748009D02*
X45676190Y-35824200D01*
X45676190Y-35824200D02*
X45600000Y-35862295D01*
X45600000Y-35862295D02*
X45447619Y-35862295D01*
X45447619Y-35862295D02*
X45371428Y-35824200D01*
X45371428Y-35824200D02*
X45295238Y-35748009D01*
X45295238Y-35748009D02*
X45257142Y-35595628D01*
X45257142Y-35595628D02*
X45257142Y-35328961D01*
X45257142Y-35328961D02*
X45295238Y-35176580D01*
X45295238Y-35176580D02*
X45371428Y-35100390D01*
X45371428Y-35100390D02*
X45447619Y-35062295D01*
X46514285Y-35862295D02*
X46133333Y-35862295D01*
X46133333Y-35862295D02*
X46133333Y-35062295D01*
X65695237Y-35443247D02*
X65809523Y-35481342D01*
X65809523Y-35481342D02*
X65847618Y-35519438D01*
X65847618Y-35519438D02*
X65885714Y-35595628D01*
X65885714Y-35595628D02*
X65885714Y-35709914D01*
X65885714Y-35709914D02*
X65847618Y-35786104D01*
X65847618Y-35786104D02*
X65809523Y-35824200D01*
X65809523Y-35824200D02*
X65733333Y-35862295D01*
X65733333Y-35862295D02*
X65428571Y-35862295D01*
X65428571Y-35862295D02*
X65428571Y-35062295D01*
X65428571Y-35062295D02*
X65695237Y-35062295D01*
X65695237Y-35062295D02*
X65771428Y-35100390D01*
X65771428Y-35100390D02*
X65809523Y-35138485D01*
X65809523Y-35138485D02*
X65847618Y-35214676D01*
X65847618Y-35214676D02*
X65847618Y-35290866D01*
X65847618Y-35290866D02*
X65809523Y-35367057D01*
X65809523Y-35367057D02*
X65771428Y-35405152D01*
X65771428Y-35405152D02*
X65695237Y-35443247D01*
X65695237Y-35443247D02*
X65428571Y-35443247D01*
X66380952Y-35062295D02*
X66533333Y-35062295D01*
X66533333Y-35062295D02*
X66609523Y-35100390D01*
X66609523Y-35100390D02*
X66685714Y-35176580D01*
X66685714Y-35176580D02*
X66723809Y-35328961D01*
X66723809Y-35328961D02*
X66723809Y-35595628D01*
X66723809Y-35595628D02*
X66685714Y-35748009D01*
X66685714Y-35748009D02*
X66609523Y-35824200D01*
X66609523Y-35824200D02*
X66533333Y-35862295D01*
X66533333Y-35862295D02*
X66380952Y-35862295D01*
X66380952Y-35862295D02*
X66304761Y-35824200D01*
X66304761Y-35824200D02*
X66228571Y-35748009D01*
X66228571Y-35748009D02*
X66190475Y-35595628D01*
X66190475Y-35595628D02*
X66190475Y-35328961D01*
X66190475Y-35328961D02*
X66228571Y-35176580D01*
X66228571Y-35176580D02*
X66304761Y-35100390D01*
X66304761Y-35100390D02*
X66380952Y-35062295D01*
X66952380Y-35062295D02*
X67409523Y-35062295D01*
X67180951Y-35862295D02*
X67180951Y-35062295D01*
X67561904Y-35062295D02*
X68019047Y-35062295D01*
X67790475Y-35862295D02*
X67790475Y-35062295D01*
X68438095Y-35062295D02*
X68590476Y-35062295D01*
X68590476Y-35062295D02*
X68666666Y-35100390D01*
X68666666Y-35100390D02*
X68742857Y-35176580D01*
X68742857Y-35176580D02*
X68780952Y-35328961D01*
X68780952Y-35328961D02*
X68780952Y-35595628D01*
X68780952Y-35595628D02*
X68742857Y-35748009D01*
X68742857Y-35748009D02*
X68666666Y-35824200D01*
X68666666Y-35824200D02*
X68590476Y-35862295D01*
X68590476Y-35862295D02*
X68438095Y-35862295D01*
X68438095Y-35862295D02*
X68361904Y-35824200D01*
X68361904Y-35824200D02*
X68285714Y-35748009D01*
X68285714Y-35748009D02*
X68247618Y-35595628D01*
X68247618Y-35595628D02*
X68247618Y-35328961D01*
X68247618Y-35328961D02*
X68285714Y-35176580D01*
X68285714Y-35176580D02*
X68361904Y-35100390D01*
X68361904Y-35100390D02*
X68438095Y-35062295D01*
X69123809Y-35862295D02*
X69123809Y-35062295D01*
X69123809Y-35062295D02*
X69390475Y-35633723D01*
X69390475Y-35633723D02*
X69657142Y-35062295D01*
X69657142Y-35062295D02*
X69657142Y-35862295D01*
X70533333Y-35062295D02*
X70990476Y-35062295D01*
X70761904Y-35862295D02*
X70761904Y-35062295D01*
X71257143Y-35443247D02*
X71523809Y-35443247D01*
X71638095Y-35862295D02*
X71257143Y-35862295D01*
X71257143Y-35862295D02*
X71257143Y-35062295D01*
X71257143Y-35062295D02*
X71638095Y-35062295D01*
X71980953Y-35862295D02*
X71980953Y-35062295D01*
X71980953Y-35062295D02*
X72438096Y-35862295D01*
X72438096Y-35862295D02*
X72438096Y-35062295D01*
X72704762Y-35062295D02*
X73161905Y-35062295D01*
X72933333Y-35862295D02*
X72933333Y-35062295D01*
X73428572Y-35443247D02*
X73695238Y-35443247D01*
X73809524Y-35862295D02*
X73428572Y-35862295D01*
X73428572Y-35862295D02*
X73428572Y-35062295D01*
X73428572Y-35062295D02*
X73809524Y-35062295D01*
X74152382Y-35862295D02*
X74152382Y-35062295D01*
X74152382Y-35062295D02*
X74342858Y-35062295D01*
X74342858Y-35062295D02*
X74457144Y-35100390D01*
X74457144Y-35100390D02*
X74533334Y-35176580D01*
X74533334Y-35176580D02*
X74571429Y-35252771D01*
X74571429Y-35252771D02*
X74609525Y-35405152D01*
X74609525Y-35405152D02*
X74609525Y-35519438D01*
X74609525Y-35519438D02*
X74571429Y-35671819D01*
X74571429Y-35671819D02*
X74533334Y-35748009D01*
X74533334Y-35748009D02*
X74457144Y-35824200D01*
X74457144Y-35824200D02*
X74342858Y-35862295D01*
X74342858Y-35862295D02*
X74152382Y-35862295D01*
X90666667Y-35062295D02*
X91123810Y-35062295D01*
X90895238Y-35862295D02*
X90895238Y-35062295D01*
X91542858Y-35481342D02*
X91542858Y-35862295D01*
X91276191Y-35062295D02*
X91542858Y-35481342D01*
X91542858Y-35481342D02*
X91809524Y-35062295D01*
X92076191Y-35862295D02*
X92076191Y-35062295D01*
X92076191Y-35062295D02*
X92380953Y-35062295D01*
X92380953Y-35062295D02*
X92457143Y-35100390D01*
X92457143Y-35100390D02*
X92495238Y-35138485D01*
X92495238Y-35138485D02*
X92533334Y-35214676D01*
X92533334Y-35214676D02*
X92533334Y-35328961D01*
X92533334Y-35328961D02*
X92495238Y-35405152D01*
X92495238Y-35405152D02*
X92457143Y-35443247D01*
X92457143Y-35443247D02*
X92380953Y-35481342D01*
X92380953Y-35481342D02*
X92076191Y-35481342D01*
X92876191Y-35443247D02*
X93142857Y-35443247D01*
X93257143Y-35862295D02*
X92876191Y-35862295D01*
X92876191Y-35862295D02*
X92876191Y-35062295D01*
X92876191Y-35062295D02*
X93257143Y-35062295D01*
X94095239Y-35062295D02*
X94361906Y-35862295D01*
X94361906Y-35862295D02*
X94628572Y-35062295D01*
X94895239Y-35862295D02*
X94895239Y-35062295D01*
X95276191Y-35862295D02*
X95276191Y-35062295D01*
X96533333Y-35443247D02*
X96266667Y-35443247D01*
X96266667Y-35862295D02*
X96266667Y-35062295D01*
X96266667Y-35062295D02*
X96647619Y-35062295D01*
X96952381Y-35862295D02*
X96952381Y-35062295D01*
X97714285Y-35862295D02*
X97333333Y-35862295D01*
X97333333Y-35862295D02*
X97333333Y-35062295D01*
X98361904Y-35862295D02*
X97980952Y-35862295D01*
X97980952Y-35862295D02*
X97980952Y-35062295D01*
X98628571Y-35443247D02*
X98895237Y-35443247D01*
X99009523Y-35862295D02*
X98628571Y-35862295D01*
X98628571Y-35862295D02*
X98628571Y-35062295D01*
X98628571Y-35062295D02*
X99009523Y-35062295D01*
X99352381Y-35862295D02*
X99352381Y-35062295D01*
X99352381Y-35062295D02*
X99542857Y-35062295D01*
X99542857Y-35062295D02*
X99657143Y-35100390D01*
X99657143Y-35100390D02*
X99733333Y-35176580D01*
X99733333Y-35176580D02*
X99771428Y-35252771D01*
X99771428Y-35252771D02*
X99809524Y-35405152D01*
X99809524Y-35405152D02*
X99809524Y-35519438D01*
X99809524Y-35519438D02*
X99771428Y-35671819D01*
X99771428Y-35671819D02*
X99733333Y-35748009D01*
X99733333Y-35748009D02*
X99657143Y-35824200D01*
X99657143Y-35824200D02*
X99542857Y-35862295D01*
X99542857Y-35862295D02*
X99352381Y-35862295D01*
X100723809Y-35024200D02*
X100038095Y-36052771D01*
X101447619Y-35786104D02*
X101409523Y-35824200D01*
X101409523Y-35824200D02*
X101295238Y-35862295D01*
X101295238Y-35862295D02*
X101219047Y-35862295D01*
X101219047Y-35862295D02*
X101104761Y-35824200D01*
X101104761Y-35824200D02*
X101028571Y-35748009D01*
X101028571Y-35748009D02*
X100990476Y-35671819D01*
X100990476Y-35671819D02*
X100952380Y-35519438D01*
X100952380Y-35519438D02*
X100952380Y-35405152D01*
X100952380Y-35405152D02*
X100990476Y-35252771D01*
X100990476Y-35252771D02*
X101028571Y-35176580D01*
X101028571Y-35176580D02*
X101104761Y-35100390D01*
X101104761Y-35100390D02*
X101219047Y-35062295D01*
X101219047Y-35062295D02*
X101295238Y-35062295D01*
X101295238Y-35062295D02*
X101409523Y-35100390D01*
X101409523Y-35100390D02*
X101447619Y-35138485D01*
X101752380Y-35633723D02*
X102133333Y-35633723D01*
X101676190Y-35862295D02*
X101942857Y-35062295D01*
X101942857Y-35062295D02*
X102209523Y-35862295D01*
X102476190Y-35862295D02*
X102476190Y-35062295D01*
X102476190Y-35062295D02*
X102780952Y-35062295D01*
X102780952Y-35062295D02*
X102857142Y-35100390D01*
X102857142Y-35100390D02*
X102895237Y-35138485D01*
X102895237Y-35138485D02*
X102933333Y-35214676D01*
X102933333Y-35214676D02*
X102933333Y-35328961D01*
X102933333Y-35328961D02*
X102895237Y-35405152D01*
X102895237Y-35405152D02*
X102857142Y-35443247D01*
X102857142Y-35443247D02*
X102780952Y-35481342D01*
X102780952Y-35481342D02*
X102476190Y-35481342D01*
X103276190Y-35862295D02*
X103276190Y-35062295D01*
X103276190Y-35062295D02*
X103580952Y-35062295D01*
X103580952Y-35062295D02*
X103657142Y-35100390D01*
X103657142Y-35100390D02*
X103695237Y-35138485D01*
X103695237Y-35138485D02*
X103733333Y-35214676D01*
X103733333Y-35214676D02*
X103733333Y-35328961D01*
X103733333Y-35328961D02*
X103695237Y-35405152D01*
X103695237Y-35405152D02*
X103657142Y-35443247D01*
X103657142Y-35443247D02*
X103580952Y-35481342D01*
X103580952Y-35481342D02*
X103276190Y-35481342D01*
X104076190Y-35443247D02*
X104342856Y-35443247D01*
X104457142Y-35862295D02*
X104076190Y-35862295D01*
X104076190Y-35862295D02*
X104076190Y-35062295D01*
X104076190Y-35062295D02*
X104457142Y-35062295D01*
X104800000Y-35862295D02*
X104800000Y-35062295D01*
X104800000Y-35062295D02*
X104990476Y-35062295D01*
X104990476Y-35062295D02*
X105104762Y-35100390D01*
X105104762Y-35100390D02*
X105180952Y-35176580D01*
X105180952Y-35176580D02*
X105219047Y-35252771D01*
X105219047Y-35252771D02*
X105257143Y-35405152D01*
X105257143Y-35405152D02*
X105257143Y-35519438D01*
X105257143Y-35519438D02*
X105219047Y-35671819D01*
X105219047Y-35671819D02*
X105180952Y-35748009D01*
X105180952Y-35748009D02*
X105104762Y-35824200D01*
X105104762Y-35824200D02*
X104990476Y-35862295D01*
X104990476Y-35862295D02*
X104800000Y-35862295D01*
X57549999Y-59151414D02*
X57978571Y-59151414D01*
X57464285Y-59408557D02*
X57764285Y-58508557D01*
X57764285Y-58508557D02*
X58064285Y-59408557D01*
X58364285Y-59408557D02*
X58364285Y-58508557D01*
X58878571Y-59408557D02*
X58492857Y-58894271D01*
X58878571Y-58508557D02*
X58364285Y-59022842D01*
X59650000Y-58808557D02*
X59650000Y-59408557D01*
X59435714Y-58465700D02*
X59221428Y-59108557D01*
X59221428Y-59108557D02*
X59778571Y-59108557D01*
X60507143Y-58808557D02*
X60507143Y-59408557D01*
X60292857Y-58465700D02*
X60078571Y-59108557D01*
X60078571Y-59108557D02*
X60635714Y-59108557D01*
X61407143Y-58508557D02*
X60978571Y-58508557D01*
X60978571Y-58508557D02*
X60935714Y-58937128D01*
X60935714Y-58937128D02*
X60978571Y-58894271D01*
X60978571Y-58894271D02*
X61064286Y-58851414D01*
X61064286Y-58851414D02*
X61278571Y-58851414D01*
X61278571Y-58851414D02*
X61364286Y-58894271D01*
X61364286Y-58894271D02*
X61407143Y-58937128D01*
X61407143Y-58937128D02*
X61450000Y-59022842D01*
X61450000Y-59022842D02*
X61450000Y-59237128D01*
X61450000Y-59237128D02*
X61407143Y-59322842D01*
X61407143Y-59322842D02*
X61364286Y-59365700D01*
X61364286Y-59365700D02*
X61278571Y-59408557D01*
X61278571Y-59408557D02*
X61064286Y-59408557D01*
X61064286Y-59408557D02*
X60978571Y-59365700D01*
X60978571Y-59365700D02*
X60935714Y-59322842D01*
X61964286Y-58894271D02*
X61878571Y-58851414D01*
X61878571Y-58851414D02*
X61835714Y-58808557D01*
X61835714Y-58808557D02*
X61792857Y-58722842D01*
X61792857Y-58722842D02*
X61792857Y-58679985D01*
X61792857Y-58679985D02*
X61835714Y-58594271D01*
X61835714Y-58594271D02*
X61878571Y-58551414D01*
X61878571Y-58551414D02*
X61964286Y-58508557D01*
X61964286Y-58508557D02*
X62135714Y-58508557D01*
X62135714Y-58508557D02*
X62221429Y-58551414D01*
X62221429Y-58551414D02*
X62264286Y-58594271D01*
X62264286Y-58594271D02*
X62307143Y-58679985D01*
X62307143Y-58679985D02*
X62307143Y-58722842D01*
X62307143Y-58722842D02*
X62264286Y-58808557D01*
X62264286Y-58808557D02*
X62221429Y-58851414D01*
X62221429Y-58851414D02*
X62135714Y-58894271D01*
X62135714Y-58894271D02*
X61964286Y-58894271D01*
X61964286Y-58894271D02*
X61878571Y-58937128D01*
X61878571Y-58937128D02*
X61835714Y-58979985D01*
X61835714Y-58979985D02*
X61792857Y-59065700D01*
X61792857Y-59065700D02*
X61792857Y-59237128D01*
X61792857Y-59237128D02*
X61835714Y-59322842D01*
X61835714Y-59322842D02*
X61878571Y-59365700D01*
X61878571Y-59365700D02*
X61964286Y-59408557D01*
X61964286Y-59408557D02*
X62135714Y-59408557D01*
X62135714Y-59408557D02*
X62221429Y-59365700D01*
X62221429Y-59365700D02*
X62264286Y-59322842D01*
X62264286Y-59322842D02*
X62307143Y-59237128D01*
X62307143Y-59237128D02*
X62307143Y-59065700D01*
X62307143Y-59065700D02*
X62264286Y-58979985D01*
X62264286Y-58979985D02*
X62221429Y-58937128D01*
X62221429Y-58937128D02*
X62135714Y-58894271D01*
X62564286Y-58508557D02*
X62864286Y-59408557D01*
X62864286Y-59408557D02*
X63164286Y-58508557D01*
X63464286Y-59408557D02*
X63464286Y-58508557D01*
X63464286Y-58508557D02*
X63978572Y-59408557D01*
X63978572Y-59408557D02*
X63978572Y-58508557D01*
X65692857Y-59494271D02*
X65607143Y-59451414D01*
X65607143Y-59451414D02*
X65521429Y-59365700D01*
X65521429Y-59365700D02*
X65392857Y-59237128D01*
X65392857Y-59237128D02*
X65307143Y-59194271D01*
X65307143Y-59194271D02*
X65221429Y-59194271D01*
X65264286Y-59408557D02*
X65178572Y-59365700D01*
X65178572Y-59365700D02*
X65092857Y-59279985D01*
X65092857Y-59279985D02*
X65050000Y-59108557D01*
X65050000Y-59108557D02*
X65050000Y-58808557D01*
X65050000Y-58808557D02*
X65092857Y-58637128D01*
X65092857Y-58637128D02*
X65178572Y-58551414D01*
X65178572Y-58551414D02*
X65264286Y-58508557D01*
X65264286Y-58508557D02*
X65435714Y-58508557D01*
X65435714Y-58508557D02*
X65521429Y-58551414D01*
X65521429Y-58551414D02*
X65607143Y-58637128D01*
X65607143Y-58637128D02*
X65650000Y-58808557D01*
X65650000Y-58808557D02*
X65650000Y-59108557D01*
X65650000Y-59108557D02*
X65607143Y-59279985D01*
X65607143Y-59279985D02*
X65521429Y-59365700D01*
X65521429Y-59365700D02*
X65435714Y-59408557D01*
X65435714Y-59408557D02*
X65264286Y-59408557D01*
X66335714Y-58937128D02*
X66035714Y-58937128D01*
X66035714Y-59408557D02*
X66035714Y-58508557D01*
X66035714Y-58508557D02*
X66464286Y-58508557D01*
X66807143Y-59408557D02*
X66807143Y-58508557D01*
X66807143Y-58508557D02*
X67321429Y-59408557D01*
X67321429Y-59408557D02*
X67321429Y-58508557D01*
X67750000Y-59065700D02*
X68435715Y-59065700D01*
X69250001Y-58808557D02*
X69250001Y-59408557D01*
X69035715Y-58465700D02*
X68821429Y-59108557D01*
X68821429Y-59108557D02*
X69378572Y-59108557D01*
X69850001Y-58894271D02*
X69764286Y-58851414D01*
X69764286Y-58851414D02*
X69721429Y-58808557D01*
X69721429Y-58808557D02*
X69678572Y-58722842D01*
X69678572Y-58722842D02*
X69678572Y-58679985D01*
X69678572Y-58679985D02*
X69721429Y-58594271D01*
X69721429Y-58594271D02*
X69764286Y-58551414D01*
X69764286Y-58551414D02*
X69850001Y-58508557D01*
X69850001Y-58508557D02*
X70021429Y-58508557D01*
X70021429Y-58508557D02*
X70107144Y-58551414D01*
X70107144Y-58551414D02*
X70150001Y-58594271D01*
X70150001Y-58594271D02*
X70192858Y-58679985D01*
X70192858Y-58679985D02*
X70192858Y-58722842D01*
X70192858Y-58722842D02*
X70150001Y-58808557D01*
X70150001Y-58808557D02*
X70107144Y-58851414D01*
X70107144Y-58851414D02*
X70021429Y-58894271D01*
X70021429Y-58894271D02*
X69850001Y-58894271D01*
X69850001Y-58894271D02*
X69764286Y-58937128D01*
X69764286Y-58937128D02*
X69721429Y-58979985D01*
X69721429Y-58979985D02*
X69678572Y-59065700D01*
X69678572Y-59065700D02*
X69678572Y-59237128D01*
X69678572Y-59237128D02*
X69721429Y-59322842D01*
X69721429Y-59322842D02*
X69764286Y-59365700D01*
X69764286Y-59365700D02*
X69850001Y-59408557D01*
X69850001Y-59408557D02*
X70021429Y-59408557D01*
X70021429Y-59408557D02*
X70107144Y-59365700D01*
X70107144Y-59365700D02*
X70150001Y-59322842D01*
X70150001Y-59322842D02*
X70192858Y-59237128D01*
X70192858Y-59237128D02*
X70192858Y-59065700D01*
X70192858Y-59065700D02*
X70150001Y-58979985D01*
X70150001Y-58979985D02*
X70107144Y-58937128D01*
X70107144Y-58937128D02*
X70021429Y-58894271D01*
X71178572Y-58508557D02*
X71778572Y-58508557D01*
X71778572Y-58508557D02*
X71392858Y-59408557D01*
X72035715Y-59408557D02*
X72507144Y-58808557D01*
X72035715Y-58808557D02*
X72507144Y-59408557D01*
X72764286Y-58508557D02*
X73364286Y-58508557D01*
X73364286Y-58508557D02*
X72978572Y-59408557D01*
X74392857Y-59408557D02*
X74392857Y-58508557D01*
X74392857Y-58508557D02*
X74735714Y-58508557D01*
X74735714Y-58508557D02*
X74821429Y-58551414D01*
X74821429Y-58551414D02*
X74864286Y-58594271D01*
X74864286Y-58594271D02*
X74907143Y-58679985D01*
X74907143Y-58679985D02*
X74907143Y-58808557D01*
X74907143Y-58808557D02*
X74864286Y-58894271D01*
X74864286Y-58894271D02*
X74821429Y-58937128D01*
X74821429Y-58937128D02*
X74735714Y-58979985D01*
X74735714Y-58979985D02*
X74392857Y-58979985D01*
X75464286Y-58508557D02*
X75550000Y-58508557D01*
X75550000Y-58508557D02*
X75635714Y-58551414D01*
X75635714Y-58551414D02*
X75678572Y-58594271D01*
X75678572Y-58594271D02*
X75721429Y-58679985D01*
X75721429Y-58679985D02*
X75764286Y-58851414D01*
X75764286Y-58851414D02*
X75764286Y-59065700D01*
X75764286Y-59065700D02*
X75721429Y-59237128D01*
X75721429Y-59237128D02*
X75678572Y-59322842D01*
X75678572Y-59322842D02*
X75635714Y-59365700D01*
X75635714Y-59365700D02*
X75550000Y-59408557D01*
X75550000Y-59408557D02*
X75464286Y-59408557D01*
X75464286Y-59408557D02*
X75378572Y-59365700D01*
X75378572Y-59365700D02*
X75335714Y-59322842D01*
X75335714Y-59322842D02*
X75292857Y-59237128D01*
X75292857Y-59237128D02*
X75250000Y-59065700D01*
X75250000Y-59065700D02*
X75250000Y-58851414D01*
X75250000Y-58851414D02*
X75292857Y-58679985D01*
X75292857Y-58679985D02*
X75335714Y-58594271D01*
X75335714Y-58594271D02*
X75378572Y-58551414D01*
X75378572Y-58551414D02*
X75464286Y-58508557D01*
X76150000Y-59322842D02*
X76192857Y-59365700D01*
X76192857Y-59365700D02*
X76150000Y-59408557D01*
X76150000Y-59408557D02*
X76107143Y-59365700D01*
X76107143Y-59365700D02*
X76150000Y-59322842D01*
X76150000Y-59322842D02*
X76150000Y-59408557D01*
X77007143Y-58508557D02*
X76578571Y-58508557D01*
X76578571Y-58508557D02*
X76535714Y-58937128D01*
X76535714Y-58937128D02*
X76578571Y-58894271D01*
X76578571Y-58894271D02*
X76664286Y-58851414D01*
X76664286Y-58851414D02*
X76878571Y-58851414D01*
X76878571Y-58851414D02*
X76964286Y-58894271D01*
X76964286Y-58894271D02*
X77007143Y-58937128D01*
X77007143Y-58937128D02*
X77050000Y-59022842D01*
X77050000Y-59022842D02*
X77050000Y-59237128D01*
X77050000Y-59237128D02*
X77007143Y-59322842D01*
X77007143Y-59322842D02*
X76964286Y-59365700D01*
X76964286Y-59365700D02*
X76878571Y-59408557D01*
X76878571Y-59408557D02*
X76664286Y-59408557D01*
X76664286Y-59408557D02*
X76578571Y-59365700D01*
X76578571Y-59365700D02*
X76535714Y-59322842D01*
X78121428Y-58937128D02*
X78421428Y-58937128D01*
X78550000Y-59408557D02*
X78121428Y-59408557D01*
X78121428Y-59408557D02*
X78121428Y-58508557D01*
X78121428Y-58508557D02*
X78550000Y-58508557D01*
X78935714Y-59408557D02*
X78935714Y-58508557D01*
X78935714Y-58508557D02*
X79278571Y-58508557D01*
X79278571Y-58508557D02*
X79364286Y-58551414D01*
X79364286Y-58551414D02*
X79407143Y-58594271D01*
X79407143Y-58594271D02*
X79450000Y-58679985D01*
X79450000Y-58679985D02*
X79450000Y-58808557D01*
X79450000Y-58808557D02*
X79407143Y-58894271D01*
X79407143Y-58894271D02*
X79364286Y-58937128D01*
X79364286Y-58937128D02*
X79278571Y-58979985D01*
X79278571Y-58979985D02*
X78935714Y-58979985D01*
X80264286Y-58508557D02*
X79835714Y-58508557D01*
X79835714Y-58508557D02*
X79792857Y-58937128D01*
X79792857Y-58937128D02*
X79835714Y-58894271D01*
X79835714Y-58894271D02*
X79921429Y-58851414D01*
X79921429Y-58851414D02*
X80135714Y-58851414D01*
X80135714Y-58851414D02*
X80221429Y-58894271D01*
X80221429Y-58894271D02*
X80264286Y-58937128D01*
X80264286Y-58937128D02*
X80307143Y-59022842D01*
X80307143Y-59022842D02*
X80307143Y-59237128D01*
X80307143Y-59237128D02*
X80264286Y-59322842D01*
X80264286Y-59322842D02*
X80221429Y-59365700D01*
X80221429Y-59365700D02*
X80135714Y-59408557D01*
X80135714Y-59408557D02*
X79921429Y-59408557D01*
X79921429Y-59408557D02*
X79835714Y-59365700D01*
X79835714Y-59365700D02*
X79792857Y-59322842D01*
X80692857Y-59322842D02*
X80735714Y-59365700D01*
X80735714Y-59365700D02*
X80692857Y-59408557D01*
X80692857Y-59408557D02*
X80650000Y-59365700D01*
X80650000Y-59365700D02*
X80692857Y-59322842D01*
X80692857Y-59322842D02*
X80692857Y-59408557D01*
X81592857Y-59408557D02*
X81078571Y-59408557D01*
X81335714Y-59408557D02*
X81335714Y-58508557D01*
X81335714Y-58508557D02*
X81250000Y-58637128D01*
X81250000Y-58637128D02*
X81164285Y-58722842D01*
X81164285Y-58722842D02*
X81078571Y-58765700D01*
X82407143Y-58508557D02*
X81978571Y-58508557D01*
X81978571Y-58508557D02*
X81935714Y-58937128D01*
X81935714Y-58937128D02*
X81978571Y-58894271D01*
X81978571Y-58894271D02*
X82064286Y-58851414D01*
X82064286Y-58851414D02*
X82278571Y-58851414D01*
X82278571Y-58851414D02*
X82364286Y-58894271D01*
X82364286Y-58894271D02*
X82407143Y-58937128D01*
X82407143Y-58937128D02*
X82450000Y-59022842D01*
X82450000Y-59022842D02*
X82450000Y-59237128D01*
X82450000Y-59237128D02*
X82407143Y-59322842D01*
X82407143Y-59322842D02*
X82364286Y-59365700D01*
X82364286Y-59365700D02*
X82278571Y-59408557D01*
X82278571Y-59408557D02*
X82064286Y-59408557D01*
X82064286Y-59408557D02*
X81978571Y-59365700D01*
X81978571Y-59365700D02*
X81935714Y-59322842D01*
X37752381Y-61062295D02*
X37904762Y-61062295D01*
X37904762Y-61062295D02*
X37980952Y-61100390D01*
X37980952Y-61100390D02*
X38057143Y-61176580D01*
X38057143Y-61176580D02*
X38095238Y-61328961D01*
X38095238Y-61328961D02*
X38095238Y-61595628D01*
X38095238Y-61595628D02*
X38057143Y-61748009D01*
X38057143Y-61748009D02*
X37980952Y-61824200D01*
X37980952Y-61824200D02*
X37904762Y-61862295D01*
X37904762Y-61862295D02*
X37752381Y-61862295D01*
X37752381Y-61862295D02*
X37676190Y-61824200D01*
X37676190Y-61824200D02*
X37600000Y-61748009D01*
X37600000Y-61748009D02*
X37561904Y-61595628D01*
X37561904Y-61595628D02*
X37561904Y-61328961D01*
X37561904Y-61328961D02*
X37600000Y-61176580D01*
X37600000Y-61176580D02*
X37676190Y-61100390D01*
X37676190Y-61100390D02*
X37752381Y-61062295D01*
X38438095Y-61862295D02*
X38438095Y-61062295D01*
X38438095Y-61062295D02*
X38742857Y-61062295D01*
X38742857Y-61062295D02*
X38819047Y-61100390D01*
X38819047Y-61100390D02*
X38857142Y-61138485D01*
X38857142Y-61138485D02*
X38895238Y-61214676D01*
X38895238Y-61214676D02*
X38895238Y-61328961D01*
X38895238Y-61328961D02*
X38857142Y-61405152D01*
X38857142Y-61405152D02*
X38819047Y-61443247D01*
X38819047Y-61443247D02*
X38742857Y-61481342D01*
X38742857Y-61481342D02*
X38438095Y-61481342D01*
X39238095Y-61443247D02*
X39504761Y-61443247D01*
X39619047Y-61862295D02*
X39238095Y-61862295D01*
X39238095Y-61862295D02*
X39238095Y-61062295D01*
X39238095Y-61062295D02*
X39619047Y-61062295D01*
X39961905Y-61862295D02*
X39961905Y-61062295D01*
X39961905Y-61062295D02*
X40419048Y-61862295D01*
X40419048Y-61862295D02*
X40419048Y-61062295D01*
X41866667Y-61786104D02*
X41828571Y-61824200D01*
X41828571Y-61824200D02*
X41714286Y-61862295D01*
X41714286Y-61862295D02*
X41638095Y-61862295D01*
X41638095Y-61862295D02*
X41523809Y-61824200D01*
X41523809Y-61824200D02*
X41447619Y-61748009D01*
X41447619Y-61748009D02*
X41409524Y-61671819D01*
X41409524Y-61671819D02*
X41371428Y-61519438D01*
X41371428Y-61519438D02*
X41371428Y-61405152D01*
X41371428Y-61405152D02*
X41409524Y-61252771D01*
X41409524Y-61252771D02*
X41447619Y-61176580D01*
X41447619Y-61176580D02*
X41523809Y-61100390D01*
X41523809Y-61100390D02*
X41638095Y-61062295D01*
X41638095Y-61062295D02*
X41714286Y-61062295D01*
X41714286Y-61062295D02*
X41828571Y-61100390D01*
X41828571Y-61100390D02*
X41866667Y-61138485D01*
X42361905Y-61062295D02*
X42514286Y-61062295D01*
X42514286Y-61062295D02*
X42590476Y-61100390D01*
X42590476Y-61100390D02*
X42666667Y-61176580D01*
X42666667Y-61176580D02*
X42704762Y-61328961D01*
X42704762Y-61328961D02*
X42704762Y-61595628D01*
X42704762Y-61595628D02*
X42666667Y-61748009D01*
X42666667Y-61748009D02*
X42590476Y-61824200D01*
X42590476Y-61824200D02*
X42514286Y-61862295D01*
X42514286Y-61862295D02*
X42361905Y-61862295D01*
X42361905Y-61862295D02*
X42285714Y-61824200D01*
X42285714Y-61824200D02*
X42209524Y-61748009D01*
X42209524Y-61748009D02*
X42171428Y-61595628D01*
X42171428Y-61595628D02*
X42171428Y-61328961D01*
X42171428Y-61328961D02*
X42209524Y-61176580D01*
X42209524Y-61176580D02*
X42285714Y-61100390D01*
X42285714Y-61100390D02*
X42361905Y-61062295D01*
X43047619Y-61862295D02*
X43047619Y-61062295D01*
X43047619Y-61062295D02*
X43504762Y-61862295D01*
X43504762Y-61862295D02*
X43504762Y-61062295D01*
X43771428Y-61062295D02*
X44228571Y-61062295D01*
X43999999Y-61862295D02*
X43999999Y-61062295D01*
X44952381Y-61862295D02*
X44685714Y-61481342D01*
X44495238Y-61862295D02*
X44495238Y-61062295D01*
X44495238Y-61062295D02*
X44800000Y-61062295D01*
X44800000Y-61062295D02*
X44876190Y-61100390D01*
X44876190Y-61100390D02*
X44914285Y-61138485D01*
X44914285Y-61138485D02*
X44952381Y-61214676D01*
X44952381Y-61214676D02*
X44952381Y-61328961D01*
X44952381Y-61328961D02*
X44914285Y-61405152D01*
X44914285Y-61405152D02*
X44876190Y-61443247D01*
X44876190Y-61443247D02*
X44800000Y-61481342D01*
X44800000Y-61481342D02*
X44495238Y-61481342D01*
X45447619Y-61062295D02*
X45600000Y-61062295D01*
X45600000Y-61062295D02*
X45676190Y-61100390D01*
X45676190Y-61100390D02*
X45752381Y-61176580D01*
X45752381Y-61176580D02*
X45790476Y-61328961D01*
X45790476Y-61328961D02*
X45790476Y-61595628D01*
X45790476Y-61595628D02*
X45752381Y-61748009D01*
X45752381Y-61748009D02*
X45676190Y-61824200D01*
X45676190Y-61824200D02*
X45600000Y-61862295D01*
X45600000Y-61862295D02*
X45447619Y-61862295D01*
X45447619Y-61862295D02*
X45371428Y-61824200D01*
X45371428Y-61824200D02*
X45295238Y-61748009D01*
X45295238Y-61748009D02*
X45257142Y-61595628D01*
X45257142Y-61595628D02*
X45257142Y-61328961D01*
X45257142Y-61328961D02*
X45295238Y-61176580D01*
X45295238Y-61176580D02*
X45371428Y-61100390D01*
X45371428Y-61100390D02*
X45447619Y-61062295D01*
X46514285Y-61862295D02*
X46133333Y-61862295D01*
X46133333Y-61862295D02*
X46133333Y-61062295D01*
X65695237Y-61443247D02*
X65809523Y-61481342D01*
X65809523Y-61481342D02*
X65847618Y-61519438D01*
X65847618Y-61519438D02*
X65885714Y-61595628D01*
X65885714Y-61595628D02*
X65885714Y-61709914D01*
X65885714Y-61709914D02*
X65847618Y-61786104D01*
X65847618Y-61786104D02*
X65809523Y-61824200D01*
X65809523Y-61824200D02*
X65733333Y-61862295D01*
X65733333Y-61862295D02*
X65428571Y-61862295D01*
X65428571Y-61862295D02*
X65428571Y-61062295D01*
X65428571Y-61062295D02*
X65695237Y-61062295D01*
X65695237Y-61062295D02*
X65771428Y-61100390D01*
X65771428Y-61100390D02*
X65809523Y-61138485D01*
X65809523Y-61138485D02*
X65847618Y-61214676D01*
X65847618Y-61214676D02*
X65847618Y-61290866D01*
X65847618Y-61290866D02*
X65809523Y-61367057D01*
X65809523Y-61367057D02*
X65771428Y-61405152D01*
X65771428Y-61405152D02*
X65695237Y-61443247D01*
X65695237Y-61443247D02*
X65428571Y-61443247D01*
X66380952Y-61062295D02*
X66533333Y-61062295D01*
X66533333Y-61062295D02*
X66609523Y-61100390D01*
X66609523Y-61100390D02*
X66685714Y-61176580D01*
X66685714Y-61176580D02*
X66723809Y-61328961D01*
X66723809Y-61328961D02*
X66723809Y-61595628D01*
X66723809Y-61595628D02*
X66685714Y-61748009D01*
X66685714Y-61748009D02*
X66609523Y-61824200D01*
X66609523Y-61824200D02*
X66533333Y-61862295D01*
X66533333Y-61862295D02*
X66380952Y-61862295D01*
X66380952Y-61862295D02*
X66304761Y-61824200D01*
X66304761Y-61824200D02*
X66228571Y-61748009D01*
X66228571Y-61748009D02*
X66190475Y-61595628D01*
X66190475Y-61595628D02*
X66190475Y-61328961D01*
X66190475Y-61328961D02*
X66228571Y-61176580D01*
X66228571Y-61176580D02*
X66304761Y-61100390D01*
X66304761Y-61100390D02*
X66380952Y-61062295D01*
X66952380Y-61062295D02*
X67409523Y-61062295D01*
X67180951Y-61862295D02*
X67180951Y-61062295D01*
X67561904Y-61062295D02*
X68019047Y-61062295D01*
X67790475Y-61862295D02*
X67790475Y-61062295D01*
X68438095Y-61062295D02*
X68590476Y-61062295D01*
X68590476Y-61062295D02*
X68666666Y-61100390D01*
X68666666Y-61100390D02*
X68742857Y-61176580D01*
X68742857Y-61176580D02*
X68780952Y-61328961D01*
X68780952Y-61328961D02*
X68780952Y-61595628D01*
X68780952Y-61595628D02*
X68742857Y-61748009D01*
X68742857Y-61748009D02*
X68666666Y-61824200D01*
X68666666Y-61824200D02*
X68590476Y-61862295D01*
X68590476Y-61862295D02*
X68438095Y-61862295D01*
X68438095Y-61862295D02*
X68361904Y-61824200D01*
X68361904Y-61824200D02*
X68285714Y-61748009D01*
X68285714Y-61748009D02*
X68247618Y-61595628D01*
X68247618Y-61595628D02*
X68247618Y-61328961D01*
X68247618Y-61328961D02*
X68285714Y-61176580D01*
X68285714Y-61176580D02*
X68361904Y-61100390D01*
X68361904Y-61100390D02*
X68438095Y-61062295D01*
X69123809Y-61862295D02*
X69123809Y-61062295D01*
X69123809Y-61062295D02*
X69390475Y-61633723D01*
X69390475Y-61633723D02*
X69657142Y-61062295D01*
X69657142Y-61062295D02*
X69657142Y-61862295D01*
X70533333Y-61062295D02*
X70990476Y-61062295D01*
X70761904Y-61862295D02*
X70761904Y-61062295D01*
X71257143Y-61443247D02*
X71523809Y-61443247D01*
X71638095Y-61862295D02*
X71257143Y-61862295D01*
X71257143Y-61862295D02*
X71257143Y-61062295D01*
X71257143Y-61062295D02*
X71638095Y-61062295D01*
X71980953Y-61862295D02*
X71980953Y-61062295D01*
X71980953Y-61062295D02*
X72438096Y-61862295D01*
X72438096Y-61862295D02*
X72438096Y-61062295D01*
X72704762Y-61062295D02*
X73161905Y-61062295D01*
X72933333Y-61862295D02*
X72933333Y-61062295D01*
X73428572Y-61443247D02*
X73695238Y-61443247D01*
X73809524Y-61862295D02*
X73428572Y-61862295D01*
X73428572Y-61862295D02*
X73428572Y-61062295D01*
X73428572Y-61062295D02*
X73809524Y-61062295D01*
X74152382Y-61862295D02*
X74152382Y-61062295D01*
X74152382Y-61062295D02*
X74342858Y-61062295D01*
X74342858Y-61062295D02*
X74457144Y-61100390D01*
X74457144Y-61100390D02*
X74533334Y-61176580D01*
X74533334Y-61176580D02*
X74571429Y-61252771D01*
X74571429Y-61252771D02*
X74609525Y-61405152D01*
X74609525Y-61405152D02*
X74609525Y-61519438D01*
X74609525Y-61519438D02*
X74571429Y-61671819D01*
X74571429Y-61671819D02*
X74533334Y-61748009D01*
X74533334Y-61748009D02*
X74457144Y-61824200D01*
X74457144Y-61824200D02*
X74342858Y-61862295D01*
X74342858Y-61862295D02*
X74152382Y-61862295D01*
X90666667Y-61062295D02*
X91123810Y-61062295D01*
X90895238Y-61862295D02*
X90895238Y-61062295D01*
X91542858Y-61481342D02*
X91542858Y-61862295D01*
X91276191Y-61062295D02*
X91542858Y-61481342D01*
X91542858Y-61481342D02*
X91809524Y-61062295D01*
X92076191Y-61862295D02*
X92076191Y-61062295D01*
X92076191Y-61062295D02*
X92380953Y-61062295D01*
X92380953Y-61062295D02*
X92457143Y-61100390D01*
X92457143Y-61100390D02*
X92495238Y-61138485D01*
X92495238Y-61138485D02*
X92533334Y-61214676D01*
X92533334Y-61214676D02*
X92533334Y-61328961D01*
X92533334Y-61328961D02*
X92495238Y-61405152D01*
X92495238Y-61405152D02*
X92457143Y-61443247D01*
X92457143Y-61443247D02*
X92380953Y-61481342D01*
X92380953Y-61481342D02*
X92076191Y-61481342D01*
X92876191Y-61443247D02*
X93142857Y-61443247D01*
X93257143Y-61862295D02*
X92876191Y-61862295D01*
X92876191Y-61862295D02*
X92876191Y-61062295D01*
X92876191Y-61062295D02*
X93257143Y-61062295D01*
X94095239Y-61062295D02*
X94361906Y-61862295D01*
X94361906Y-61862295D02*
X94628572Y-61062295D01*
X94895239Y-61862295D02*
X94895239Y-61062295D01*
X95276191Y-61862295D02*
X95276191Y-61062295D01*
X96533333Y-61443247D02*
X96266667Y-61443247D01*
X96266667Y-61862295D02*
X96266667Y-61062295D01*
X96266667Y-61062295D02*
X96647619Y-61062295D01*
X96952381Y-61862295D02*
X96952381Y-61062295D01*
X97714285Y-61862295D02*
X97333333Y-61862295D01*
X97333333Y-61862295D02*
X97333333Y-61062295D01*
X98361904Y-61862295D02*
X97980952Y-61862295D01*
X97980952Y-61862295D02*
X97980952Y-61062295D01*
X98628571Y-61443247D02*
X98895237Y-61443247D01*
X99009523Y-61862295D02*
X98628571Y-61862295D01*
X98628571Y-61862295D02*
X98628571Y-61062295D01*
X98628571Y-61062295D02*
X99009523Y-61062295D01*
X99352381Y-61862295D02*
X99352381Y-61062295D01*
X99352381Y-61062295D02*
X99542857Y-61062295D01*
X99542857Y-61062295D02*
X99657143Y-61100390D01*
X99657143Y-61100390D02*
X99733333Y-61176580D01*
X99733333Y-61176580D02*
X99771428Y-61252771D01*
X99771428Y-61252771D02*
X99809524Y-61405152D01*
X99809524Y-61405152D02*
X99809524Y-61519438D01*
X99809524Y-61519438D02*
X99771428Y-61671819D01*
X99771428Y-61671819D02*
X99733333Y-61748009D01*
X99733333Y-61748009D02*
X99657143Y-61824200D01*
X99657143Y-61824200D02*
X99542857Y-61862295D01*
X99542857Y-61862295D02*
X99352381Y-61862295D01*
X100723809Y-61024200D02*
X100038095Y-62052771D01*
X101447619Y-61786104D02*
X101409523Y-61824200D01*
X101409523Y-61824200D02*
X101295238Y-61862295D01*
X101295238Y-61862295D02*
X101219047Y-61862295D01*
X101219047Y-61862295D02*
X101104761Y-61824200D01*
X101104761Y-61824200D02*
X101028571Y-61748009D01*
X101028571Y-61748009D02*
X100990476Y-61671819D01*
X100990476Y-61671819D02*
X100952380Y-61519438D01*
X100952380Y-61519438D02*
X100952380Y-61405152D01*
X100952380Y-61405152D02*
X100990476Y-61252771D01*
X100990476Y-61252771D02*
X101028571Y-61176580D01*
X101028571Y-61176580D02*
X101104761Y-61100390D01*
X101104761Y-61100390D02*
X101219047Y-61062295D01*
X101219047Y-61062295D02*
X101295238Y-61062295D01*
X101295238Y-61062295D02*
X101409523Y-61100390D01*
X101409523Y-61100390D02*
X101447619Y-61138485D01*
X101752380Y-61633723D02*
X102133333Y-61633723D01*
X101676190Y-61862295D02*
X101942857Y-61062295D01*
X101942857Y-61062295D02*
X102209523Y-61862295D01*
X102476190Y-61862295D02*
X102476190Y-61062295D01*
X102476190Y-61062295D02*
X102780952Y-61062295D01*
X102780952Y-61062295D02*
X102857142Y-61100390D01*
X102857142Y-61100390D02*
X102895237Y-61138485D01*
X102895237Y-61138485D02*
X102933333Y-61214676D01*
X102933333Y-61214676D02*
X102933333Y-61328961D01*
X102933333Y-61328961D02*
X102895237Y-61405152D01*
X102895237Y-61405152D02*
X102857142Y-61443247D01*
X102857142Y-61443247D02*
X102780952Y-61481342D01*
X102780952Y-61481342D02*
X102476190Y-61481342D01*
X103276190Y-61862295D02*
X103276190Y-61062295D01*
X103276190Y-61062295D02*
X103580952Y-61062295D01*
X103580952Y-61062295D02*
X103657142Y-61100390D01*
X103657142Y-61100390D02*
X103695237Y-61138485D01*
X103695237Y-61138485D02*
X103733333Y-61214676D01*
X103733333Y-61214676D02*
X103733333Y-61328961D01*
X103733333Y-61328961D02*
X103695237Y-61405152D01*
X103695237Y-61405152D02*
X103657142Y-61443247D01*
X103657142Y-61443247D02*
X103580952Y-61481342D01*
X103580952Y-61481342D02*
X103276190Y-61481342D01*
X104076190Y-61443247D02*
X104342856Y-61443247D01*
X104457142Y-61862295D02*
X104076190Y-61862295D01*
X104076190Y-61862295D02*
X104076190Y-61062295D01*
X104076190Y-61062295D02*
X104457142Y-61062295D01*
X104800000Y-61862295D02*
X104800000Y-61062295D01*
X104800000Y-61062295D02*
X104990476Y-61062295D01*
X104990476Y-61062295D02*
X105104762Y-61100390D01*
X105104762Y-61100390D02*
X105180952Y-61176580D01*
X105180952Y-61176580D02*
X105219047Y-61252771D01*
X105219047Y-61252771D02*
X105257143Y-61405152D01*
X105257143Y-61405152D02*
X105257143Y-61519438D01*
X105257143Y-61519438D02*
X105219047Y-61671819D01*
X105219047Y-61671819D02*
X105180952Y-61748009D01*
X105180952Y-61748009D02*
X105104762Y-61824200D01*
X105104762Y-61824200D02*
X104990476Y-61862295D01*
X104990476Y-61862295D02*
X104800000Y-61862295D01*
X35685714Y-81062295D02*
X36142857Y-81062295D01*
X35914285Y-81862295D02*
X35914285Y-81062295D01*
X36942857Y-81938485D02*
X36866667Y-81900390D01*
X36866667Y-81900390D02*
X36790476Y-81824200D01*
X36790476Y-81824200D02*
X36676190Y-81709914D01*
X36676190Y-81709914D02*
X36600000Y-81671819D01*
X36600000Y-81671819D02*
X36523809Y-81671819D01*
X36561905Y-81862295D02*
X36485714Y-81824200D01*
X36485714Y-81824200D02*
X36409524Y-81748009D01*
X36409524Y-81748009D02*
X36371428Y-81595628D01*
X36371428Y-81595628D02*
X36371428Y-81328961D01*
X36371428Y-81328961D02*
X36409524Y-81176580D01*
X36409524Y-81176580D02*
X36485714Y-81100390D01*
X36485714Y-81100390D02*
X36561905Y-81062295D01*
X36561905Y-81062295D02*
X36714286Y-81062295D01*
X36714286Y-81062295D02*
X36790476Y-81100390D01*
X36790476Y-81100390D02*
X36866667Y-81176580D01*
X36866667Y-81176580D02*
X36904762Y-81328961D01*
X36904762Y-81328961D02*
X36904762Y-81595628D01*
X36904762Y-81595628D02*
X36866667Y-81748009D01*
X36866667Y-81748009D02*
X36790476Y-81824200D01*
X36790476Y-81824200D02*
X36714286Y-81862295D01*
X36714286Y-81862295D02*
X36561905Y-81862295D01*
X37209523Y-81138485D02*
X37247619Y-81100390D01*
X37247619Y-81100390D02*
X37323809Y-81062295D01*
X37323809Y-81062295D02*
X37514285Y-81062295D01*
X37514285Y-81062295D02*
X37590476Y-81100390D01*
X37590476Y-81100390D02*
X37628571Y-81138485D01*
X37628571Y-81138485D02*
X37666666Y-81214676D01*
X37666666Y-81214676D02*
X37666666Y-81290866D01*
X37666666Y-81290866D02*
X37628571Y-81405152D01*
X37628571Y-81405152D02*
X37171428Y-81862295D01*
X37171428Y-81862295D02*
X37666666Y-81862295D01*
X38009524Y-81557533D02*
X38619048Y-81557533D01*
X39419047Y-81862295D02*
X38961904Y-81862295D01*
X39190476Y-81862295D02*
X39190476Y-81062295D01*
X39190476Y-81062295D02*
X39114285Y-81176580D01*
X39114285Y-81176580D02*
X39038095Y-81252771D01*
X39038095Y-81252771D02*
X38961904Y-81290866D01*
X39723809Y-81138485D02*
X39761905Y-81100390D01*
X39761905Y-81100390D02*
X39838095Y-81062295D01*
X39838095Y-81062295D02*
X40028571Y-81062295D01*
X40028571Y-81062295D02*
X40104762Y-81100390D01*
X40104762Y-81100390D02*
X40142857Y-81138485D01*
X40142857Y-81138485D02*
X40180952Y-81214676D01*
X40180952Y-81214676D02*
X40180952Y-81290866D01*
X40180952Y-81290866D02*
X40142857Y-81405152D01*
X40142857Y-81405152D02*
X39685714Y-81862295D01*
X39685714Y-81862295D02*
X40180952Y-81862295D01*
X40409524Y-81062295D02*
X40676191Y-81862295D01*
X40676191Y-81862295D02*
X40942857Y-81062295D01*
X42085714Y-81443247D02*
X41819048Y-81443247D01*
X41819048Y-81862295D02*
X41819048Y-81062295D01*
X41819048Y-81062295D02*
X42200000Y-81062295D01*
X42504762Y-81862295D02*
X42504762Y-81062295D01*
X42771428Y-81062295D02*
X43228571Y-81062295D01*
X42999999Y-81862295D02*
X42999999Y-81062295D01*
X44676190Y-81024200D02*
X43990476Y-82052771D01*
X45552381Y-81862295D02*
X45552381Y-81062295D01*
X45552381Y-81062295D02*
X45857143Y-81062295D01*
X45857143Y-81062295D02*
X45933333Y-81100390D01*
X45933333Y-81100390D02*
X45971428Y-81138485D01*
X45971428Y-81138485D02*
X46009524Y-81214676D01*
X46009524Y-81214676D02*
X46009524Y-81328961D01*
X46009524Y-81328961D02*
X45971428Y-81405152D01*
X45971428Y-81405152D02*
X45933333Y-81443247D01*
X45933333Y-81443247D02*
X45857143Y-81481342D01*
X45857143Y-81481342D02*
X45552381Y-81481342D01*
X46352381Y-81862295D02*
X46352381Y-81062295D01*
X46733333Y-81862295D02*
X46733333Y-81062295D01*
X46733333Y-81062295D02*
X47190476Y-81862295D01*
X47190476Y-81862295D02*
X47190476Y-81062295D01*
X48180952Y-81862295D02*
X48180952Y-81062295D01*
X48180952Y-81062295D02*
X48447618Y-81633723D01*
X48447618Y-81633723D02*
X48714285Y-81062295D01*
X48714285Y-81062295D02*
X48714285Y-81862295D01*
X49057142Y-81633723D02*
X49438095Y-81633723D01*
X48980952Y-81862295D02*
X49247619Y-81062295D01*
X49247619Y-81062295D02*
X49514285Y-81862295D01*
X49780952Y-81862295D02*
X49780952Y-81062295D01*
X49780952Y-81062295D02*
X50085714Y-81062295D01*
X50085714Y-81062295D02*
X50161904Y-81100390D01*
X50161904Y-81100390D02*
X50199999Y-81138485D01*
X50199999Y-81138485D02*
X50238095Y-81214676D01*
X50238095Y-81214676D02*
X50238095Y-81328961D01*
X50238095Y-81328961D02*
X50199999Y-81405152D01*
X50199999Y-81405152D02*
X50161904Y-81443247D01*
X50161904Y-81443247D02*
X50085714Y-81481342D01*
X50085714Y-81481342D02*
X49780952Y-81481342D01*
X74771429Y-77362295D02*
X74771429Y-76562295D01*
X75228572Y-77362295D02*
X74885714Y-76905152D01*
X75228572Y-76562295D02*
X74771429Y-77019438D01*
X75723810Y-76981342D02*
X75723810Y-77362295D01*
X75457143Y-76562295D02*
X75723810Y-76981342D01*
X75723810Y-76981342D02*
X75990476Y-76562295D01*
X76714286Y-77286104D02*
X76676190Y-77324200D01*
X76676190Y-77324200D02*
X76561905Y-77362295D01*
X76561905Y-77362295D02*
X76485714Y-77362295D01*
X76485714Y-77362295D02*
X76371428Y-77324200D01*
X76371428Y-77324200D02*
X76295238Y-77248009D01*
X76295238Y-77248009D02*
X76257143Y-77171819D01*
X76257143Y-77171819D02*
X76219047Y-77019438D01*
X76219047Y-77019438D02*
X76219047Y-76905152D01*
X76219047Y-76905152D02*
X76257143Y-76752771D01*
X76257143Y-76752771D02*
X76295238Y-76676580D01*
X76295238Y-76676580D02*
X76371428Y-76600390D01*
X76371428Y-76600390D02*
X76485714Y-76562295D01*
X76485714Y-76562295D02*
X76561905Y-76562295D01*
X76561905Y-76562295D02*
X76676190Y-76600390D01*
X76676190Y-76600390D02*
X76714286Y-76638485D01*
X77209524Y-76562295D02*
X77361905Y-76562295D01*
X77361905Y-76562295D02*
X77438095Y-76600390D01*
X77438095Y-76600390D02*
X77514286Y-76676580D01*
X77514286Y-76676580D02*
X77552381Y-76828961D01*
X77552381Y-76828961D02*
X77552381Y-77095628D01*
X77552381Y-77095628D02*
X77514286Y-77248009D01*
X77514286Y-77248009D02*
X77438095Y-77324200D01*
X77438095Y-77324200D02*
X77361905Y-77362295D01*
X77361905Y-77362295D02*
X77209524Y-77362295D01*
X77209524Y-77362295D02*
X77133333Y-77324200D01*
X77133333Y-77324200D02*
X77057143Y-77248009D01*
X77057143Y-77248009D02*
X77019047Y-77095628D01*
X77019047Y-77095628D02*
X77019047Y-76828961D01*
X77019047Y-76828961D02*
X77057143Y-76676580D01*
X77057143Y-76676580D02*
X77133333Y-76600390D01*
X77133333Y-76600390D02*
X77209524Y-76562295D01*
X77895238Y-77362295D02*
X77895238Y-76562295D01*
X77895238Y-76562295D02*
X78352381Y-77362295D01*
X78352381Y-77362295D02*
X78352381Y-76562295D01*
X79800000Y-77286104D02*
X79761904Y-77324200D01*
X79761904Y-77324200D02*
X79647619Y-77362295D01*
X79647619Y-77362295D02*
X79571428Y-77362295D01*
X79571428Y-77362295D02*
X79457142Y-77324200D01*
X79457142Y-77324200D02*
X79380952Y-77248009D01*
X79380952Y-77248009D02*
X79342857Y-77171819D01*
X79342857Y-77171819D02*
X79304761Y-77019438D01*
X79304761Y-77019438D02*
X79304761Y-76905152D01*
X79304761Y-76905152D02*
X79342857Y-76752771D01*
X79342857Y-76752771D02*
X79380952Y-76676580D01*
X79380952Y-76676580D02*
X79457142Y-76600390D01*
X79457142Y-76600390D02*
X79571428Y-76562295D01*
X79571428Y-76562295D02*
X79647619Y-76562295D01*
X79647619Y-76562295D02*
X79761904Y-76600390D01*
X79761904Y-76600390D02*
X79800000Y-76638485D01*
X80028571Y-76562295D02*
X80485714Y-76562295D01*
X80257142Y-77362295D02*
X80257142Y-76562295D01*
X80752381Y-77362295D02*
X80752381Y-76562295D01*
X81095237Y-77133723D02*
X81476190Y-77133723D01*
X81019047Y-77362295D02*
X81285714Y-76562295D01*
X81285714Y-76562295D02*
X81552380Y-77362295D01*
X82657142Y-76562295D02*
X82657142Y-77133723D01*
X82657142Y-77133723D02*
X82619047Y-77248009D01*
X82619047Y-77248009D02*
X82542856Y-77324200D01*
X82542856Y-77324200D02*
X82428571Y-77362295D01*
X82428571Y-77362295D02*
X82352380Y-77362295D01*
X82999999Y-77133723D02*
X83380952Y-77133723D01*
X82923809Y-77362295D02*
X83190476Y-76562295D01*
X83190476Y-76562295D02*
X83457142Y-77362295D01*
X84180952Y-77286104D02*
X84142856Y-77324200D01*
X84142856Y-77324200D02*
X84028571Y-77362295D01*
X84028571Y-77362295D02*
X83952380Y-77362295D01*
X83952380Y-77362295D02*
X83838094Y-77324200D01*
X83838094Y-77324200D02*
X83761904Y-77248009D01*
X83761904Y-77248009D02*
X83723809Y-77171819D01*
X83723809Y-77171819D02*
X83685713Y-77019438D01*
X83685713Y-77019438D02*
X83685713Y-76905152D01*
X83685713Y-76905152D02*
X83723809Y-76752771D01*
X83723809Y-76752771D02*
X83761904Y-76676580D01*
X83761904Y-76676580D02*
X83838094Y-76600390D01*
X83838094Y-76600390D02*
X83952380Y-76562295D01*
X83952380Y-76562295D02*
X84028571Y-76562295D01*
X84028571Y-76562295D02*
X84142856Y-76600390D01*
X84142856Y-76600390D02*
X84180952Y-76638485D01*
X84523809Y-77362295D02*
X84523809Y-76562295D01*
X84980952Y-77362295D02*
X84638094Y-76905152D01*
X84980952Y-76562295D02*
X84523809Y-77019438D01*
X86199999Y-76943247D02*
X85933333Y-76943247D01*
X85933333Y-77362295D02*
X85933333Y-76562295D01*
X85933333Y-76562295D02*
X86314285Y-76562295D01*
X86619047Y-77362295D02*
X86619047Y-76562295D01*
X86885713Y-76562295D02*
X87342856Y-76562295D01*
X87114284Y-77362295D02*
X87114284Y-76562295D01*
X90809524Y-81862295D02*
X90809524Y-81062295D01*
X90809524Y-81062295D02*
X91114286Y-81062295D01*
X91114286Y-81062295D02*
X91190476Y-81100390D01*
X91190476Y-81100390D02*
X91228571Y-81138485D01*
X91228571Y-81138485D02*
X91266667Y-81214676D01*
X91266667Y-81214676D02*
X91266667Y-81328961D01*
X91266667Y-81328961D02*
X91228571Y-81405152D01*
X91228571Y-81405152D02*
X91190476Y-81443247D01*
X91190476Y-81443247D02*
X91114286Y-81481342D01*
X91114286Y-81481342D02*
X90809524Y-81481342D01*
X91495238Y-81062295D02*
X91952381Y-81062295D01*
X91723809Y-81862295D02*
X91723809Y-81062295D01*
X92219048Y-81862295D02*
X92219048Y-81062295D01*
X92219048Y-81443247D02*
X92676191Y-81443247D01*
X92676191Y-81862295D02*
X92676191Y-81062295D01*
X93933333Y-81443247D02*
X93666667Y-81443247D01*
X93666667Y-81862295D02*
X93666667Y-81062295D01*
X93666667Y-81062295D02*
X94047619Y-81062295D01*
X94352381Y-81862295D02*
X94352381Y-81062295D01*
X94733333Y-81862295D02*
X94733333Y-81062295D01*
X94733333Y-81062295D02*
X95190476Y-81862295D01*
X95190476Y-81862295D02*
X95190476Y-81062295D01*
X95571428Y-81862295D02*
X95571428Y-81062295D01*
X95914284Y-81824200D02*
X96028570Y-81862295D01*
X96028570Y-81862295D02*
X96219046Y-81862295D01*
X96219046Y-81862295D02*
X96295237Y-81824200D01*
X96295237Y-81824200D02*
X96333332Y-81786104D01*
X96333332Y-81786104D02*
X96371427Y-81709914D01*
X96371427Y-81709914D02*
X96371427Y-81633723D01*
X96371427Y-81633723D02*
X96333332Y-81557533D01*
X96333332Y-81557533D02*
X96295237Y-81519438D01*
X96295237Y-81519438D02*
X96219046Y-81481342D01*
X96219046Y-81481342D02*
X96066665Y-81443247D01*
X96066665Y-81443247D02*
X95990475Y-81405152D01*
X95990475Y-81405152D02*
X95952380Y-81367057D01*
X95952380Y-81367057D02*
X95914284Y-81290866D01*
X95914284Y-81290866D02*
X95914284Y-81214676D01*
X95914284Y-81214676D02*
X95952380Y-81138485D01*
X95952380Y-81138485D02*
X95990475Y-81100390D01*
X95990475Y-81100390D02*
X96066665Y-81062295D01*
X96066665Y-81062295D02*
X96257142Y-81062295D01*
X96257142Y-81062295D02*
X96371427Y-81100390D01*
X96714285Y-81862295D02*
X96714285Y-81062295D01*
X96714285Y-81443247D02*
X97171428Y-81443247D01*
X97171428Y-81862295D02*
X97171428Y-81062295D01*
X97552380Y-81443247D02*
X97819046Y-81443247D01*
X97933332Y-81862295D02*
X97552380Y-81862295D01*
X97552380Y-81862295D02*
X97552380Y-81062295D01*
X97552380Y-81062295D02*
X97933332Y-81062295D01*
X98276190Y-81862295D02*
X98276190Y-81062295D01*
X98276190Y-81062295D02*
X98466666Y-81062295D01*
X98466666Y-81062295D02*
X98580952Y-81100390D01*
X98580952Y-81100390D02*
X98657142Y-81176580D01*
X98657142Y-81176580D02*
X98695237Y-81252771D01*
X98695237Y-81252771D02*
X98733333Y-81405152D01*
X98733333Y-81405152D02*
X98733333Y-81519438D01*
X98733333Y-81519438D02*
X98695237Y-81671819D01*
X98695237Y-81671819D02*
X98657142Y-81748009D01*
X98657142Y-81748009D02*
X98580952Y-81824200D01*
X98580952Y-81824200D02*
X98466666Y-81862295D01*
X98466666Y-81862295D02*
X98276190Y-81862295D01*
X99076190Y-81557533D02*
X99685714Y-81557533D01*
X100066666Y-81862295D02*
X100066666Y-81062295D01*
X100066666Y-81443247D02*
X100523809Y-81443247D01*
X100523809Y-81862295D02*
X100523809Y-81062295D01*
X101057142Y-81062295D02*
X101209523Y-81062295D01*
X101209523Y-81062295D02*
X101285713Y-81100390D01*
X101285713Y-81100390D02*
X101361904Y-81176580D01*
X101361904Y-81176580D02*
X101399999Y-81328961D01*
X101399999Y-81328961D02*
X101399999Y-81595628D01*
X101399999Y-81595628D02*
X101361904Y-81748009D01*
X101361904Y-81748009D02*
X101285713Y-81824200D01*
X101285713Y-81824200D02*
X101209523Y-81862295D01*
X101209523Y-81862295D02*
X101057142Y-81862295D01*
X101057142Y-81862295D02*
X100980951Y-81824200D01*
X100980951Y-81824200D02*
X100904761Y-81748009D01*
X100904761Y-81748009D02*
X100866665Y-81595628D01*
X100866665Y-81595628D02*
X100866665Y-81328961D01*
X100866665Y-81328961D02*
X100904761Y-81176580D01*
X100904761Y-81176580D02*
X100980951Y-81100390D01*
X100980951Y-81100390D02*
X101057142Y-81062295D01*
X102123808Y-81862295D02*
X101742856Y-81862295D01*
X101742856Y-81862295D02*
X101742856Y-81062295D01*
X102390475Y-81443247D02*
X102657141Y-81443247D01*
X102771427Y-81862295D02*
X102390475Y-81862295D01*
X102390475Y-81862295D02*
X102390475Y-81062295D01*
X102390475Y-81062295D02*
X102771427Y-81062295D01*
X104142856Y-81100390D02*
X104066666Y-81062295D01*
X104066666Y-81062295D02*
X103952380Y-81062295D01*
X103952380Y-81062295D02*
X103838094Y-81100390D01*
X103838094Y-81100390D02*
X103761904Y-81176580D01*
X103761904Y-81176580D02*
X103723809Y-81252771D01*
X103723809Y-81252771D02*
X103685713Y-81405152D01*
X103685713Y-81405152D02*
X103685713Y-81519438D01*
X103685713Y-81519438D02*
X103723809Y-81671819D01*
X103723809Y-81671819D02*
X103761904Y-81748009D01*
X103761904Y-81748009D02*
X103838094Y-81824200D01*
X103838094Y-81824200D02*
X103952380Y-81862295D01*
X103952380Y-81862295D02*
X104028571Y-81862295D01*
X104028571Y-81862295D02*
X104142856Y-81824200D01*
X104142856Y-81824200D02*
X104180952Y-81786104D01*
X104180952Y-81786104D02*
X104180952Y-81519438D01*
X104180952Y-81519438D02*
X104028571Y-81519438D01*
X104485713Y-81633723D02*
X104866666Y-81633723D01*
X104409523Y-81862295D02*
X104676190Y-81062295D01*
X104676190Y-81062295D02*
X104942856Y-81862295D01*
X105209523Y-81062295D02*
X105209523Y-81709914D01*
X105209523Y-81709914D02*
X105247618Y-81786104D01*
X105247618Y-81786104D02*
X105285713Y-81824200D01*
X105285713Y-81824200D02*
X105361904Y-81862295D01*
X105361904Y-81862295D02*
X105514285Y-81862295D01*
X105514285Y-81862295D02*
X105590475Y-81824200D01*
X105590475Y-81824200D02*
X105628570Y-81786104D01*
X105628570Y-81786104D02*
X105666666Y-81709914D01*
X105666666Y-81709914D02*
X105666666Y-81062295D01*
X106466665Y-81100390D02*
X106390475Y-81062295D01*
X106390475Y-81062295D02*
X106276189Y-81062295D01*
X106276189Y-81062295D02*
X106161903Y-81100390D01*
X106161903Y-81100390D02*
X106085713Y-81176580D01*
X106085713Y-81176580D02*
X106047618Y-81252771D01*
X106047618Y-81252771D02*
X106009522Y-81405152D01*
X106009522Y-81405152D02*
X106009522Y-81519438D01*
X106009522Y-81519438D02*
X106047618Y-81671819D01*
X106047618Y-81671819D02*
X106085713Y-81748009D01*
X106085713Y-81748009D02*
X106161903Y-81824200D01*
X106161903Y-81824200D02*
X106276189Y-81862295D01*
X106276189Y-81862295D02*
X106352380Y-81862295D01*
X106352380Y-81862295D02*
X106466665Y-81824200D01*
X106466665Y-81824200D02*
X106504761Y-81786104D01*
X106504761Y-81786104D02*
X106504761Y-81519438D01*
X106504761Y-81519438D02*
X106352380Y-81519438D01*
X106847618Y-81443247D02*
X107114284Y-81443247D01*
X107228570Y-81862295D02*
X106847618Y-81862295D01*
X106847618Y-81862295D02*
X106847618Y-81062295D01*
X106847618Y-81062295D02*
X107228570Y-81062295D01*
X53123808Y-97133723D02*
X53504761Y-97133723D01*
X53047618Y-97362295D02*
X53314285Y-96562295D01*
X53314285Y-96562295D02*
X53580951Y-97362295D01*
X53809522Y-97324200D02*
X53923808Y-97362295D01*
X53923808Y-97362295D02*
X54114284Y-97362295D01*
X54114284Y-97362295D02*
X54190475Y-97324200D01*
X54190475Y-97324200D02*
X54228570Y-97286104D01*
X54228570Y-97286104D02*
X54266665Y-97209914D01*
X54266665Y-97209914D02*
X54266665Y-97133723D01*
X54266665Y-97133723D02*
X54228570Y-97057533D01*
X54228570Y-97057533D02*
X54190475Y-97019438D01*
X54190475Y-97019438D02*
X54114284Y-96981342D01*
X54114284Y-96981342D02*
X53961903Y-96943247D01*
X53961903Y-96943247D02*
X53885713Y-96905152D01*
X53885713Y-96905152D02*
X53847618Y-96867057D01*
X53847618Y-96867057D02*
X53809522Y-96790866D01*
X53809522Y-96790866D02*
X53809522Y-96714676D01*
X53809522Y-96714676D02*
X53847618Y-96638485D01*
X53847618Y-96638485D02*
X53885713Y-96600390D01*
X53885713Y-96600390D02*
X53961903Y-96562295D01*
X53961903Y-96562295D02*
X54152380Y-96562295D01*
X54152380Y-96562295D02*
X54266665Y-96600390D01*
X54571427Y-97324200D02*
X54685713Y-97362295D01*
X54685713Y-97362295D02*
X54876189Y-97362295D01*
X54876189Y-97362295D02*
X54952380Y-97324200D01*
X54952380Y-97324200D02*
X54990475Y-97286104D01*
X54990475Y-97286104D02*
X55028570Y-97209914D01*
X55028570Y-97209914D02*
X55028570Y-97133723D01*
X55028570Y-97133723D02*
X54990475Y-97057533D01*
X54990475Y-97057533D02*
X54952380Y-97019438D01*
X54952380Y-97019438D02*
X54876189Y-96981342D01*
X54876189Y-96981342D02*
X54723808Y-96943247D01*
X54723808Y-96943247D02*
X54647618Y-96905152D01*
X54647618Y-96905152D02*
X54609523Y-96867057D01*
X54609523Y-96867057D02*
X54571427Y-96790866D01*
X54571427Y-96790866D02*
X54571427Y-96714676D01*
X54571427Y-96714676D02*
X54609523Y-96638485D01*
X54609523Y-96638485D02*
X54647618Y-96600390D01*
X54647618Y-96600390D02*
X54723808Y-96562295D01*
X54723808Y-96562295D02*
X54914285Y-96562295D01*
X54914285Y-96562295D02*
X55028570Y-96600390D01*
X55371428Y-96943247D02*
X55638094Y-96943247D01*
X55752380Y-97362295D02*
X55371428Y-97362295D01*
X55371428Y-97362295D02*
X55371428Y-96562295D01*
X55371428Y-96562295D02*
X55752380Y-96562295D01*
X56095238Y-97362295D02*
X56095238Y-96562295D01*
X56095238Y-96562295D02*
X56361904Y-97133723D01*
X56361904Y-97133723D02*
X56628571Y-96562295D01*
X56628571Y-96562295D02*
X56628571Y-97362295D01*
X57276190Y-96943247D02*
X57390476Y-96981342D01*
X57390476Y-96981342D02*
X57428571Y-97019438D01*
X57428571Y-97019438D02*
X57466667Y-97095628D01*
X57466667Y-97095628D02*
X57466667Y-97209914D01*
X57466667Y-97209914D02*
X57428571Y-97286104D01*
X57428571Y-97286104D02*
X57390476Y-97324200D01*
X57390476Y-97324200D02*
X57314286Y-97362295D01*
X57314286Y-97362295D02*
X57009524Y-97362295D01*
X57009524Y-97362295D02*
X57009524Y-96562295D01*
X57009524Y-96562295D02*
X57276190Y-96562295D01*
X57276190Y-96562295D02*
X57352381Y-96600390D01*
X57352381Y-96600390D02*
X57390476Y-96638485D01*
X57390476Y-96638485D02*
X57428571Y-96714676D01*
X57428571Y-96714676D02*
X57428571Y-96790866D01*
X57428571Y-96790866D02*
X57390476Y-96867057D01*
X57390476Y-96867057D02*
X57352381Y-96905152D01*
X57352381Y-96905152D02*
X57276190Y-96943247D01*
X57276190Y-96943247D02*
X57009524Y-96943247D01*
X58190476Y-97362295D02*
X57809524Y-97362295D01*
X57809524Y-97362295D02*
X57809524Y-96562295D01*
X58457143Y-96943247D02*
X58723809Y-96943247D01*
X58838095Y-97362295D02*
X58457143Y-97362295D01*
X58457143Y-97362295D02*
X58457143Y-96562295D01*
X58457143Y-96562295D02*
X58838095Y-96562295D01*
X59714286Y-96562295D02*
X60209524Y-96562295D01*
X60209524Y-96562295D02*
X59942858Y-96867057D01*
X59942858Y-96867057D02*
X60057143Y-96867057D01*
X60057143Y-96867057D02*
X60133334Y-96905152D01*
X60133334Y-96905152D02*
X60171429Y-96943247D01*
X60171429Y-96943247D02*
X60209524Y-97019438D01*
X60209524Y-97019438D02*
X60209524Y-97209914D01*
X60209524Y-97209914D02*
X60171429Y-97286104D01*
X60171429Y-97286104D02*
X60133334Y-97324200D01*
X60133334Y-97324200D02*
X60057143Y-97362295D01*
X60057143Y-97362295D02*
X59828572Y-97362295D01*
X59828572Y-97362295D02*
X59752381Y-97324200D01*
X59752381Y-97324200D02*
X59714286Y-97286104D01*
X61428572Y-96943247D02*
X61542858Y-96981342D01*
X61542858Y-96981342D02*
X61580953Y-97019438D01*
X61580953Y-97019438D02*
X61619049Y-97095628D01*
X61619049Y-97095628D02*
X61619049Y-97209914D01*
X61619049Y-97209914D02*
X61580953Y-97286104D01*
X61580953Y-97286104D02*
X61542858Y-97324200D01*
X61542858Y-97324200D02*
X61466668Y-97362295D01*
X61466668Y-97362295D02*
X61161906Y-97362295D01*
X61161906Y-97362295D02*
X61161906Y-96562295D01*
X61161906Y-96562295D02*
X61428572Y-96562295D01*
X61428572Y-96562295D02*
X61504763Y-96600390D01*
X61504763Y-96600390D02*
X61542858Y-96638485D01*
X61542858Y-96638485D02*
X61580953Y-96714676D01*
X61580953Y-96714676D02*
X61580953Y-96790866D01*
X61580953Y-96790866D02*
X61542858Y-96867057D01*
X61542858Y-96867057D02*
X61504763Y-96905152D01*
X61504763Y-96905152D02*
X61428572Y-96943247D01*
X61428572Y-96943247D02*
X61161906Y-96943247D01*
X62114287Y-96562295D02*
X62266668Y-96562295D01*
X62266668Y-96562295D02*
X62342858Y-96600390D01*
X62342858Y-96600390D02*
X62419049Y-96676580D01*
X62419049Y-96676580D02*
X62457144Y-96828961D01*
X62457144Y-96828961D02*
X62457144Y-97095628D01*
X62457144Y-97095628D02*
X62419049Y-97248009D01*
X62419049Y-97248009D02*
X62342858Y-97324200D01*
X62342858Y-97324200D02*
X62266668Y-97362295D01*
X62266668Y-97362295D02*
X62114287Y-97362295D01*
X62114287Y-97362295D02*
X62038096Y-97324200D01*
X62038096Y-97324200D02*
X61961906Y-97248009D01*
X61961906Y-97248009D02*
X61923810Y-97095628D01*
X61923810Y-97095628D02*
X61923810Y-96828961D01*
X61923810Y-96828961D02*
X61961906Y-96676580D01*
X61961906Y-96676580D02*
X62038096Y-96600390D01*
X62038096Y-96600390D02*
X62114287Y-96562295D01*
X62761905Y-97133723D02*
X63142858Y-97133723D01*
X62685715Y-97362295D02*
X62952382Y-96562295D01*
X62952382Y-96562295D02*
X63219048Y-97362295D01*
X63942858Y-97362295D02*
X63676191Y-96981342D01*
X63485715Y-97362295D02*
X63485715Y-96562295D01*
X63485715Y-96562295D02*
X63790477Y-96562295D01*
X63790477Y-96562295D02*
X63866667Y-96600390D01*
X63866667Y-96600390D02*
X63904762Y-96638485D01*
X63904762Y-96638485D02*
X63942858Y-96714676D01*
X63942858Y-96714676D02*
X63942858Y-96828961D01*
X63942858Y-96828961D02*
X63904762Y-96905152D01*
X63904762Y-96905152D02*
X63866667Y-96943247D01*
X63866667Y-96943247D02*
X63790477Y-96981342D01*
X63790477Y-96981342D02*
X63485715Y-96981342D01*
X64285715Y-97362295D02*
X64285715Y-96562295D01*
X64285715Y-96562295D02*
X64476191Y-96562295D01*
X64476191Y-96562295D02*
X64590477Y-96600390D01*
X64590477Y-96600390D02*
X64666667Y-96676580D01*
X64666667Y-96676580D02*
X64704762Y-96752771D01*
X64704762Y-96752771D02*
X64742858Y-96905152D01*
X64742858Y-96905152D02*
X64742858Y-97019438D01*
X64742858Y-97019438D02*
X64704762Y-97171819D01*
X64704762Y-97171819D02*
X64666667Y-97248009D01*
X64666667Y-97248009D02*
X64590477Y-97324200D01*
X64590477Y-97324200D02*
X64476191Y-97362295D01*
X64476191Y-97362295D02*
X64285715Y-97362295D01*
X65047619Y-97324200D02*
X65161905Y-97362295D01*
X65161905Y-97362295D02*
X65352381Y-97362295D01*
X65352381Y-97362295D02*
X65428572Y-97324200D01*
X65428572Y-97324200D02*
X65466667Y-97286104D01*
X65466667Y-97286104D02*
X65504762Y-97209914D01*
X65504762Y-97209914D02*
X65504762Y-97133723D01*
X65504762Y-97133723D02*
X65466667Y-97057533D01*
X65466667Y-97057533D02*
X65428572Y-97019438D01*
X65428572Y-97019438D02*
X65352381Y-96981342D01*
X65352381Y-96981342D02*
X65200000Y-96943247D01*
X65200000Y-96943247D02*
X65123810Y-96905152D01*
X65123810Y-96905152D02*
X65085715Y-96867057D01*
X65085715Y-96867057D02*
X65047619Y-96790866D01*
X65047619Y-96790866D02*
X65047619Y-96714676D01*
X65047619Y-96714676D02*
X65085715Y-96638485D01*
X65085715Y-96638485D02*
X65123810Y-96600390D01*
X65123810Y-96600390D02*
X65200000Y-96562295D01*
X65200000Y-96562295D02*
X65390477Y-96562295D01*
X65390477Y-96562295D02*
X65504762Y-96600390D01*
X66457144Y-97362295D02*
X66457144Y-96562295D01*
X66457144Y-96562295D02*
X66723810Y-97133723D01*
X66723810Y-97133723D02*
X66990477Y-96562295D01*
X66990477Y-96562295D02*
X66990477Y-97362295D01*
X67371430Y-97362295D02*
X67371430Y-96562295D01*
X67752382Y-97362295D02*
X67752382Y-96562295D01*
X67752382Y-96562295D02*
X68209525Y-97362295D01*
X68209525Y-97362295D02*
X68209525Y-96562295D01*
X68590477Y-97362295D02*
X68590477Y-96562295D01*
X68971429Y-97362295D02*
X68971429Y-96562295D01*
X68971429Y-96562295D02*
X69238095Y-97133723D01*
X69238095Y-97133723D02*
X69504762Y-96562295D01*
X69504762Y-96562295D02*
X69504762Y-97362295D01*
X69885715Y-96562295D02*
X69885715Y-97209914D01*
X69885715Y-97209914D02*
X69923810Y-97286104D01*
X69923810Y-97286104D02*
X69961905Y-97324200D01*
X69961905Y-97324200D02*
X70038096Y-97362295D01*
X70038096Y-97362295D02*
X70190477Y-97362295D01*
X70190477Y-97362295D02*
X70266667Y-97324200D01*
X70266667Y-97324200D02*
X70304762Y-97286104D01*
X70304762Y-97286104D02*
X70342858Y-97209914D01*
X70342858Y-97209914D02*
X70342858Y-96562295D01*
X70723810Y-97362295D02*
X70723810Y-96562295D01*
X70723810Y-96562295D02*
X70990476Y-97133723D01*
X70990476Y-97133723D02*
X71257143Y-96562295D01*
X71257143Y-96562295D02*
X71257143Y-97362295D01*
X72247620Y-97057533D02*
X72857144Y-97057533D01*
X73771429Y-96562295D02*
X74304763Y-97362295D01*
X74304763Y-96562295D02*
X73771429Y-97362295D01*
X74609525Y-97057533D02*
X75219049Y-97057533D01*
X76057144Y-97362295D02*
X75790477Y-96981342D01*
X75600001Y-97362295D02*
X75600001Y-96562295D01*
X75600001Y-96562295D02*
X75904763Y-96562295D01*
X75904763Y-96562295D02*
X75980953Y-96600390D01*
X75980953Y-96600390D02*
X76019048Y-96638485D01*
X76019048Y-96638485D02*
X76057144Y-96714676D01*
X76057144Y-96714676D02*
X76057144Y-96828961D01*
X76057144Y-96828961D02*
X76019048Y-96905152D01*
X76019048Y-96905152D02*
X75980953Y-96943247D01*
X75980953Y-96943247D02*
X75904763Y-96981342D01*
X75904763Y-96981342D02*
X75600001Y-96981342D01*
X76361905Y-97133723D02*
X76742858Y-97133723D01*
X76285715Y-97362295D02*
X76552382Y-96562295D01*
X76552382Y-96562295D02*
X76819048Y-97362295D01*
X77238096Y-96981342D02*
X77238096Y-97362295D01*
X76971429Y-96562295D02*
X77238096Y-96981342D01*
X77238096Y-96981342D02*
X77504762Y-96562295D01*
X78342857Y-97133723D02*
X78723810Y-97133723D01*
X78266667Y-97362295D02*
X78533334Y-96562295D01*
X78533334Y-96562295D02*
X78800000Y-97362295D01*
X79447619Y-97362295D02*
X79066667Y-97362295D01*
X79066667Y-97362295D02*
X79066667Y-96562295D01*
X80095238Y-97362295D02*
X79714286Y-97362295D01*
X79714286Y-97362295D02*
X79714286Y-96562295D01*
X80933333Y-97133723D02*
X81314286Y-97133723D01*
X80857143Y-97362295D02*
X81123810Y-96562295D01*
X81123810Y-96562295D02*
X81390476Y-97362295D01*
X81657143Y-97362295D02*
X81657143Y-96562295D01*
X82114286Y-97362295D02*
X81771428Y-96905152D01*
X82114286Y-96562295D02*
X81657143Y-97019438D01*
X82457143Y-97362295D02*
X82457143Y-96562295D01*
X82457143Y-96562295D02*
X82723809Y-97133723D01*
X82723809Y-97133723D02*
X82990476Y-96562295D01*
X82990476Y-96562295D02*
X82990476Y-97362295D01*
X83942857Y-97324200D02*
X84057143Y-97362295D01*
X84057143Y-97362295D02*
X84247619Y-97362295D01*
X84247619Y-97362295D02*
X84323810Y-97324200D01*
X84323810Y-97324200D02*
X84361905Y-97286104D01*
X84361905Y-97286104D02*
X84400000Y-97209914D01*
X84400000Y-97209914D02*
X84400000Y-97133723D01*
X84400000Y-97133723D02*
X84361905Y-97057533D01*
X84361905Y-97057533D02*
X84323810Y-97019438D01*
X84323810Y-97019438D02*
X84247619Y-96981342D01*
X84247619Y-96981342D02*
X84095238Y-96943247D01*
X84095238Y-96943247D02*
X84019048Y-96905152D01*
X84019048Y-96905152D02*
X83980953Y-96867057D01*
X83980953Y-96867057D02*
X83942857Y-96790866D01*
X83942857Y-96790866D02*
X83942857Y-96714676D01*
X83942857Y-96714676D02*
X83980953Y-96638485D01*
X83980953Y-96638485D02*
X84019048Y-96600390D01*
X84019048Y-96600390D02*
X84095238Y-96562295D01*
X84095238Y-96562295D02*
X84285715Y-96562295D01*
X84285715Y-96562295D02*
X84400000Y-96600390D01*
X84742858Y-97362295D02*
X84742858Y-96562295D01*
X85009524Y-96562295D02*
X85466667Y-96562295D01*
X85238095Y-97362295D02*
X85238095Y-96562295D01*
X85733334Y-96943247D02*
X86000000Y-96943247D01*
X86114286Y-97362295D02*
X85733334Y-97362295D01*
X85733334Y-97362295D02*
X85733334Y-96562295D01*
X85733334Y-96562295D02*
X86114286Y-96562295D01*
X86419048Y-97324200D02*
X86533334Y-97362295D01*
X86533334Y-97362295D02*
X86723810Y-97362295D01*
X86723810Y-97362295D02*
X86800001Y-97324200D01*
X86800001Y-97324200D02*
X86838096Y-97286104D01*
X86838096Y-97286104D02*
X86876191Y-97209914D01*
X86876191Y-97209914D02*
X86876191Y-97133723D01*
X86876191Y-97133723D02*
X86838096Y-97057533D01*
X86838096Y-97057533D02*
X86800001Y-97019438D01*
X86800001Y-97019438D02*
X86723810Y-96981342D01*
X86723810Y-96981342D02*
X86571429Y-96943247D01*
X86571429Y-96943247D02*
X86495239Y-96905152D01*
X86495239Y-96905152D02*
X86457144Y-96867057D01*
X86457144Y-96867057D02*
X86419048Y-96790866D01*
X86419048Y-96790866D02*
X86419048Y-96714676D01*
X86419048Y-96714676D02*
X86457144Y-96638485D01*
X86457144Y-96638485D02*
X86495239Y-96600390D01*
X86495239Y-96600390D02*
X86571429Y-96562295D01*
X86571429Y-96562295D02*
X86761906Y-96562295D01*
X86761906Y-96562295D02*
X86876191Y-96600390D01*
X40285714Y-36624819D02*
X40285714Y-37434342D01*
X40285714Y-37434342D02*
X40333333Y-37529580D01*
X40333333Y-37529580D02*
X40380952Y-37577200D01*
X40380952Y-37577200D02*
X40476190Y-37624819D01*
X40476190Y-37624819D02*
X40666666Y-37624819D01*
X40666666Y-37624819D02*
X40761904Y-37577200D01*
X40761904Y-37577200D02*
X40809523Y-37529580D01*
X40809523Y-37529580D02*
X40857142Y-37434342D01*
X40857142Y-37434342D02*
X40857142Y-36624819D01*
X41857142Y-37624819D02*
X41285714Y-37624819D01*
X41571428Y-37624819D02*
X41571428Y-36624819D01*
X41571428Y-36624819D02*
X41476190Y-36767676D01*
X41476190Y-36767676D02*
X41380952Y-36862914D01*
X41380952Y-36862914D02*
X41285714Y-36910533D01*
X42476190Y-36624819D02*
X42571428Y-36624819D01*
X42571428Y-36624819D02*
X42666666Y-36672438D01*
X42666666Y-36672438D02*
X42714285Y-36720057D01*
X42714285Y-36720057D02*
X42761904Y-36815295D01*
X42761904Y-36815295D02*
X42809523Y-37005771D01*
X42809523Y-37005771D02*
X42809523Y-37243866D01*
X42809523Y-37243866D02*
X42761904Y-37434342D01*
X42761904Y-37434342D02*
X42714285Y-37529580D01*
X42714285Y-37529580D02*
X42666666Y-37577200D01*
X42666666Y-37577200D02*
X42571428Y-37624819D01*
X42571428Y-37624819D02*
X42476190Y-37624819D01*
X42476190Y-37624819D02*
X42380952Y-37577200D01*
X42380952Y-37577200D02*
X42333333Y-37529580D01*
X42333333Y-37529580D02*
X42285714Y-37434342D01*
X42285714Y-37434342D02*
X42238095Y-37243866D01*
X42238095Y-37243866D02*
X42238095Y-37005771D01*
X42238095Y-37005771D02*
X42285714Y-36815295D01*
X42285714Y-36815295D02*
X42333333Y-36720057D01*
X42333333Y-36720057D02*
X42380952Y-36672438D01*
X42380952Y-36672438D02*
X42476190Y-36624819D01*
X43761904Y-37624819D02*
X43190476Y-37624819D01*
X43476190Y-37624819D02*
X43476190Y-36624819D01*
X43476190Y-36624819D02*
X43380952Y-36767676D01*
X43380952Y-36767676D02*
X43285714Y-36862914D01*
X43285714Y-36862914D02*
X43190476Y-36910533D01*
X68285714Y-36624819D02*
X68285714Y-37434342D01*
X68285714Y-37434342D02*
X68333333Y-37529580D01*
X68333333Y-37529580D02*
X68380952Y-37577200D01*
X68380952Y-37577200D02*
X68476190Y-37624819D01*
X68476190Y-37624819D02*
X68666666Y-37624819D01*
X68666666Y-37624819D02*
X68761904Y-37577200D01*
X68761904Y-37577200D02*
X68809523Y-37529580D01*
X68809523Y-37529580D02*
X68857142Y-37434342D01*
X68857142Y-37434342D02*
X68857142Y-36624819D01*
X69857142Y-37624819D02*
X69285714Y-37624819D01*
X69571428Y-37624819D02*
X69571428Y-36624819D01*
X69571428Y-36624819D02*
X69476190Y-36767676D01*
X69476190Y-36767676D02*
X69380952Y-36862914D01*
X69380952Y-36862914D02*
X69285714Y-36910533D01*
X70476190Y-36624819D02*
X70571428Y-36624819D01*
X70571428Y-36624819D02*
X70666666Y-36672438D01*
X70666666Y-36672438D02*
X70714285Y-36720057D01*
X70714285Y-36720057D02*
X70761904Y-36815295D01*
X70761904Y-36815295D02*
X70809523Y-37005771D01*
X70809523Y-37005771D02*
X70809523Y-37243866D01*
X70809523Y-37243866D02*
X70761904Y-37434342D01*
X70761904Y-37434342D02*
X70714285Y-37529580D01*
X70714285Y-37529580D02*
X70666666Y-37577200D01*
X70666666Y-37577200D02*
X70571428Y-37624819D01*
X70571428Y-37624819D02*
X70476190Y-37624819D01*
X70476190Y-37624819D02*
X70380952Y-37577200D01*
X70380952Y-37577200D02*
X70333333Y-37529580D01*
X70333333Y-37529580D02*
X70285714Y-37434342D01*
X70285714Y-37434342D02*
X70238095Y-37243866D01*
X70238095Y-37243866D02*
X70238095Y-37005771D01*
X70238095Y-37005771D02*
X70285714Y-36815295D01*
X70285714Y-36815295D02*
X70333333Y-36720057D01*
X70333333Y-36720057D02*
X70380952Y-36672438D01*
X70380952Y-36672438D02*
X70476190Y-36624819D01*
X71190476Y-36720057D02*
X71238095Y-36672438D01*
X71238095Y-36672438D02*
X71333333Y-36624819D01*
X71333333Y-36624819D02*
X71571428Y-36624819D01*
X71571428Y-36624819D02*
X71666666Y-36672438D01*
X71666666Y-36672438D02*
X71714285Y-36720057D01*
X71714285Y-36720057D02*
X71761904Y-36815295D01*
X71761904Y-36815295D02*
X71761904Y-36910533D01*
X71761904Y-36910533D02*
X71714285Y-37053390D01*
X71714285Y-37053390D02*
X71142857Y-37624819D01*
X71142857Y-37624819D02*
X71761904Y-37624819D01*
X96285714Y-36624819D02*
X96285714Y-37434342D01*
X96285714Y-37434342D02*
X96333333Y-37529580D01*
X96333333Y-37529580D02*
X96380952Y-37577200D01*
X96380952Y-37577200D02*
X96476190Y-37624819D01*
X96476190Y-37624819D02*
X96666666Y-37624819D01*
X96666666Y-37624819D02*
X96761904Y-37577200D01*
X96761904Y-37577200D02*
X96809523Y-37529580D01*
X96809523Y-37529580D02*
X96857142Y-37434342D01*
X96857142Y-37434342D02*
X96857142Y-36624819D01*
X97857142Y-37624819D02*
X97285714Y-37624819D01*
X97571428Y-37624819D02*
X97571428Y-36624819D01*
X97571428Y-36624819D02*
X97476190Y-36767676D01*
X97476190Y-36767676D02*
X97380952Y-36862914D01*
X97380952Y-36862914D02*
X97285714Y-36910533D01*
X98476190Y-36624819D02*
X98571428Y-36624819D01*
X98571428Y-36624819D02*
X98666666Y-36672438D01*
X98666666Y-36672438D02*
X98714285Y-36720057D01*
X98714285Y-36720057D02*
X98761904Y-36815295D01*
X98761904Y-36815295D02*
X98809523Y-37005771D01*
X98809523Y-37005771D02*
X98809523Y-37243866D01*
X98809523Y-37243866D02*
X98761904Y-37434342D01*
X98761904Y-37434342D02*
X98714285Y-37529580D01*
X98714285Y-37529580D02*
X98666666Y-37577200D01*
X98666666Y-37577200D02*
X98571428Y-37624819D01*
X98571428Y-37624819D02*
X98476190Y-37624819D01*
X98476190Y-37624819D02*
X98380952Y-37577200D01*
X98380952Y-37577200D02*
X98333333Y-37529580D01*
X98333333Y-37529580D02*
X98285714Y-37434342D01*
X98285714Y-37434342D02*
X98238095Y-37243866D01*
X98238095Y-37243866D02*
X98238095Y-37005771D01*
X98238095Y-37005771D02*
X98285714Y-36815295D01*
X98285714Y-36815295D02*
X98333333Y-36720057D01*
X98333333Y-36720057D02*
X98380952Y-36672438D01*
X98380952Y-36672438D02*
X98476190Y-36624819D01*
X99142857Y-36624819D02*
X99761904Y-36624819D01*
X99761904Y-36624819D02*
X99428571Y-37005771D01*
X99428571Y-37005771D02*
X99571428Y-37005771D01*
X99571428Y-37005771D02*
X99666666Y-37053390D01*
X99666666Y-37053390D02*
X99714285Y-37101009D01*
X99714285Y-37101009D02*
X99761904Y-37196247D01*
X99761904Y-37196247D02*
X99761904Y-37434342D01*
X99761904Y-37434342D02*
X99714285Y-37529580D01*
X99714285Y-37529580D02*
X99666666Y-37577200D01*
X99666666Y-37577200D02*
X99571428Y-37624819D01*
X99571428Y-37624819D02*
X99285714Y-37624819D01*
X99285714Y-37624819D02*
X99190476Y-37577200D01*
X99190476Y-37577200D02*
X99142857Y-37529580D01*
X40285714Y-63624819D02*
X40285714Y-64434342D01*
X40285714Y-64434342D02*
X40333333Y-64529580D01*
X40333333Y-64529580D02*
X40380952Y-64577200D01*
X40380952Y-64577200D02*
X40476190Y-64624819D01*
X40476190Y-64624819D02*
X40666666Y-64624819D01*
X40666666Y-64624819D02*
X40761904Y-64577200D01*
X40761904Y-64577200D02*
X40809523Y-64529580D01*
X40809523Y-64529580D02*
X40857142Y-64434342D01*
X40857142Y-64434342D02*
X40857142Y-63624819D01*
X41285714Y-63720057D02*
X41333333Y-63672438D01*
X41333333Y-63672438D02*
X41428571Y-63624819D01*
X41428571Y-63624819D02*
X41666666Y-63624819D01*
X41666666Y-63624819D02*
X41761904Y-63672438D01*
X41761904Y-63672438D02*
X41809523Y-63720057D01*
X41809523Y-63720057D02*
X41857142Y-63815295D01*
X41857142Y-63815295D02*
X41857142Y-63910533D01*
X41857142Y-63910533D02*
X41809523Y-64053390D01*
X41809523Y-64053390D02*
X41238095Y-64624819D01*
X41238095Y-64624819D02*
X41857142Y-64624819D01*
X42476190Y-63624819D02*
X42571428Y-63624819D01*
X42571428Y-63624819D02*
X42666666Y-63672438D01*
X42666666Y-63672438D02*
X42714285Y-63720057D01*
X42714285Y-63720057D02*
X42761904Y-63815295D01*
X42761904Y-63815295D02*
X42809523Y-64005771D01*
X42809523Y-64005771D02*
X42809523Y-64243866D01*
X42809523Y-64243866D02*
X42761904Y-64434342D01*
X42761904Y-64434342D02*
X42714285Y-64529580D01*
X42714285Y-64529580D02*
X42666666Y-64577200D01*
X42666666Y-64577200D02*
X42571428Y-64624819D01*
X42571428Y-64624819D02*
X42476190Y-64624819D01*
X42476190Y-64624819D02*
X42380952Y-64577200D01*
X42380952Y-64577200D02*
X42333333Y-64529580D01*
X42333333Y-64529580D02*
X42285714Y-64434342D01*
X42285714Y-64434342D02*
X42238095Y-64243866D01*
X42238095Y-64243866D02*
X42238095Y-64005771D01*
X42238095Y-64005771D02*
X42285714Y-63815295D01*
X42285714Y-63815295D02*
X42333333Y-63720057D01*
X42333333Y-63720057D02*
X42380952Y-63672438D01*
X42380952Y-63672438D02*
X42476190Y-63624819D01*
X43761904Y-64624819D02*
X43190476Y-64624819D01*
X43476190Y-64624819D02*
X43476190Y-63624819D01*
X43476190Y-63624819D02*
X43380952Y-63767676D01*
X43380952Y-63767676D02*
X43285714Y-63862914D01*
X43285714Y-63862914D02*
X43190476Y-63910533D01*
X68285714Y-63624819D02*
X68285714Y-64434342D01*
X68285714Y-64434342D02*
X68333333Y-64529580D01*
X68333333Y-64529580D02*
X68380952Y-64577200D01*
X68380952Y-64577200D02*
X68476190Y-64624819D01*
X68476190Y-64624819D02*
X68666666Y-64624819D01*
X68666666Y-64624819D02*
X68761904Y-64577200D01*
X68761904Y-64577200D02*
X68809523Y-64529580D01*
X68809523Y-64529580D02*
X68857142Y-64434342D01*
X68857142Y-64434342D02*
X68857142Y-63624819D01*
X69285714Y-63720057D02*
X69333333Y-63672438D01*
X69333333Y-63672438D02*
X69428571Y-63624819D01*
X69428571Y-63624819D02*
X69666666Y-63624819D01*
X69666666Y-63624819D02*
X69761904Y-63672438D01*
X69761904Y-63672438D02*
X69809523Y-63720057D01*
X69809523Y-63720057D02*
X69857142Y-63815295D01*
X69857142Y-63815295D02*
X69857142Y-63910533D01*
X69857142Y-63910533D02*
X69809523Y-64053390D01*
X69809523Y-64053390D02*
X69238095Y-64624819D01*
X69238095Y-64624819D02*
X69857142Y-64624819D01*
X70476190Y-63624819D02*
X70571428Y-63624819D01*
X70571428Y-63624819D02*
X70666666Y-63672438D01*
X70666666Y-63672438D02*
X70714285Y-63720057D01*
X70714285Y-63720057D02*
X70761904Y-63815295D01*
X70761904Y-63815295D02*
X70809523Y-64005771D01*
X70809523Y-64005771D02*
X70809523Y-64243866D01*
X70809523Y-64243866D02*
X70761904Y-64434342D01*
X70761904Y-64434342D02*
X70714285Y-64529580D01*
X70714285Y-64529580D02*
X70666666Y-64577200D01*
X70666666Y-64577200D02*
X70571428Y-64624819D01*
X70571428Y-64624819D02*
X70476190Y-64624819D01*
X70476190Y-64624819D02*
X70380952Y-64577200D01*
X70380952Y-64577200D02*
X70333333Y-64529580D01*
X70333333Y-64529580D02*
X70285714Y-64434342D01*
X70285714Y-64434342D02*
X70238095Y-64243866D01*
X70238095Y-64243866D02*
X70238095Y-64005771D01*
X70238095Y-64005771D02*
X70285714Y-63815295D01*
X70285714Y-63815295D02*
X70333333Y-63720057D01*
X70333333Y-63720057D02*
X70380952Y-63672438D01*
X70380952Y-63672438D02*
X70476190Y-63624819D01*
X71190476Y-63720057D02*
X71238095Y-63672438D01*
X71238095Y-63672438D02*
X71333333Y-63624819D01*
X71333333Y-63624819D02*
X71571428Y-63624819D01*
X71571428Y-63624819D02*
X71666666Y-63672438D01*
X71666666Y-63672438D02*
X71714285Y-63720057D01*
X71714285Y-63720057D02*
X71761904Y-63815295D01*
X71761904Y-63815295D02*
X71761904Y-63910533D01*
X71761904Y-63910533D02*
X71714285Y-64053390D01*
X71714285Y-64053390D02*
X71142857Y-64624819D01*
X71142857Y-64624819D02*
X71761904Y-64624819D01*
X96285714Y-63624819D02*
X96285714Y-64434342D01*
X96285714Y-64434342D02*
X96333333Y-64529580D01*
X96333333Y-64529580D02*
X96380952Y-64577200D01*
X96380952Y-64577200D02*
X96476190Y-64624819D01*
X96476190Y-64624819D02*
X96666666Y-64624819D01*
X96666666Y-64624819D02*
X96761904Y-64577200D01*
X96761904Y-64577200D02*
X96809523Y-64529580D01*
X96809523Y-64529580D02*
X96857142Y-64434342D01*
X96857142Y-64434342D02*
X96857142Y-63624819D01*
X97285714Y-63720057D02*
X97333333Y-63672438D01*
X97333333Y-63672438D02*
X97428571Y-63624819D01*
X97428571Y-63624819D02*
X97666666Y-63624819D01*
X97666666Y-63624819D02*
X97761904Y-63672438D01*
X97761904Y-63672438D02*
X97809523Y-63720057D01*
X97809523Y-63720057D02*
X97857142Y-63815295D01*
X97857142Y-63815295D02*
X97857142Y-63910533D01*
X97857142Y-63910533D02*
X97809523Y-64053390D01*
X97809523Y-64053390D02*
X97238095Y-64624819D01*
X97238095Y-64624819D02*
X97857142Y-64624819D01*
X98476190Y-63624819D02*
X98571428Y-63624819D01*
X98571428Y-63624819D02*
X98666666Y-63672438D01*
X98666666Y-63672438D02*
X98714285Y-63720057D01*
X98714285Y-63720057D02*
X98761904Y-63815295D01*
X98761904Y-63815295D02*
X98809523Y-64005771D01*
X98809523Y-64005771D02*
X98809523Y-64243866D01*
X98809523Y-64243866D02*
X98761904Y-64434342D01*
X98761904Y-64434342D02*
X98714285Y-64529580D01*
X98714285Y-64529580D02*
X98666666Y-64577200D01*
X98666666Y-64577200D02*
X98571428Y-64624819D01*
X98571428Y-64624819D02*
X98476190Y-64624819D01*
X98476190Y-64624819D02*
X98380952Y-64577200D01*
X98380952Y-64577200D02*
X98333333Y-64529580D01*
X98333333Y-64529580D02*
X98285714Y-64434342D01*
X98285714Y-64434342D02*
X98238095Y-64243866D01*
X98238095Y-64243866D02*
X98238095Y-64005771D01*
X98238095Y-64005771D02*
X98285714Y-63815295D01*
X98285714Y-63815295D02*
X98333333Y-63720057D01*
X98333333Y-63720057D02*
X98380952Y-63672438D01*
X98380952Y-63672438D02*
X98476190Y-63624819D01*
X99142857Y-63624819D02*
X99761904Y-63624819D01*
X99761904Y-63624819D02*
X99428571Y-64005771D01*
X99428571Y-64005771D02*
X99571428Y-64005771D01*
X99571428Y-64005771D02*
X99666666Y-64053390D01*
X99666666Y-64053390D02*
X99714285Y-64101009D01*
X99714285Y-64101009D02*
X99761904Y-64196247D01*
X99761904Y-64196247D02*
X99761904Y-64434342D01*
X99761904Y-64434342D02*
X99714285Y-64529580D01*
X99714285Y-64529580D02*
X99666666Y-64577200D01*
X99666666Y-64577200D02*
X99571428Y-64624819D01*
X99571428Y-64624819D02*
X99285714Y-64624819D01*
X99285714Y-64624819D02*
X99190476Y-64577200D01*
X99190476Y-64577200D02*
X99142857Y-64529580D01*
X42261905Y-83654819D02*
X42261905Y-82654819D01*
X42833333Y-83654819D02*
X42404762Y-83083390D01*
X42833333Y-82654819D02*
X42261905Y-83226247D01*
X43785714Y-83654819D02*
X43214286Y-83654819D01*
X43500000Y-83654819D02*
X43500000Y-82654819D01*
X43500000Y-82654819D02*
X43404762Y-82797676D01*
X43404762Y-82797676D02*
X43309524Y-82892914D01*
X43309524Y-82892914D02*
X43214286Y-82940533D01*
D11*
X97990476Y-85963855D02*
X97990476Y-85163855D01*
X97990476Y-85544807D02*
X98447619Y-85544807D01*
X98447619Y-85963855D02*
X98447619Y-85163855D01*
X99247618Y-85201950D02*
X99171428Y-85163855D01*
X99171428Y-85163855D02*
X99057142Y-85163855D01*
X99057142Y-85163855D02*
X98942856Y-85201950D01*
X98942856Y-85201950D02*
X98866666Y-85278140D01*
X98866666Y-85278140D02*
X98828571Y-85354331D01*
X98828571Y-85354331D02*
X98790475Y-85506712D01*
X98790475Y-85506712D02*
X98790475Y-85620998D01*
X98790475Y-85620998D02*
X98828571Y-85773379D01*
X98828571Y-85773379D02*
X98866666Y-85849569D01*
X98866666Y-85849569D02*
X98942856Y-85925760D01*
X98942856Y-85925760D02*
X99057142Y-85963855D01*
X99057142Y-85963855D02*
X99133333Y-85963855D01*
X99133333Y-85963855D02*
X99247618Y-85925760D01*
X99247618Y-85925760D02*
X99285714Y-85887664D01*
X99285714Y-85887664D02*
X99285714Y-85620998D01*
X99285714Y-85620998D02*
X99133333Y-85620998D01*
X100047618Y-85963855D02*
X99590475Y-85963855D01*
X99819047Y-85963855D02*
X99819047Y-85163855D01*
X99819047Y-85163855D02*
X99742856Y-85278140D01*
X99742856Y-85278140D02*
X99666666Y-85354331D01*
X99666666Y-85354331D02*
X99590475Y-85392426D01*
X92390476Y-89963855D02*
X92466666Y-89963855D01*
X92466666Y-89963855D02*
X92542857Y-90001950D01*
X92542857Y-90001950D02*
X92580952Y-90040045D01*
X92580952Y-90040045D02*
X92619047Y-90116236D01*
X92619047Y-90116236D02*
X92657142Y-90268617D01*
X92657142Y-90268617D02*
X92657142Y-90459093D01*
X92657142Y-90459093D02*
X92619047Y-90611474D01*
X92619047Y-90611474D02*
X92580952Y-90687664D01*
X92580952Y-90687664D02*
X92542857Y-90725760D01*
X92542857Y-90725760D02*
X92466666Y-90763855D01*
X92466666Y-90763855D02*
X92390476Y-90763855D01*
X92390476Y-90763855D02*
X92314285Y-90725760D01*
X92314285Y-90725760D02*
X92276190Y-90687664D01*
X92276190Y-90687664D02*
X92238095Y-90611474D01*
X92238095Y-90611474D02*
X92199999Y-90459093D01*
X92199999Y-90459093D02*
X92199999Y-90268617D01*
X92199999Y-90268617D02*
X92238095Y-90116236D01*
X92238095Y-90116236D02*
X92276190Y-90040045D01*
X92276190Y-90040045D02*
X92314285Y-90001950D01*
X92314285Y-90001950D02*
X92390476Y-89963855D01*
X93000000Y-90687664D02*
X93038095Y-90725760D01*
X93038095Y-90725760D02*
X93000000Y-90763855D01*
X93000000Y-90763855D02*
X92961904Y-90725760D01*
X92961904Y-90725760D02*
X93000000Y-90687664D01*
X93000000Y-90687664D02*
X93000000Y-90763855D01*
X93495237Y-90306712D02*
X93419047Y-90268617D01*
X93419047Y-90268617D02*
X93380952Y-90230521D01*
X93380952Y-90230521D02*
X93342856Y-90154331D01*
X93342856Y-90154331D02*
X93342856Y-90116236D01*
X93342856Y-90116236D02*
X93380952Y-90040045D01*
X93380952Y-90040045D02*
X93419047Y-90001950D01*
X93419047Y-90001950D02*
X93495237Y-89963855D01*
X93495237Y-89963855D02*
X93647618Y-89963855D01*
X93647618Y-89963855D02*
X93723809Y-90001950D01*
X93723809Y-90001950D02*
X93761904Y-90040045D01*
X93761904Y-90040045D02*
X93799999Y-90116236D01*
X93799999Y-90116236D02*
X93799999Y-90154331D01*
X93799999Y-90154331D02*
X93761904Y-90230521D01*
X93761904Y-90230521D02*
X93723809Y-90268617D01*
X93723809Y-90268617D02*
X93647618Y-90306712D01*
X93647618Y-90306712D02*
X93495237Y-90306712D01*
X93495237Y-90306712D02*
X93419047Y-90344807D01*
X93419047Y-90344807D02*
X93380952Y-90382902D01*
X93380952Y-90382902D02*
X93342856Y-90459093D01*
X93342856Y-90459093D02*
X93342856Y-90611474D01*
X93342856Y-90611474D02*
X93380952Y-90687664D01*
X93380952Y-90687664D02*
X93419047Y-90725760D01*
X93419047Y-90725760D02*
X93495237Y-90763855D01*
X93495237Y-90763855D02*
X93647618Y-90763855D01*
X93647618Y-90763855D02*
X93723809Y-90725760D01*
X93723809Y-90725760D02*
X93761904Y-90687664D01*
X93761904Y-90687664D02*
X93799999Y-90611474D01*
X93799999Y-90611474D02*
X93799999Y-90459093D01*
X93799999Y-90459093D02*
X93761904Y-90382902D01*
X93761904Y-90382902D02*
X93723809Y-90344807D01*
X93723809Y-90344807D02*
X93647618Y-90306712D01*
X96390476Y-89963855D02*
X96466666Y-89963855D01*
X96466666Y-89963855D02*
X96542857Y-90001950D01*
X96542857Y-90001950D02*
X96580952Y-90040045D01*
X96580952Y-90040045D02*
X96619047Y-90116236D01*
X96619047Y-90116236D02*
X96657142Y-90268617D01*
X96657142Y-90268617D02*
X96657142Y-90459093D01*
X96657142Y-90459093D02*
X96619047Y-90611474D01*
X96619047Y-90611474D02*
X96580952Y-90687664D01*
X96580952Y-90687664D02*
X96542857Y-90725760D01*
X96542857Y-90725760D02*
X96466666Y-90763855D01*
X96466666Y-90763855D02*
X96390476Y-90763855D01*
X96390476Y-90763855D02*
X96314285Y-90725760D01*
X96314285Y-90725760D02*
X96276190Y-90687664D01*
X96276190Y-90687664D02*
X96238095Y-90611474D01*
X96238095Y-90611474D02*
X96199999Y-90459093D01*
X96199999Y-90459093D02*
X96199999Y-90268617D01*
X96199999Y-90268617D02*
X96238095Y-90116236D01*
X96238095Y-90116236D02*
X96276190Y-90040045D01*
X96276190Y-90040045D02*
X96314285Y-90001950D01*
X96314285Y-90001950D02*
X96390476Y-89963855D01*
X97000000Y-90687664D02*
X97038095Y-90725760D01*
X97038095Y-90725760D02*
X97000000Y-90763855D01*
X97000000Y-90763855D02*
X96961904Y-90725760D01*
X96961904Y-90725760D02*
X97000000Y-90687664D01*
X97000000Y-90687664D02*
X97000000Y-90763855D01*
X97419047Y-90763855D02*
X97571428Y-90763855D01*
X97571428Y-90763855D02*
X97647618Y-90725760D01*
X97647618Y-90725760D02*
X97685714Y-90687664D01*
X97685714Y-90687664D02*
X97761904Y-90573379D01*
X97761904Y-90573379D02*
X97799999Y-90420998D01*
X97799999Y-90420998D02*
X97799999Y-90116236D01*
X97799999Y-90116236D02*
X97761904Y-90040045D01*
X97761904Y-90040045D02*
X97723809Y-90001950D01*
X97723809Y-90001950D02*
X97647618Y-89963855D01*
X97647618Y-89963855D02*
X97495237Y-89963855D01*
X97495237Y-89963855D02*
X97419047Y-90001950D01*
X97419047Y-90001950D02*
X97380952Y-90040045D01*
X97380952Y-90040045D02*
X97342856Y-90116236D01*
X97342856Y-90116236D02*
X97342856Y-90306712D01*
X97342856Y-90306712D02*
X97380952Y-90382902D01*
X97380952Y-90382902D02*
X97419047Y-90420998D01*
X97419047Y-90420998D02*
X97495237Y-90459093D01*
X97495237Y-90459093D02*
X97647618Y-90459093D01*
X97647618Y-90459093D02*
X97723809Y-90420998D01*
X97723809Y-90420998D02*
X97761904Y-90382902D01*
X97761904Y-90382902D02*
X97799999Y-90306712D01*
X100657142Y-90763855D02*
X100199999Y-90763855D01*
X100428571Y-90763855D02*
X100428571Y-89963855D01*
X100428571Y-89963855D02*
X100352380Y-90078140D01*
X100352380Y-90078140D02*
X100276190Y-90154331D01*
X100276190Y-90154331D02*
X100199999Y-90192426D01*
X101000000Y-90687664D02*
X101038095Y-90725760D01*
X101038095Y-90725760D02*
X101000000Y-90763855D01*
X101000000Y-90763855D02*
X100961904Y-90725760D01*
X100961904Y-90725760D02*
X101000000Y-90687664D01*
X101000000Y-90687664D02*
X101000000Y-90763855D01*
X101533333Y-89963855D02*
X101609523Y-89963855D01*
X101609523Y-89963855D02*
X101685714Y-90001950D01*
X101685714Y-90001950D02*
X101723809Y-90040045D01*
X101723809Y-90040045D02*
X101761904Y-90116236D01*
X101761904Y-90116236D02*
X101799999Y-90268617D01*
X101799999Y-90268617D02*
X101799999Y-90459093D01*
X101799999Y-90459093D02*
X101761904Y-90611474D01*
X101761904Y-90611474D02*
X101723809Y-90687664D01*
X101723809Y-90687664D02*
X101685714Y-90725760D01*
X101685714Y-90725760D02*
X101609523Y-90763855D01*
X101609523Y-90763855D02*
X101533333Y-90763855D01*
X101533333Y-90763855D02*
X101457142Y-90725760D01*
X101457142Y-90725760D02*
X101419047Y-90687664D01*
X101419047Y-90687664D02*
X101380952Y-90611474D01*
X101380952Y-90611474D02*
X101342856Y-90459093D01*
X101342856Y-90459093D02*
X101342856Y-90268617D01*
X101342856Y-90268617D02*
X101380952Y-90116236D01*
X101380952Y-90116236D02*
X101419047Y-90040045D01*
X101419047Y-90040045D02*
X101457142Y-90001950D01*
X101457142Y-90001950D02*
X101533333Y-89963855D01*
X104657142Y-90763855D02*
X104199999Y-90763855D01*
X104428571Y-90763855D02*
X104428571Y-89963855D01*
X104428571Y-89963855D02*
X104352380Y-90078140D01*
X104352380Y-90078140D02*
X104276190Y-90154331D01*
X104276190Y-90154331D02*
X104199999Y-90192426D01*
X105000000Y-90687664D02*
X105038095Y-90725760D01*
X105038095Y-90725760D02*
X105000000Y-90763855D01*
X105000000Y-90763855D02*
X104961904Y-90725760D01*
X104961904Y-90725760D02*
X105000000Y-90687664D01*
X105000000Y-90687664D02*
X105000000Y-90763855D01*
X105799999Y-90763855D02*
X105342856Y-90763855D01*
X105571428Y-90763855D02*
X105571428Y-89963855D01*
X105571428Y-89963855D02*
X105495237Y-90078140D01*
X105495237Y-90078140D02*
X105419047Y-90154331D01*
X105419047Y-90154331D02*
X105342856Y-90192426D01*
%TO.C,U101*%
X37390000Y-38390000D02*
X37865000Y-38390000D01*
X37390000Y-38865000D02*
X37390000Y-38390000D01*
X37390000Y-47610000D02*
X37390000Y-47135000D01*
X37865000Y-47610000D02*
X37390000Y-47610000D01*
X46135000Y-38390000D02*
X46610000Y-38390000D01*
X46610000Y-38390000D02*
X46610000Y-38865000D01*
X46610000Y-47135000D02*
X46610000Y-47610000D01*
X46610000Y-47610000D02*
X46135000Y-47610000D01*
X36860000Y-39250000D02*
X36530000Y-39490000D01*
X36530000Y-39010000D01*
X36860000Y-39250000D01*
G36*
X36860000Y-39250000D02*
G01*
X36530000Y-39490000D01*
X36530000Y-39010000D01*
X36860000Y-39250000D01*
G37*
%TO.C,U102*%
X65390000Y-38390000D02*
X65865000Y-38390000D01*
X65390000Y-38865000D02*
X65390000Y-38390000D01*
X65390000Y-47610000D02*
X65390000Y-47135000D01*
X65865000Y-47610000D02*
X65390000Y-47610000D01*
X74135000Y-38390000D02*
X74610000Y-38390000D01*
X74610000Y-38390000D02*
X74610000Y-38865000D01*
X74610000Y-47135000D02*
X74610000Y-47610000D01*
X74610000Y-47610000D02*
X74135000Y-47610000D01*
X64860000Y-39250000D02*
X64530000Y-39490000D01*
X64530000Y-39010000D01*
X64860000Y-39250000D01*
G36*
X64860000Y-39250000D02*
G01*
X64530000Y-39490000D01*
X64530000Y-39010000D01*
X64860000Y-39250000D01*
G37*
%TO.C,U103*%
X93390000Y-38390000D02*
X93865000Y-38390000D01*
X93390000Y-38865000D02*
X93390000Y-38390000D01*
X93390000Y-47610000D02*
X93390000Y-47135000D01*
X93865000Y-47610000D02*
X93390000Y-47610000D01*
X102135000Y-38390000D02*
X102610000Y-38390000D01*
X102610000Y-38390000D02*
X102610000Y-38865000D01*
X102610000Y-47135000D02*
X102610000Y-47610000D01*
X102610000Y-47610000D02*
X102135000Y-47610000D01*
X92860000Y-39250000D02*
X92530000Y-39490000D01*
X92530000Y-39010000D01*
X92860000Y-39250000D01*
G36*
X92860000Y-39250000D02*
G01*
X92530000Y-39490000D01*
X92530000Y-39010000D01*
X92860000Y-39250000D01*
G37*
%TO.C,U201*%
X38390000Y-65390000D02*
X38865000Y-65390000D01*
X38390000Y-65865000D02*
X38390000Y-65390000D01*
X38390000Y-72610000D02*
X38390000Y-72135000D01*
X38865000Y-72610000D02*
X38390000Y-72610000D01*
X45135000Y-65390000D02*
X45610000Y-65390000D01*
X45610000Y-65390000D02*
X45610000Y-65865000D01*
X45610000Y-72135000D02*
X45610000Y-72610000D01*
X45610000Y-72610000D02*
X45135000Y-72610000D01*
X37860000Y-66250000D02*
X37530000Y-66490000D01*
X37530000Y-66010000D01*
X37860000Y-66250000D01*
G36*
X37860000Y-66250000D02*
G01*
X37530000Y-66490000D01*
X37530000Y-66010000D01*
X37860000Y-66250000D01*
G37*
%TO.C,U202*%
X66390000Y-65390000D02*
X66865000Y-65390000D01*
X66390000Y-65865000D02*
X66390000Y-65390000D01*
X66390000Y-72610000D02*
X66390000Y-72135000D01*
X66865000Y-72610000D02*
X66390000Y-72610000D01*
X73135000Y-65390000D02*
X73610000Y-65390000D01*
X73610000Y-65390000D02*
X73610000Y-65865000D01*
X73610000Y-72135000D02*
X73610000Y-72610000D01*
X73610000Y-72610000D02*
X73135000Y-72610000D01*
X65860000Y-66250000D02*
X65530000Y-66490000D01*
X65530000Y-66010000D01*
X65860000Y-66250000D01*
G36*
X65860000Y-66250000D02*
G01*
X65530000Y-66490000D01*
X65530000Y-66010000D01*
X65860000Y-66250000D01*
G37*
%TO.C,U203*%
X94390000Y-65390000D02*
X94865000Y-65390000D01*
X94390000Y-65865000D02*
X94390000Y-65390000D01*
X94390000Y-72610000D02*
X94390000Y-72135000D01*
X94865000Y-72610000D02*
X94390000Y-72610000D01*
X101135000Y-65390000D02*
X101610000Y-65390000D01*
X101610000Y-65390000D02*
X101610000Y-65865000D01*
X101610000Y-72135000D02*
X101610000Y-72610000D01*
X101610000Y-72610000D02*
X101135000Y-72610000D01*
X93860000Y-66250000D02*
X93530000Y-66490000D01*
X93530000Y-66010000D01*
X93860000Y-66250000D01*
G36*
X93860000Y-66250000D02*
G01*
X93530000Y-66490000D01*
X93530000Y-66010000D01*
X93860000Y-66250000D01*
G37*
%TO.C,H1*%
D10*
X26000000Y-24000000D02*
G75*
G02*
X22000000Y-24000000I-2000000J0D01*
G01*
X22000000Y-24000000D02*
G75*
G02*
X26000000Y-24000000I2000000J0D01*
G01*
%TO.C,H2*%
X118000000Y-24000000D02*
G75*
G02*
X114000000Y-24000000I-2000000J0D01*
G01*
X114000000Y-24000000D02*
G75*
G02*
X118000000Y-24000000I2000000J0D01*
G01*
%TO.C,H3*%
X26000000Y-96000000D02*
G75*
G02*
X22000000Y-96000000I-2000000J0D01*
G01*
X22000000Y-96000000D02*
G75*
G02*
X26000000Y-96000000I2000000J0D01*
G01*
%TO.C,H4*%
X118000000Y-96000000D02*
G75*
G02*
X114000000Y-96000000I-2000000J0D01*
G01*
X114000000Y-96000000D02*
G75*
G02*
X118000000Y-96000000I2000000J0D01*
G01*
%TD*%
%LPC*%
%TO.C,FID1*%
D12*
X30500000Y-27000000D02*
G75*
G02*
X27500000Y-27000000I-1500000J0D01*
G01*
X27500000Y-27000000D02*
G75*
G02*
X30500000Y-27000000I1500000J0D01*
G01*
%TO.C,FID2*%
X112500000Y-27000000D02*
G75*
G02*
X109500000Y-27000000I-1500000J0D01*
G01*
X109500000Y-27000000D02*
G75*
G02*
X112500000Y-27000000I1500000J0D01*
G01*
%TO.C,FID3*%
X112500000Y-93000000D02*
G75*
G02*
X109500000Y-93000000I-1500000J0D01*
G01*
X109500000Y-93000000D02*
G75*
G02*
X112500000Y-93000000I1500000J0D01*
G01*
%TD*%
D13*
%TO.C,U101*%
X37562500Y-39250000D03*
X37562500Y-39750000D03*
X37562500Y-40250000D03*
X37562500Y-40750000D03*
X37562500Y-41250000D03*
X37562500Y-41750000D03*
X37562500Y-42250000D03*
X37562500Y-42750000D03*
X37562500Y-43250000D03*
X37562500Y-43750000D03*
X37562500Y-44250000D03*
X37562500Y-44750000D03*
X37562500Y-45250000D03*
X37562500Y-45750000D03*
X37562500Y-46250000D03*
X37562500Y-46750000D03*
D14*
X38250000Y-47437500D03*
X38750000Y-47437500D03*
X39250000Y-47437500D03*
X39750000Y-47437500D03*
X40250000Y-47437500D03*
X40750000Y-47437500D03*
X41250000Y-47437500D03*
X41750000Y-47437500D03*
X42250000Y-47437500D03*
X42750000Y-47437500D03*
X43250000Y-47437500D03*
X43750000Y-47437500D03*
X44250000Y-47437500D03*
X44750000Y-47437500D03*
X45250000Y-47437500D03*
X45750000Y-47437500D03*
D13*
X46437500Y-46750000D03*
X46437500Y-46250000D03*
X46437500Y-45750000D03*
X46437500Y-45250000D03*
X46437500Y-44750000D03*
X46437500Y-44250000D03*
X46437500Y-43750000D03*
X46437500Y-43250000D03*
X46437500Y-42750000D03*
X46437500Y-42250000D03*
X46437500Y-41750000D03*
X46437500Y-41250000D03*
X46437500Y-40750000D03*
X46437500Y-40250000D03*
X46437500Y-39750000D03*
X46437500Y-39250000D03*
D14*
X45750000Y-38562500D03*
X45250000Y-38562500D03*
X44750000Y-38562500D03*
X44250000Y-38562500D03*
X43750000Y-38562500D03*
X43250000Y-38562500D03*
X42750000Y-38562500D03*
X42250000Y-38562500D03*
X41750000Y-38562500D03*
X41250000Y-38562500D03*
X40750000Y-38562500D03*
X40250000Y-38562500D03*
X39750000Y-38562500D03*
X39250000Y-38562500D03*
X38750000Y-38562500D03*
X38250000Y-38562500D03*
D15*
X42000000Y-43000000D03*
%TD*%
D13*
%TO.C,U102*%
X65562500Y-39250000D03*
X65562500Y-39750000D03*
X65562500Y-40250000D03*
X65562500Y-40750000D03*
X65562500Y-41250000D03*
X65562500Y-41750000D03*
X65562500Y-42250000D03*
X65562500Y-42750000D03*
X65562500Y-43250000D03*
X65562500Y-43750000D03*
X65562500Y-44250000D03*
X65562500Y-44750000D03*
X65562500Y-45250000D03*
X65562500Y-45750000D03*
X65562500Y-46250000D03*
X65562500Y-46750000D03*
D14*
X66250000Y-47437500D03*
X66750000Y-47437500D03*
X67250000Y-47437500D03*
X67750000Y-47437500D03*
X68250000Y-47437500D03*
X68750000Y-47437500D03*
X69250000Y-47437500D03*
X69750000Y-47437500D03*
X70250000Y-47437500D03*
X70750000Y-47437500D03*
X71250000Y-47437500D03*
X71750000Y-47437500D03*
X72250000Y-47437500D03*
X72750000Y-47437500D03*
X73250000Y-47437500D03*
X73750000Y-47437500D03*
D13*
X74437500Y-46750000D03*
X74437500Y-46250000D03*
X74437500Y-45750000D03*
X74437500Y-45250000D03*
X74437500Y-44750000D03*
X74437500Y-44250000D03*
X74437500Y-43750000D03*
X74437500Y-43250000D03*
X74437500Y-42750000D03*
X74437500Y-42250000D03*
X74437500Y-41750000D03*
X74437500Y-41250000D03*
X74437500Y-40750000D03*
X74437500Y-40250000D03*
X74437500Y-39750000D03*
X74437500Y-39250000D03*
D14*
X73750000Y-38562500D03*
X73250000Y-38562500D03*
X72750000Y-38562500D03*
X72250000Y-38562500D03*
X71750000Y-38562500D03*
X71250000Y-38562500D03*
X70750000Y-38562500D03*
X70250000Y-38562500D03*
X69750000Y-38562500D03*
X69250000Y-38562500D03*
X68750000Y-38562500D03*
X68250000Y-38562500D03*
X67750000Y-38562500D03*
X67250000Y-38562500D03*
X66750000Y-38562500D03*
X66250000Y-38562500D03*
D15*
X70000000Y-43000000D03*
%TD*%
D13*
%TO.C,U103*%
X93562500Y-39250000D03*
X93562500Y-39750000D03*
X93562500Y-40250000D03*
X93562500Y-40750000D03*
X93562500Y-41250000D03*
X93562500Y-41750000D03*
X93562500Y-42250000D03*
X93562500Y-42750000D03*
X93562500Y-43250000D03*
X93562500Y-43750000D03*
X93562500Y-44250000D03*
X93562500Y-44750000D03*
X93562500Y-45250000D03*
X93562500Y-45750000D03*
X93562500Y-46250000D03*
X93562500Y-46750000D03*
D14*
X94250000Y-47437500D03*
X94750000Y-47437500D03*
X95250000Y-47437500D03*
X95750000Y-47437500D03*
X96250000Y-47437500D03*
X96750000Y-47437500D03*
X97250000Y-47437500D03*
X97750000Y-47437500D03*
X98250000Y-47437500D03*
X98750000Y-47437500D03*
X99250000Y-47437500D03*
X99750000Y-47437500D03*
X100250000Y-47437500D03*
X100750000Y-47437500D03*
X101250000Y-47437500D03*
X101750000Y-47437500D03*
D13*
X102437500Y-46750000D03*
X102437500Y-46250000D03*
X102437500Y-45750000D03*
X102437500Y-45250000D03*
X102437500Y-44750000D03*
X102437500Y-44250000D03*
X102437500Y-43750000D03*
X102437500Y-43250000D03*
X102437500Y-42750000D03*
X102437500Y-42250000D03*
X102437500Y-41750000D03*
X102437500Y-41250000D03*
X102437500Y-40750000D03*
X102437500Y-40250000D03*
X102437500Y-39750000D03*
X102437500Y-39250000D03*
D14*
X101750000Y-38562500D03*
X101250000Y-38562500D03*
X100750000Y-38562500D03*
X100250000Y-38562500D03*
X99750000Y-38562500D03*
X99250000Y-38562500D03*
X98750000Y-38562500D03*
X98250000Y-38562500D03*
X97750000Y-38562500D03*
X97250000Y-38562500D03*
X96750000Y-38562500D03*
X96250000Y-38562500D03*
X95750000Y-38562500D03*
X95250000Y-38562500D03*
X94750000Y-38562500D03*
X94250000Y-38562500D03*
D15*
X98000000Y-43000000D03*
%TD*%
D13*
%TO.C,U201*%
X38562500Y-66250000D03*
X38562500Y-66750000D03*
X38562500Y-67250000D03*
X38562500Y-67750000D03*
X38562500Y-68250000D03*
X38562500Y-68750000D03*
X38562500Y-69250000D03*
X38562500Y-69750000D03*
X38562500Y-70250000D03*
X38562500Y-70750000D03*
X38562500Y-71250000D03*
X38562500Y-71750000D03*
D14*
X39250000Y-72437500D03*
X39750000Y-72437500D03*
X40250000Y-72437500D03*
X40750000Y-72437500D03*
X41250000Y-72437500D03*
X41750000Y-72437500D03*
X42250000Y-72437500D03*
X42750000Y-72437500D03*
X43250000Y-72437500D03*
X43750000Y-72437500D03*
X44250000Y-72437500D03*
X44750000Y-72437500D03*
D13*
X45437500Y-71750000D03*
X45437500Y-71250000D03*
X45437500Y-70750000D03*
X45437500Y-70250000D03*
X45437500Y-69750000D03*
X45437500Y-69250000D03*
X45437500Y-68750000D03*
X45437500Y-68250000D03*
X45437500Y-67750000D03*
X45437500Y-67250000D03*
X45437500Y-66750000D03*
X45437500Y-66250000D03*
D14*
X44750000Y-65562500D03*
X44250000Y-65562500D03*
X43750000Y-65562500D03*
X43250000Y-65562500D03*
X42750000Y-65562500D03*
X42250000Y-65562500D03*
X41750000Y-65562500D03*
X41250000Y-65562500D03*
X40750000Y-65562500D03*
X40250000Y-65562500D03*
X39750000Y-65562500D03*
X39250000Y-65562500D03*
D16*
X42000000Y-69000000D03*
%TD*%
D13*
%TO.C,U202*%
X66562500Y-66250000D03*
X66562500Y-66750000D03*
X66562500Y-67250000D03*
X66562500Y-67750000D03*
X66562500Y-68250000D03*
X66562500Y-68750000D03*
X66562500Y-69250000D03*
X66562500Y-69750000D03*
X66562500Y-70250000D03*
X66562500Y-70750000D03*
X66562500Y-71250000D03*
X66562500Y-71750000D03*
D14*
X67250000Y-72437500D03*
X67750000Y-72437500D03*
X68250000Y-72437500D03*
X68750000Y-72437500D03*
X69250000Y-72437500D03*
X69750000Y-72437500D03*
X70250000Y-72437500D03*
X70750000Y-72437500D03*
X71250000Y-72437500D03*
X71750000Y-72437500D03*
X72250000Y-72437500D03*
X72750000Y-72437500D03*
D13*
X73437500Y-71750000D03*
X73437500Y-71250000D03*
X73437500Y-70750000D03*
X73437500Y-70250000D03*
X73437500Y-69750000D03*
X73437500Y-69250000D03*
X73437500Y-68750000D03*
X73437500Y-68250000D03*
X73437500Y-67750000D03*
X73437500Y-67250000D03*
X73437500Y-66750000D03*
X73437500Y-66250000D03*
D14*
X72750000Y-65562500D03*
X72250000Y-65562500D03*
X71750000Y-65562500D03*
X71250000Y-65562500D03*
X70750000Y-65562500D03*
X70250000Y-65562500D03*
X69750000Y-65562500D03*
X69250000Y-65562500D03*
X68750000Y-65562500D03*
X68250000Y-65562500D03*
X67750000Y-65562500D03*
X67250000Y-65562500D03*
D16*
X70000000Y-69000000D03*
%TD*%
D13*
%TO.C,U203*%
X94562500Y-66250000D03*
X94562500Y-66750000D03*
X94562500Y-67250000D03*
X94562500Y-67750000D03*
X94562500Y-68250000D03*
X94562500Y-68750000D03*
X94562500Y-69250000D03*
X94562500Y-69750000D03*
X94562500Y-70250000D03*
X94562500Y-70750000D03*
X94562500Y-71250000D03*
X94562500Y-71750000D03*
D14*
X95250000Y-72437500D03*
X95750000Y-72437500D03*
X96250000Y-72437500D03*
X96750000Y-72437500D03*
X97250000Y-72437500D03*
X97750000Y-72437500D03*
X98250000Y-72437500D03*
X98750000Y-72437500D03*
X99250000Y-72437500D03*
X99750000Y-72437500D03*
X100250000Y-72437500D03*
X100750000Y-72437500D03*
D13*
X101437500Y-71750000D03*
X101437500Y-71250000D03*
X101437500Y-70750000D03*
X101437500Y-70250000D03*
X101437500Y-69750000D03*
X101437500Y-69250000D03*
X101437500Y-68750000D03*
X101437500Y-68250000D03*
X101437500Y-67750000D03*
X101437500Y-67250000D03*
X101437500Y-66750000D03*
X101437500Y-66250000D03*
D14*
X100750000Y-65562500D03*
X100250000Y-65562500D03*
X99750000Y-65562500D03*
X99250000Y-65562500D03*
X98750000Y-65562500D03*
X98250000Y-65562500D03*
X97750000Y-65562500D03*
X97250000Y-65562500D03*
X96750000Y-65562500D03*
X96250000Y-65562500D03*
X95750000Y-65562500D03*
X95250000Y-65562500D03*
D16*
X98000000Y-69000000D03*
%TD*%
D17*
%TO.C,K1*%
X39190000Y-85190000D03*
D18*
X41730000Y-85190000D03*
X44270000Y-85190000D03*
X46810000Y-85190000D03*
X39190000Y-92810000D03*
X41730000Y-92810000D03*
X44270000Y-92810000D03*
X46810000Y-92810000D03*
%TD*%
D19*
%TO.C,J1*%
X70000000Y-87000000D03*
D20*
X68275000Y-81900000D03*
X71725000Y-81900000D03*
X73070000Y-87000000D03*
X68700000Y-87000000D03*
X66650000Y-87000000D03*
%TD*%
D21*
%TO.C,H1*%
X24000000Y-24000000D03*
%TD*%
%TO.C,H2*%
X116000000Y-24000000D03*
%TD*%
%TO.C,H3*%
X24000000Y-96000000D03*
%TD*%
%TO.C,H4*%
X116000000Y-96000000D03*
%TD*%
D22*
%TO.C,FID1*%
X29000000Y-27000000D03*
%TD*%
%TO.C,FID2*%
X111000000Y-27000000D03*
%TD*%
%TO.C,FID3*%
X111000000Y-93000000D03*
%TD*%
D23*
%TO.C,HG1*%
X93000000Y-88000000D03*
D18*
X97000000Y-88000000D03*
D24*
X101000000Y-88000000D03*
D25*
X105000000Y-88000000D03*
%TD*%
%LPD*%
M02*
