M48
; DRILL file KiCad 10.0.5-rc1 date 2026-08-16T19:30:56
; FORMAT={-:-/ absolute / metric / decimal}
; #@! TF.CreationDate,2026-08-16T19:30:56-04:00
; #@! TF.GenerationSoftware,Kicad,Pcbnew,10.0.5-rc1
; #@! TF.FileFunction,Plated,1,6,PTH
FMAT,2
METRIC
; #@! TA.AperFunction,Plated,PTH,ComponentDrill
T1C0.200
; #@! TA.AperFunction,Plated,PTH,ComponentDrill
T2C0.800
; #@! TA.AperFunction,Plated,PTH,ComponentDrill
T3C0.900
; #@! TA.AperFunction,Plated,PTH,ComponentDrill
T4C1.000
; #@! TA.AperFunction,Plated,PTH,ComponentDrill
T5C1.100
%
G90
G05
T1
X39.25Y-40.25
X39.25Y-41.625
X39.25Y-43.0
X39.25Y-44.375
X39.25Y-45.75
X39.675Y-66.675
X39.675Y-67.837
X39.675Y-69.0
X39.675Y-70.162
X39.675Y-71.325
X40.625Y-40.25
X40.625Y-41.625
X40.625Y-43.0
X40.625Y-44.375
X40.625Y-45.75
X40.837Y-66.675
X40.837Y-67.837
X40.837Y-69.0
X40.837Y-70.162
X40.837Y-71.325
X42.0Y-40.25
X42.0Y-41.625
X42.0Y-43.0
X42.0Y-44.375
X42.0Y-45.75
X42.0Y-66.675
X42.0Y-67.837
X42.0Y-69.0
X42.0Y-70.162
X42.0Y-71.325
X43.163Y-66.675
X43.163Y-67.837
X43.163Y-69.0
X43.163Y-70.162
X43.163Y-71.325
X43.375Y-40.25
X43.375Y-41.625
X43.375Y-43.0
X43.375Y-44.375
X43.375Y-45.75
X44.325Y-66.675
X44.325Y-67.837
X44.325Y-69.0
X44.325Y-70.162
X44.325Y-71.325
X44.75Y-40.25
X44.75Y-41.625
X44.75Y-43.0
X44.75Y-44.375
X44.75Y-45.75
X67.25Y-40.25
X67.25Y-41.625
X67.25Y-43.0
X67.25Y-44.375
X67.25Y-45.75
X67.675Y-66.675
X67.675Y-67.837
X67.675Y-69.0
X67.675Y-70.162
X67.675Y-71.325
X68.625Y-40.25
X68.625Y-41.625
X68.625Y-43.0
X68.625Y-44.375
X68.625Y-45.75
X68.837Y-66.675
X68.837Y-67.837
X68.837Y-69.0
X68.837Y-70.162
X68.837Y-71.325
X70.0Y-40.25
X70.0Y-41.625
X70.0Y-43.0
X70.0Y-44.375
X70.0Y-45.75
X70.0Y-66.675
X70.0Y-67.837
X70.0Y-69.0
X70.0Y-70.162
X70.0Y-71.325
X71.162Y-66.675
X71.162Y-67.837
X71.162Y-69.0
X71.162Y-70.162
X71.162Y-71.325
X71.375Y-40.25
X71.375Y-41.625
X71.375Y-43.0
X71.375Y-44.375
X71.375Y-45.75
X72.325Y-66.675
X72.325Y-67.837
X72.325Y-69.0
X72.325Y-70.162
X72.325Y-71.325
X72.75Y-40.25
X72.75Y-41.625
X72.75Y-43.0
X72.75Y-44.375
X72.75Y-45.75
X95.25Y-40.25
X95.25Y-41.625
X95.25Y-43.0
X95.25Y-44.375
X95.25Y-45.75
X95.675Y-66.675
X95.675Y-67.837
X95.675Y-69.0
X95.675Y-70.162
X95.675Y-71.325
X96.625Y-40.25
X96.625Y-41.625
X96.625Y-43.0
X96.625Y-44.375
X96.625Y-45.75
X96.837Y-66.675
X96.837Y-67.837
X96.837Y-69.0
X96.837Y-70.162
X96.837Y-71.325
X98.0Y-40.25
X98.0Y-41.625
X98.0Y-43.0
X98.0Y-44.375
X98.0Y-45.75
X98.0Y-66.675
X98.0Y-67.837
X98.0Y-69.0
X98.0Y-70.162
X98.0Y-71.325
X99.162Y-66.675
X99.162Y-67.837
X99.162Y-69.0
X99.162Y-70.162
X99.162Y-71.325
X99.375Y-40.25
X99.375Y-41.625
X99.375Y-43.0
X99.375Y-44.375
X99.375Y-45.75
X100.325Y-66.675
X100.325Y-67.837
X100.325Y-69.0
X100.325Y-70.162
X100.325Y-71.325
X100.75Y-40.25
X100.75Y-41.625
X100.75Y-43.0
X100.75Y-44.375
X100.75Y-45.75
T2
X66.65Y-87.0
X68.275Y-81.9
X68.7Y-87.0
X70.0Y-87.0
X71.725Y-81.9
X73.07Y-87.0
X93.0Y-88.0
T3
X39.19Y-85.19
X39.19Y-92.81
X41.73Y-85.19
X41.73Y-92.81
X44.27Y-85.19
X44.27Y-92.81
X46.81Y-85.19
X46.81Y-92.81
X97.0Y-88.0
T4
X101.0Y-88.0
T5
X105.0Y-88.0
M30
